<?xml version="1.0" encoding="utf-8"?>
<svg xmlns="http://www.w3.org/2000/svg" xmlns:xlink="http://www.w3.org/1999/xlink" width="1200" height="800" viewBox="0 0 4800 3200">
<defs>
  <clipPath id="clip250">
    <rect x="0" y="0" width="4800" height="3200"/>
  </clipPath>
</defs>
<path clip-path="url(#clip250)" d="M0 3200 L4800 3200 L4800 0 L0 0  Z" fill="#ffffff" fill-rule="evenodd" fill-opacity="1"/>
<defs>
  <clipPath id="clip251">
    <rect x="960" y="0" width="3361" height="3200"/>
  </clipPath>
</defs>
<path clip-path="url(#clip250)" d="M266.135 3007.18 L4752.76 3007.18 L4752.76 123.472 L266.135 123.472  Z" fill="#ffffff" fill-rule="evenodd" fill-opacity="1"/>
<defs>
  <clipPath id="clip252">
    <rect x="266" y="123" width="4488" height="2885"/>
  </clipPath>
</defs>
<polyline clip-path="url(#clip252)" style="stroke:#000000; stroke-linecap:round; stroke-linejoin:round; stroke-width:2; stroke-opacity:0.1; fill:none" points="393.115,3007.18 393.115,123.472 "/>
<polyline clip-path="url(#clip252)" style="stroke:#000000; stroke-linecap:round; stroke-linejoin:round; stroke-width:2; stroke-opacity:0.1; fill:none" points="1771.83,3007.18 1771.83,123.472 "/>
<polyline clip-path="url(#clip252)" style="stroke:#000000; stroke-linecap:round; stroke-linejoin:round; stroke-width:2; stroke-opacity:0.1; fill:none" points="3150.55,3007.18 3150.55,123.472 "/>
<polyline clip-path="url(#clip252)" style="stroke:#000000; stroke-linecap:round; stroke-linejoin:round; stroke-width:2; stroke-opacity:0.1; fill:none" points="4529.27,3007.18 4529.27,123.472 "/>
<polyline clip-path="url(#clip252)" style="stroke:#000000; stroke-linecap:round; stroke-linejoin:round; stroke-width:2; stroke-opacity:0.1; fill:none" points="266.135,2784.59 4752.76,2784.59 "/>
<polyline clip-path="url(#clip252)" style="stroke:#000000; stroke-linecap:round; stroke-linejoin:round; stroke-width:2; stroke-opacity:0.1; fill:none" points="266.135,1945.45 4752.76,1945.45 "/>
<polyline clip-path="url(#clip252)" style="stroke:#000000; stroke-linecap:round; stroke-linejoin:round; stroke-width:2; stroke-opacity:0.1; fill:none" points="266.135,1106.32 4752.76,1106.32 "/>
<polyline clip-path="url(#clip252)" style="stroke:#000000; stroke-linecap:round; stroke-linejoin:round; stroke-width:2; stroke-opacity:0.1; fill:none" points="266.135,267.183 4752.76,267.183 "/>
<polyline clip-path="url(#clip250)" style="stroke:#000000; stroke-linecap:round; stroke-linejoin:round; stroke-width:4; stroke-opacity:1; fill:none" points="266.135,3007.18 4752.76,3007.18 "/>
<polyline clip-path="url(#clip250)" style="stroke:#000000; stroke-linecap:round; stroke-linejoin:round; stroke-width:4; stroke-opacity:1; fill:none" points="393.115,3007.18 393.115,2988.28 "/>
<polyline clip-path="url(#clip250)" style="stroke:#000000; stroke-linecap:round; stroke-linejoin:round; stroke-width:4; stroke-opacity:1; fill:none" points="1771.83,3007.18 1771.83,2988.28 "/>
<polyline clip-path="url(#clip250)" style="stroke:#000000; stroke-linecap:round; stroke-linejoin:round; stroke-width:4; stroke-opacity:1; fill:none" points="3150.55,3007.18 3150.55,2988.28 "/>
<polyline clip-path="url(#clip250)" style="stroke:#000000; stroke-linecap:round; stroke-linejoin:round; stroke-width:4; stroke-opacity:1; fill:none" points="4529.27,3007.18 4529.27,2988.28 "/>
<path clip-path="url(#clip250)" d="M337.64 3084.84 L345.279 3084.84 L345.279 3058.48 L336.969 3060.15 L336.969 3055.89 L345.233 3054.22 L349.909 3054.22 L349.909 3084.84 L357.548 3084.84 L357.548 3088.78 L337.64 3088.78 L337.64 3084.84 Z" fill="#000000" fill-rule="nonzero" fill-opacity="1" /><path clip-path="url(#clip250)" d="M365.811 3054.22 L388.034 3054.22 L388.034 3056.21 L375.487 3088.78 L370.603 3088.78 L382.409 3058.16 L365.811 3058.16 L365.811 3054.22 Z" fill="#000000" fill-rule="nonzero" fill-opacity="1" /><path clip-path="url(#clip250)" d="M407.154 3057.3 Q403.543 3057.3 401.714 3060.86 Q399.908 3064.4 399.908 3071.53 Q399.908 3078.64 401.714 3082.21 Q403.543 3085.75 407.154 3085.75 Q410.788 3085.75 412.594 3082.21 Q414.422 3078.64 414.422 3071.53 Q414.422 3064.4 412.594 3060.86 Q410.788 3057.3 407.154 3057.3 M407.154 3053.59 Q412.964 3053.59 416.019 3058.2 Q419.098 3062.78 419.098 3071.53 Q419.098 3080.26 416.019 3084.87 Q412.964 3089.45 407.154 3089.45 Q401.344 3089.45 398.265 3084.87 Q395.209 3080.26 395.209 3071.53 Q395.209 3062.78 398.265 3058.2 Q401.344 3053.59 407.154 3053.59 Z" fill="#000000" fill-rule="nonzero" fill-opacity="1" /><path clip-path="url(#clip250)" d="M437.316 3057.3 Q433.705 3057.3 431.876 3060.86 Q430.07 3064.4 430.07 3071.53 Q430.07 3078.64 431.876 3082.21 Q433.705 3085.75 437.316 3085.75 Q440.95 3085.75 442.755 3082.21 Q444.584 3078.64 444.584 3071.53 Q444.584 3064.4 442.755 3060.86 Q440.95 3057.3 437.316 3057.3 M437.316 3053.59 Q443.126 3053.59 446.181 3058.2 Q449.26 3062.78 449.26 3071.53 Q449.26 3080.26 446.181 3084.87 Q443.126 3089.45 437.316 3089.45 Q431.506 3089.45 428.427 3084.87 Q425.371 3080.26 425.371 3071.53 Q425.371 3062.78 428.427 3058.2 Q431.506 3053.59 437.316 3053.59 Z" fill="#000000" fill-rule="nonzero" fill-opacity="1" /><path clip-path="url(#clip250)" d="M1716.36 3084.84 L1724 3084.84 L1724 3058.48 L1715.69 3060.15 L1715.69 3055.89 L1723.95 3054.22 L1728.63 3054.22 L1728.63 3084.84 L1736.26 3084.84 L1736.26 3088.78 L1716.36 3088.78 L1716.36 3084.84 Z" fill="#000000" fill-rule="nonzero" fill-opacity="1" /><path clip-path="url(#clip250)" d="M1755.71 3072.37 Q1752.38 3072.37 1750.45 3074.15 Q1748.56 3075.93 1748.56 3079.06 Q1748.56 3082.18 1750.45 3083.97 Q1752.38 3085.75 1755.71 3085.75 Q1759.04 3085.75 1760.96 3083.97 Q1762.88 3082.16 1762.88 3079.06 Q1762.88 3075.93 1760.96 3074.15 Q1759.07 3072.37 1755.71 3072.37 M1751.03 3070.38 Q1748.02 3069.64 1746.33 3067.58 Q1744.67 3065.52 1744.67 3062.55 Q1744.67 3058.41 1747.61 3056 Q1750.57 3053.59 1755.71 3053.59 Q1760.87 3053.59 1763.81 3056 Q1766.75 3058.41 1766.75 3062.55 Q1766.75 3065.52 1765.06 3067.58 Q1763.39 3069.64 1760.41 3070.38 Q1763.79 3071.16 1765.66 3073.46 Q1767.56 3075.75 1767.56 3079.06 Q1767.56 3084.08 1764.48 3086.77 Q1761.43 3089.45 1755.71 3089.45 Q1749.99 3089.45 1746.91 3086.77 Q1743.86 3084.08 1743.86 3079.06 Q1743.86 3075.75 1745.76 3073.46 Q1747.65 3071.16 1751.03 3070.38 M1749.32 3062.99 Q1749.32 3065.68 1750.99 3067.18 Q1752.68 3068.69 1755.71 3068.69 Q1758.72 3068.69 1760.41 3067.18 Q1762.12 3065.68 1762.12 3062.99 Q1762.12 3060.31 1760.41 3058.8 Q1758.72 3057.3 1755.71 3057.3 Q1752.68 3057.3 1750.99 3058.8 Q1749.32 3060.31 1749.32 3062.99 Z" fill="#000000" fill-rule="nonzero" fill-opacity="1" /><path clip-path="url(#clip250)" d="M1785.87 3057.3 Q1782.26 3057.3 1780.43 3060.86 Q1778.63 3064.4 1778.63 3071.53 Q1778.63 3078.64 1780.43 3082.21 Q1782.26 3085.75 1785.87 3085.75 Q1789.51 3085.75 1791.31 3082.21 Q1793.14 3078.64 1793.14 3071.53 Q1793.14 3064.4 1791.31 3060.86 Q1789.51 3057.3 1785.87 3057.3 M1785.87 3053.59 Q1791.68 3053.59 1794.74 3058.2 Q1797.82 3062.78 1797.82 3071.53 Q1797.82 3080.26 1794.74 3084.87 Q1791.68 3089.45 1785.87 3089.45 Q1780.06 3089.45 1776.98 3084.87 Q1773.93 3080.26 1773.93 3071.53 Q1773.93 3062.78 1776.98 3058.2 Q1780.06 3053.59 1785.87 3053.59 Z" fill="#000000" fill-rule="nonzero" fill-opacity="1" /><path clip-path="url(#clip250)" d="M1816.03 3057.3 Q1812.42 3057.3 1810.59 3060.86 Q1808.79 3064.4 1808.79 3071.53 Q1808.79 3078.64 1810.59 3082.21 Q1812.42 3085.75 1816.03 3085.75 Q1819.67 3085.75 1821.47 3082.21 Q1823.3 3078.64 1823.3 3071.53 Q1823.3 3064.4 1821.47 3060.86 Q1819.67 3057.3 1816.03 3057.3 M1816.03 3053.59 Q1821.84 3053.59 1824.9 3058.2 Q1827.98 3062.78 1827.98 3071.53 Q1827.98 3080.26 1824.9 3084.87 Q1821.84 3089.45 1816.03 3089.45 Q1810.22 3089.45 1807.14 3084.87 Q1804.09 3080.26 1804.09 3071.53 Q1804.09 3062.78 1807.14 3058.2 Q1810.22 3053.59 1816.03 3053.59 Z" fill="#000000" fill-rule="nonzero" fill-opacity="1" /><path clip-path="url(#clip250)" d="M3095.07 3084.84 L3102.71 3084.84 L3102.71 3058.48 L3094.4 3060.15 L3094.4 3055.89 L3102.67 3054.22 L3107.34 3054.22 L3107.34 3084.84 L3114.98 3084.84 L3114.98 3088.78 L3095.07 3088.78 L3095.07 3084.84 Z" fill="#000000" fill-rule="nonzero" fill-opacity="1" /><path clip-path="url(#clip250)" d="M3124.57 3088.06 L3124.57 3083.8 Q3126.32 3084.64 3128.13 3085.08 Q3129.94 3085.52 3131.67 3085.52 Q3136.3 3085.52 3138.73 3082.41 Q3141.19 3079.29 3141.53 3072.95 Q3140.19 3074.94 3138.13 3076 Q3136.07 3077.07 3133.57 3077.07 Q3128.38 3077.07 3125.35 3073.94 Q3122.34 3070.79 3122.34 3065.35 Q3122.34 3060.03 3125.49 3056.81 Q3128.64 3053.59 3133.87 3053.59 Q3139.87 3053.59 3143.01 3058.2 Q3146.19 3062.78 3146.19 3071.53 Q3146.19 3079.71 3142.3 3084.59 Q3138.43 3089.45 3131.88 3089.45 Q3130.12 3089.45 3128.32 3089.1 Q3126.51 3088.76 3124.57 3088.06 M3133.87 3073.41 Q3137.02 3073.41 3138.85 3071.26 Q3140.7 3069.1 3140.7 3065.35 Q3140.7 3061.63 3138.85 3059.47 Q3137.02 3057.3 3133.87 3057.3 Q3130.72 3057.3 3128.87 3059.47 Q3127.04 3061.63 3127.04 3065.35 Q3127.04 3069.1 3128.87 3071.26 Q3130.72 3073.41 3133.87 3073.41 Z" fill="#000000" fill-rule="nonzero" fill-opacity="1" /><path clip-path="url(#clip250)" d="M3164.59 3057.3 Q3160.98 3057.3 3159.15 3060.86 Q3157.34 3064.4 3157.34 3071.53 Q3157.34 3078.64 3159.15 3082.21 Q3160.98 3085.75 3164.59 3085.75 Q3168.22 3085.75 3170.03 3082.21 Q3171.86 3078.64 3171.86 3071.53 Q3171.86 3064.4 3170.03 3060.86 Q3168.22 3057.3 3164.59 3057.3 M3164.59 3053.59 Q3170.4 3053.59 3173.45 3058.2 Q3176.53 3062.78 3176.53 3071.53 Q3176.53 3080.26 3173.45 3084.87 Q3170.4 3089.45 3164.59 3089.45 Q3158.78 3089.45 3155.7 3084.87 Q3152.64 3080.26 3152.64 3071.53 Q3152.64 3062.78 3155.7 3058.2 Q3158.78 3053.59 3164.59 3053.59 Z" fill="#000000" fill-rule="nonzero" fill-opacity="1" /><path clip-path="url(#clip250)" d="M3194.75 3057.3 Q3191.14 3057.3 3189.31 3060.86 Q3187.5 3064.4 3187.5 3071.53 Q3187.5 3078.64 3189.31 3082.21 Q3191.14 3085.75 3194.75 3085.75 Q3198.38 3085.75 3200.19 3082.21 Q3202.02 3078.64 3202.02 3071.53 Q3202.02 3064.4 3200.19 3060.86 Q3198.38 3057.3 3194.75 3057.3 M3194.75 3053.59 Q3200.56 3053.59 3203.62 3058.2 Q3206.69 3062.78 3206.69 3071.53 Q3206.69 3080.26 3203.62 3084.87 Q3200.56 3089.45 3194.75 3089.45 Q3188.94 3089.45 3185.86 3084.87 Q3182.81 3080.26 3182.81 3071.53 Q3182.81 3062.78 3185.86 3058.2 Q3188.94 3053.59 3194.75 3053.59 Z" fill="#000000" fill-rule="nonzero" fill-opacity="1" /><path clip-path="url(#clip250)" d="M4477.88 3084.84 L4494.2 3084.84 L4494.2 3088.78 L4472.25 3088.78 L4472.25 3084.84 Q4474.91 3082.09 4479.5 3077.46 Q4484.1 3072.81 4485.28 3071.47 Q4487.53 3068.94 4488.41 3067.21 Q4489.31 3065.45 4489.31 3063.76 Q4489.31 3061 4487.37 3059.27 Q4485.45 3057.53 4482.34 3057.53 Q4480.15 3057.53 4477.69 3058.29 Q4475.26 3059.06 4472.48 3060.61 L4472.48 3055.89 Q4475.31 3054.75 4477.76 3054.17 Q4480.22 3053.59 4482.25 3053.59 Q4487.62 3053.59 4490.82 3056.28 Q4494.01 3058.97 4494.01 3063.46 Q4494.01 3065.59 4493.2 3067.51 Q4492.41 3069.4 4490.31 3072 Q4489.73 3072.67 4486.63 3075.89 Q4483.53 3079.08 4477.88 3084.84 Z" fill="#000000" fill-rule="nonzero" fill-opacity="1" /><path clip-path="url(#clip250)" d="M4514.01 3057.3 Q4510.4 3057.3 4508.57 3060.86 Q4506.77 3064.4 4506.77 3071.53 Q4506.77 3078.64 4508.57 3082.21 Q4510.4 3085.75 4514.01 3085.75 Q4517.65 3085.75 4519.45 3082.21 Q4521.28 3078.64 4521.28 3071.53 Q4521.28 3064.4 4519.45 3060.86 Q4517.65 3057.3 4514.01 3057.3 M4514.01 3053.59 Q4519.82 3053.59 4522.88 3058.2 Q4525.96 3062.78 4525.96 3071.53 Q4525.96 3080.26 4522.88 3084.87 Q4519.82 3089.45 4514.01 3089.45 Q4508.2 3089.45 4505.12 3084.87 Q4502.07 3080.26 4502.07 3071.53 Q4502.07 3062.78 4505.12 3058.2 Q4508.2 3053.59 4514.01 3053.59 Z" fill="#000000" fill-rule="nonzero" fill-opacity="1" /><path clip-path="url(#clip250)" d="M4544.17 3057.3 Q4540.56 3057.3 4538.73 3060.86 Q4536.93 3064.4 4536.93 3071.53 Q4536.93 3078.64 4538.73 3082.21 Q4540.56 3085.75 4544.17 3085.75 Q4547.81 3085.75 4549.61 3082.21 Q4551.44 3078.64 4551.44 3071.53 Q4551.44 3064.4 4549.61 3060.86 Q4547.81 3057.3 4544.17 3057.3 M4544.17 3053.59 Q4549.98 3053.59 4553.04 3058.2 Q4556.12 3062.78 4556.12 3071.53 Q4556.12 3080.26 4553.04 3084.87 Q4549.98 3089.45 4544.17 3089.45 Q4538.36 3089.45 4535.28 3084.87 Q4532.23 3080.26 4532.23 3071.53 Q4532.23 3062.78 4535.28 3058.2 Q4538.36 3053.59 4544.17 3053.59 Z" fill="#000000" fill-rule="nonzero" fill-opacity="1" /><path clip-path="url(#clip250)" d="M4574.34 3057.3 Q4570.72 3057.3 4568.9 3060.86 Q4567.09 3064.4 4567.09 3071.53 Q4567.09 3078.64 4568.9 3082.21 Q4570.72 3085.75 4574.34 3085.75 Q4577.97 3085.75 4579.77 3082.21 Q4581.6 3078.64 4581.6 3071.53 Q4581.6 3064.4 4579.77 3060.86 Q4577.97 3057.3 4574.34 3057.3 M4574.34 3053.59 Q4580.15 3053.59 4583.2 3058.2 Q4586.28 3062.78 4586.28 3071.53 Q4586.28 3080.26 4583.2 3084.87 Q4580.15 3089.45 4574.34 3089.45 Q4568.52 3089.45 4565.45 3084.87 Q4562.39 3080.26 4562.39 3071.53 Q4562.39 3062.78 4565.45 3058.2 Q4568.52 3053.59 4574.34 3053.59 Z" fill="#000000" fill-rule="nonzero" fill-opacity="1" /><path clip-path="url(#clip250)" d="M2440.38 3140.52 L2447.28 3140.52 L2460.46 3160.07 L2473.54 3140.52 L2480.45 3140.52 L2463.64 3165.41 L2463.64 3188.04 L2457.18 3188.04 L2457.18 3165.41 L2440.38 3140.52 Z" fill="#000000" fill-rule="nonzero" fill-opacity="1" /><path clip-path="url(#clip250)" d="M2508.3 3168.76 L2508.3 3171.62 L2481.37 3171.62 Q2481.75 3177.67 2485 3180.85 Q2488.28 3184 2494.1 3184 Q2497.48 3184 2500.63 3183.17 Q2503.81 3182.35 2506.93 3180.69 L2506.93 3186.23 Q2503.78 3187.57 2500.47 3188.27 Q2497.16 3188.97 2493.75 3188.97 Q2485.22 3188.97 2480.23 3184 Q2475.26 3179.04 2475.26 3170.57 Q2475.26 3161.82 2479.97 3156.69 Q2484.71 3151.54 2492.74 3151.54 Q2499.93 3151.54 2504.1 3156.18 Q2508.3 3160.8 2508.3 3168.76 M2502.44 3167.04 Q2502.38 3162.23 2499.74 3159.37 Q2497.13 3156.5 2492.8 3156.5 Q2487.9 3156.5 2484.94 3159.27 Q2482.01 3162.04 2481.56 3167.07 L2502.44 3167.04 Z" fill="#000000" fill-rule="nonzero" fill-opacity="1" /><path clip-path="url(#clip250)" d="M2534.11 3170.12 Q2527.01 3170.12 2524.28 3171.75 Q2521.54 3173.37 2521.54 3177.29 Q2521.54 3180.4 2523.58 3182.25 Q2525.65 3184.07 2529.18 3184.07 Q2534.05 3184.07 2536.98 3180.63 Q2539.94 3177.16 2539.94 3171.43 L2539.94 3170.12 L2534.11 3170.12 M2545.79 3167.71 L2545.79 3188.04 L2539.94 3188.04 L2539.94 3182.63 Q2537.93 3185.88 2534.94 3187.44 Q2531.95 3188.97 2527.62 3188.97 Q2522.14 3188.97 2518.9 3185.91 Q2515.68 3182.82 2515.68 3177.67 Q2515.68 3171.65 2519.69 3168.6 Q2523.74 3165.54 2531.73 3165.54 L2539.94 3165.54 L2539.94 3164.97 Q2539.94 3160.93 2537.26 3158.73 Q2534.62 3156.5 2529.82 3156.5 Q2526.76 3156.5 2523.86 3157.23 Q2520.97 3157.97 2518.29 3159.43 L2518.29 3154.02 Q2521.51 3152.78 2524.53 3152.17 Q2527.56 3151.54 2530.42 3151.54 Q2538.15 3151.54 2541.97 3155.55 Q2545.79 3159.56 2545.79 3167.71 Z" fill="#000000" fill-rule="nonzero" fill-opacity="1" /><path clip-path="url(#clip250)" d="M2578.51 3157.87 Q2577.53 3157.3 2576.35 3157.04 Q2575.2 3156.76 2573.8 3156.76 Q2568.84 3156.76 2566.16 3160 Q2563.52 3163.22 2563.52 3169.27 L2563.52 3188.04 L2557.63 3188.04 L2557.63 3152.4 L2563.52 3152.4 L2563.52 3157.93 Q2565.37 3154.69 2568.33 3153.13 Q2571.29 3151.54 2575.52 3151.54 Q2576.13 3151.54 2576.86 3151.63 Q2577.59 3151.7 2578.48 3151.85 L2578.51 3157.87 Z" fill="#000000" fill-rule="nonzero" fill-opacity="1" /><polyline clip-path="url(#clip250)" style="stroke:#000000; stroke-linecap:round; stroke-linejoin:round; stroke-width:4; stroke-opacity:1; fill:none" points="266.135,3007.18 266.135,123.472 "/>
<polyline clip-path="url(#clip250)" style="stroke:#000000; stroke-linecap:round; stroke-linejoin:round; stroke-width:4; stroke-opacity:1; fill:none" points="266.135,2784.59 285.032,2784.59 "/>
<polyline clip-path="url(#clip250)" style="stroke:#000000; stroke-linecap:round; stroke-linejoin:round; stroke-width:4; stroke-opacity:1; fill:none" points="266.135,1945.45 285.032,1945.45 "/>
<polyline clip-path="url(#clip250)" style="stroke:#000000; stroke-linecap:round; stroke-linejoin:round; stroke-width:4; stroke-opacity:1; fill:none" points="266.135,1106.32 285.032,1106.32 "/>
<polyline clip-path="url(#clip250)" style="stroke:#000000; stroke-linecap:round; stroke-linejoin:round; stroke-width:4; stroke-opacity:1; fill:none" points="266.135,267.183 285.032,267.183 "/>
<path clip-path="url(#clip250)" d="M102.26 2785.04 L131.936 2785.04 L131.936 2788.98 L102.26 2788.98 L102.26 2785.04 Z" fill="#000000" fill-rule="nonzero" fill-opacity="1" /><path clip-path="url(#clip250)" d="M142.075 2767.31 L160.431 2767.31 L160.431 2771.25 L146.357 2771.25 L146.357 2779.72 Q147.376 2779.37 148.394 2779.21 Q149.413 2779.02 150.431 2779.02 Q156.218 2779.02 159.598 2782.19 Q162.977 2785.37 162.977 2790.78 Q162.977 2796.36 159.505 2799.46 Q156.033 2802.54 149.714 2802.54 Q147.538 2802.54 145.269 2802.17 Q143.024 2801.8 140.616 2801.06 L140.616 2796.36 Q142.7 2797.5 144.922 2798.05 Q147.144 2798.61 149.621 2798.61 Q153.626 2798.61 155.964 2796.5 Q158.302 2794.39 158.302 2790.78 Q158.302 2787.17 155.964 2785.07 Q153.626 2782.96 149.621 2782.96 Q147.746 2782.96 145.871 2783.38 Q144.019 2783.79 142.075 2784.67 L142.075 2767.31 Z" fill="#000000" fill-rule="nonzero" fill-opacity="1" /><path clip-path="url(#clip250)" d="M182.19 2770.39 Q178.579 2770.39 176.75 2773.95 Q174.945 2777.5 174.945 2784.63 Q174.945 2791.73 176.75 2795.3 Q178.579 2798.84 182.19 2798.84 Q185.825 2798.84 187.63 2795.3 Q189.459 2791.73 189.459 2784.63 Q189.459 2777.5 187.63 2773.95 Q185.825 2770.39 182.19 2770.39 M182.19 2766.69 Q188 2766.69 191.056 2771.29 Q194.135 2775.88 194.135 2784.63 Q194.135 2793.35 191.056 2797.96 Q188 2802.54 182.19 2802.54 Q176.38 2802.54 173.301 2797.96 Q170.246 2793.35 170.246 2784.63 Q170.246 2775.88 173.301 2771.29 Q176.38 2766.69 182.19 2766.69 Z" fill="#000000" fill-rule="nonzero" fill-opacity="1" /><path clip-path="url(#clip250)" d="M182.19 1931.25 Q178.579 1931.25 176.75 1934.82 Q174.945 1938.36 174.945 1945.49 Q174.945 1952.6 176.75 1956.16 Q178.579 1959.7 182.19 1959.7 Q185.825 1959.7 187.63 1956.16 Q189.459 1952.6 189.459 1945.49 Q189.459 1938.36 187.63 1934.82 Q185.825 1931.25 182.19 1931.25 M182.19 1927.55 Q188 1927.55 191.056 1932.16 Q194.135 1936.74 194.135 1945.49 Q194.135 1954.22 191.056 1958.82 Q188 1963.41 182.19 1963.41 Q176.38 1963.41 173.301 1958.82 Q170.246 1954.22 170.246 1945.49 Q170.246 1936.74 173.301 1932.16 Q176.38 1927.55 182.19 1927.55 Z" fill="#000000" fill-rule="nonzero" fill-opacity="1" /><path clip-path="url(#clip250)" d="M142.075 1089.04 L160.431 1089.04 L160.431 1092.97 L146.357 1092.97 L146.357 1101.45 Q147.376 1101.1 148.394 1100.94 Q149.413 1100.75 150.431 1100.75 Q156.218 1100.75 159.598 1103.92 Q162.977 1107.09 162.977 1112.51 Q162.977 1118.09 159.505 1121.19 Q156.033 1124.27 149.714 1124.27 Q147.538 1124.27 145.269 1123.9 Q143.024 1123.53 140.616 1122.79 L140.616 1118.09 Q142.7 1119.22 144.922 1119.78 Q147.144 1120.33 149.621 1120.33 Q153.626 1120.33 155.964 1118.23 Q158.302 1116.12 158.302 1112.51 Q158.302 1108.9 155.964 1106.79 Q153.626 1104.69 149.621 1104.69 Q147.746 1104.69 145.871 1105.1 Q144.019 1105.52 142.075 1106.4 L142.075 1089.04 Z" fill="#000000" fill-rule="nonzero" fill-opacity="1" /><path clip-path="url(#clip250)" d="M182.19 1092.12 Q178.579 1092.12 176.75 1095.68 Q174.945 1099.22 174.945 1106.35 Q174.945 1113.46 176.75 1117.02 Q178.579 1120.57 182.19 1120.57 Q185.825 1120.57 187.63 1117.02 Q189.459 1113.46 189.459 1106.35 Q189.459 1099.22 187.63 1095.68 Q185.825 1092.12 182.19 1092.12 M182.19 1088.41 Q188 1088.41 191.056 1093.02 Q194.135 1097.6 194.135 1106.35 Q194.135 1115.08 191.056 1119.69 Q188 1124.27 182.19 1124.27 Q176.38 1124.27 173.301 1119.69 Q170.246 1115.08 170.246 1106.35 Q170.246 1097.6 173.301 1093.02 Q176.38 1088.41 182.19 1088.41 Z" fill="#000000" fill-rule="nonzero" fill-opacity="1" /><path clip-path="url(#clip250)" d="M112.677 280.527 L120.316 280.527 L120.316 254.162 L112.005 255.828 L112.005 251.569 L120.269 249.903 L124.945 249.903 L124.945 280.527 L132.584 280.527 L132.584 284.463 L112.677 284.463 L112.677 280.527 Z" fill="#000000" fill-rule="nonzero" fill-opacity="1" /><path clip-path="url(#clip250)" d="M152.028 252.981 Q148.417 252.981 146.589 256.546 Q144.783 260.088 144.783 267.217 Q144.783 274.324 146.589 277.889 Q148.417 281.43 152.028 281.43 Q155.663 281.43 157.468 277.889 Q159.297 274.324 159.297 267.217 Q159.297 260.088 157.468 256.546 Q155.663 252.981 152.028 252.981 M152.028 249.278 Q157.839 249.278 160.894 253.884 Q163.973 258.467 163.973 267.217 Q163.973 275.944 160.894 280.551 Q157.839 285.134 152.028 285.134 Q146.218 285.134 143.14 280.551 Q140.084 275.944 140.084 267.217 Q140.084 258.467 143.14 253.884 Q146.218 249.278 152.028 249.278 Z" fill="#000000" fill-rule="nonzero" fill-opacity="1" /><path clip-path="url(#clip250)" d="M182.19 252.981 Q178.579 252.981 176.75 256.546 Q174.945 260.088 174.945 267.217 Q174.945 274.324 176.75 277.889 Q178.579 281.43 182.19 281.43 Q185.825 281.43 187.63 277.889 Q189.459 274.324 189.459 267.217 Q189.459 260.088 187.63 256.546 Q185.825 252.981 182.19 252.981 M182.19 249.278 Q188 249.278 191.056 253.884 Q194.135 258.467 194.135 267.217 Q194.135 275.944 191.056 280.551 Q188 285.134 182.19 285.134 Q176.38 285.134 173.301 280.551 Q170.246 275.944 170.246 267.217 Q170.246 258.467 173.301 253.884 Q176.38 249.278 182.19 249.278 Z" fill="#000000" fill-rule="nonzero" fill-opacity="1" /><path clip-path="url(#clip250)" d="M-29.9562 1905.02 L-23.686 1905.02 Q-25.4366 1908.68 -26.296 1911.92 Q-27.1553 1915.17 -27.1553 1918.19 Q-27.1553 1923.44 -25.1183 1926.31 Q-23.0813 1929.14 -19.3255 1929.14 Q-16.1745 1929.14 -14.5512 1927.26 Q-12.9598 1925.35 -11.9731 1920.07 L-11.1774 1916.19 Q-9.80878 1908.99 -6.33947 1905.59 Q-2.90199 1902.15 2.8908 1902.15 Q9.79759 1902.15 13.3624 1906.8 Q16.9272 1911.41 16.9272 1920.36 Q16.9272 1923.73 16.1633 1927.55 Q15.3994 1931.34 13.9035 1935.41 L7.28314 1935.41 Q9.47931 1931.5 10.5933 1927.74 Q11.7073 1923.99 11.7073 1920.36 Q11.7073 1914.85 9.54297 1911.86 Q7.37862 1908.87 3.36823 1908.87 Q-0.132909 1908.87 -2.10628 1911.03 Q-4.07965 1913.16 -5.06633 1918.07 L-5.83022 1921.98 Q-7.2625 1929.17 -10.318 1932.39 Q-13.3736 1935.6 -18.8163 1935.6 Q-25.1183 1935.6 -28.7468 1931.18 Q-32.3752 1926.72 -32.3752 1918.93 Q-32.3752 1915.58 -31.7705 1912.11 Q-31.1657 1908.64 -29.9562 1905.02 Z" fill="#000000" fill-rule="nonzero" fill-opacity="1" /><path clip-path="url(#clip250)" d="M1.93595 1892.98 L-19.6438 1892.98 L-19.6438 1887.13 L1.71315 1887.13 Q6.77388 1887.13 9.32017 1885.15 Q11.8346 1883.18 11.8346 1879.23 Q11.8346 1874.49 8.81091 1871.76 Q5.7872 1868.99 0.567319 1868.99 L-19.6438 1868.99 L-19.6438 1863.13 L16.0042 1863.13 L16.0042 1868.99 L10.5296 1868.99 Q13.7762 1871.12 15.3676 1873.95 Q16.9272 1876.75 16.9272 1880.48 Q16.9272 1886.62 13.1078 1889.8 Q9.28834 1892.98 1.93595 1892.98 M-20.5032 1878.25 L-20.5032 1878.25 Z" fill="#000000" fill-rule="nonzero" fill-opacity="1" /><path clip-path="url(#clip250)" d="M-5.51193 1821.43 L16.0042 1821.43 L16.0042 1827.29 L-5.32096 1827.29 Q-10.3817 1827.29 -12.8962 1829.26 Q-15.4106 1831.24 -15.4106 1835.18 Q-15.4106 1839.93 -12.3869 1842.66 Q-9.36318 1845.4 -4.1433 1845.4 L16.0042 1845.4 L16.0042 1851.29 L-19.6438 1851.29 L-19.6438 1845.4 L-14.1056 1845.4 Q-17.3203 1843.3 -18.9117 1840.47 Q-20.5032 1837.6 -20.5032 1833.88 Q-20.5032 1827.74 -16.6837 1824.59 Q-12.8962 1821.43 -5.51193 1821.43 Z" fill="#000000" fill-rule="nonzero" fill-opacity="1" /><path clip-path="url(#clip250)" d="M-18.5935 1787.03 L-13.0553 1787.03 Q-14.3284 1789.51 -14.965 1792.18 Q-15.6016 1794.86 -15.6016 1797.72 Q-15.6016 1802.08 -14.2648 1804.28 Q-12.928 1806.44 -10.2544 1806.44 Q-8.21736 1806.44 -7.0397 1804.88 Q-5.89387 1803.32 -4.84353 1798.61 L-4.39793 1796.61 Q-3.06113 1790.37 -0.610337 1787.76 Q1.80863 1785.12 6.16914 1785.12 Q11.1344 1785.12 14.0308 1789.06 Q16.9272 1792.98 16.9272 1799.85 Q16.9272 1802.72 16.3543 1805.84 Q15.8132 1808.93 14.6992 1812.36 L8.65177 1812.36 Q10.3387 1809.12 11.198 1805.97 Q12.0256 1802.81 12.0256 1799.73 Q12.0256 1795.59 10.6251 1793.36 Q9.19285 1791.13 6.61474 1791.13 Q4.2276 1791.13 2.95446 1792.76 Q1.68132 1794.35 0.503662 1799.79 L0.0262338 1801.83 Q-1.11959 1807.27 -3.4749 1809.69 Q-5.86204 1812.11 -9.99975 1812.11 Q-15.0287 1812.11 -17.7659 1808.54 Q-20.5032 1804.98 -20.5032 1798.42 Q-20.5032 1795.18 -20.0257 1792.31 Q-19.5483 1789.45 -18.5935 1787.03 Z" fill="#000000" fill-rule="nonzero" fill-opacity="1" /><path clip-path="url(#clip250)" d="M10.657 1770.13 L29.5631 1770.13 L29.5631 1776.01 L-19.6438 1776.01 L-19.6438 1770.13 L-14.2329 1770.13 Q-17.4158 1768.28 -18.9436 1765.48 Q-20.5032 1762.65 -20.5032 1758.73 Q-20.5032 1752.24 -15.3469 1748.2 Q-10.1907 1744.12 -1.78799 1744.12 Q6.61474 1744.12 11.771 1748.2 Q16.9272 1752.24 16.9272 1758.73 Q16.9272 1762.65 15.3994 1765.48 Q13.8398 1768.28 10.657 1770.13 M-1.78799 1750.2 Q-8.24918 1750.2 -11.9095 1752.88 Q-15.6016 1755.52 -15.6016 1760.16 Q-15.6016 1764.81 -11.9095 1767.48 Q-8.24918 1770.13 -1.78799 1770.13 Q4.6732 1770.13 8.36531 1767.48 Q12.0256 1764.81 12.0256 1760.16 Q12.0256 1755.52 8.36531 1752.88 Q4.6732 1750.2 -1.78799 1750.2 Z" fill="#000000" fill-rule="nonzero" fill-opacity="1" /><path clip-path="url(#clip250)" d="M-15.5379 1720.6 Q-15.5379 1725.31 -11.8458 1728.05 Q-8.18553 1730.79 -1.78799 1730.79 Q4.60954 1730.79 8.30165 1728.08 Q11.9619 1725.34 11.9619 1720.6 Q11.9619 1715.92 8.26982 1713.19 Q4.57771 1710.45 -1.78799 1710.45 Q-8.12187 1710.45 -11.814 1713.19 Q-15.5379 1715.92 -15.5379 1720.6 M-20.5032 1720.6 Q-20.5032 1712.96 -15.5379 1708.6 Q-10.5727 1704.24 -1.78799 1704.24 Q6.96485 1704.24 11.9619 1708.6 Q16.9272 1712.96 16.9272 1720.6 Q16.9272 1728.27 11.9619 1732.63 Q6.96485 1736.96 -1.78799 1736.96 Q-10.5727 1736.96 -15.5379 1732.63 Q-20.5032 1728.27 -20.5032 1720.6 Z" fill="#000000" fill-rule="nonzero" fill-opacity="1" /><path clip-path="url(#clip250)" d="M-29.7653 1688.74 L-19.6438 1688.74 L-19.6438 1676.68 L-15.0923 1676.68 L-15.0923 1688.74 L4.25943 1688.74 Q8.61994 1688.74 9.86125 1687.56 Q11.1026 1686.35 11.1026 1682.69 L11.1026 1676.68 L16.0042 1676.68 L16.0042 1682.69 Q16.0042 1689.47 13.4897 1692.05 Q10.9434 1694.63 4.25943 1694.63 L-15.0923 1694.63 L-15.0923 1698.93 L-19.6438 1698.93 L-19.6438 1694.63 L-29.7653 1694.63 L-29.7653 1688.74 Z" fill="#000000" fill-rule="nonzero" fill-opacity="1" /><path clip-path="url(#clip250)" d="M-31.5158 1648 L-31.5158 1639.34 L8.238 1618.27 L-31.5158 1618.27 L-31.5158 1612.03 L16.0042 1612.03 L16.0042 1620.69 L-23.7497 1641.76 L16.0042 1641.76 L16.0042 1648 L-31.5158 1648 Z" fill="#000000" fill-rule="nonzero" fill-opacity="1" /><path clip-path="url(#clip250)" d="M1.93595 1600.1 L-19.6438 1600.1 L-19.6438 1594.24 L1.71315 1594.24 Q6.77388 1594.24 9.32017 1592.27 Q11.8346 1590.3 11.8346 1586.35 Q11.8346 1581.61 8.81091 1578.87 Q5.7872 1576.1 0.567319 1576.1 L-19.6438 1576.1 L-19.6438 1570.24 L16.0042 1570.24 L16.0042 1576.1 L10.5296 1576.1 Q13.7762 1578.23 15.3676 1581.07 Q16.9272 1583.87 16.9272 1587.59 Q16.9272 1593.73 13.1078 1596.92 Q9.28834 1600.1 1.93595 1600.1 M-20.5032 1585.36 L-20.5032 1585.36 Z" fill="#000000" fill-rule="nonzero" fill-opacity="1" /><path clip-path="url(#clip250)" d="M-12.8007 1530.43 Q-16.7474 1528.23 -18.6253 1525.17 Q-20.5032 1522.12 -20.5032 1517.98 Q-20.5032 1512.41 -16.5883 1509.39 Q-12.7052 1506.36 -5.51193 1506.36 L16.0042 1506.36 L16.0042 1512.25 L-5.32096 1512.25 Q-10.4454 1512.25 -12.928 1514.07 Q-15.4106 1515.88 -15.4106 1519.6 Q-15.4106 1524.16 -12.3869 1526.8 Q-9.36318 1529.44 -4.1433 1529.44 L16.0042 1529.44 L16.0042 1535.33 L-5.32096 1535.33 Q-10.4772 1535.33 -12.928 1537.14 Q-15.4106 1538.96 -15.4106 1542.74 Q-15.4106 1547.23 -12.3551 1549.87 Q-9.33135 1552.51 -4.1433 1552.51 L16.0042 1552.51 L16.0042 1558.4 L-19.6438 1558.4 L-19.6438 1552.51 L-14.1056 1552.51 Q-17.384 1550.51 -18.9436 1547.71 Q-20.5032 1544.91 -20.5032 1541.06 Q-20.5032 1537.17 -18.5298 1534.47 Q-16.5564 1531.73 -12.8007 1530.43 Z" fill="#000000" fill-rule="nonzero" fill-opacity="1" /><path clip-path="url(#clip250)" d="M-1.78799 1469.09 Q-8.24918 1469.09 -11.9095 1471.77 Q-15.6016 1474.41 -15.6016 1479.05 Q-15.6016 1483.7 -11.9095 1486.38 Q-8.24918 1489.02 -1.78799 1489.02 Q4.6732 1489.02 8.36531 1486.38 Q12.0256 1483.7 12.0256 1479.05 Q12.0256 1474.41 8.36531 1471.77 Q4.6732 1469.09 -1.78799 1469.09 M-14.2329 1489.02 Q-17.4158 1487.17 -18.9436 1484.37 Q-20.5032 1481.54 -20.5032 1477.62 Q-20.5032 1471.13 -15.3469 1467.09 Q-10.1907 1463.01 -1.78799 1463.01 Q6.61474 1463.01 11.771 1467.09 Q16.9272 1471.13 16.9272 1477.62 Q16.9272 1481.54 15.3994 1484.37 Q13.8398 1487.17 10.657 1489.02 L16.0042 1489.02 L16.0042 1494.91 L-33.521 1494.91 L-33.521 1489.02 L-14.2329 1489.02 Z" fill="#000000" fill-rule="nonzero" fill-opacity="1" /><path clip-path="url(#clip250)" d="M-3.28393 1422.81 L-0.419366 1422.81 L-0.419366 1449.74 Q5.62806 1449.36 8.81091 1446.11 Q11.9619 1442.83 11.9619 1437.01 Q11.9619 1433.64 11.1344 1430.48 Q10.3069 1427.3 8.65177 1424.18 L14.1899 1424.18 Q15.5267 1427.33 16.227 1430.64 Q16.9272 1433.95 16.9272 1437.36 Q16.9272 1445.89 11.9619 1450.89 Q6.99668 1455.85 -1.46971 1455.85 Q-10.2226 1455.85 -15.3469 1451.14 Q-20.5032 1446.4 -20.5032 1438.38 Q-20.5032 1431.18 -15.8562 1427.02 Q-11.2411 1422.81 -3.28393 1422.81 M-5.00267 1428.67 Q-9.80878 1428.73 -12.6734 1431.38 Q-15.5379 1433.99 -15.5379 1438.31 Q-15.5379 1443.22 -12.7688 1446.18 Q-9.99975 1449.1 -4.97085 1449.55 L-5.00267 1428.67 Z" fill="#000000" fill-rule="nonzero" fill-opacity="1" /><path clip-path="url(#clip250)" d="M-14.1693 1392.54 Q-14.7422 1393.53 -14.9968 1394.71 Q-15.2833 1395.85 -15.2833 1397.26 Q-15.2833 1402.22 -12.0368 1404.89 Q-8.8221 1407.54 -2.77468 1407.54 L16.0042 1407.54 L16.0042 1413.42 L-19.6438 1413.42 L-19.6438 1407.54 L-14.1056 1407.54 Q-17.3521 1405.69 -18.9117 1402.73 Q-20.5032 1399.77 -20.5032 1395.54 Q-20.5032 1394.93 -20.4077 1394.2 Q-20.344 1393.47 -20.1849 1392.58 L-14.1693 1392.54 Z" fill="#000000" fill-rule="nonzero" fill-opacity="1" /><path clip-path="url(#clip250)" d="M-33.4574 1351.61 Q-26.1368 1355.88 -18.9754 1357.95 Q-11.814 1360.02 -4.46159 1360.02 Q2.8908 1360.02 10.1159 1357.95 Q17.3091 1355.85 24.5979 1351.61 L24.5979 1356.71 Q17.1182 1361.48 9.89308 1363.87 Q2.668 1366.22 -4.46159 1366.22 Q-11.5594 1366.22 -18.7526 1363.87 Q-25.9458 1361.51 -33.4574 1356.71 L-33.4574 1351.61 Z" fill="#000000" fill-rule="nonzero" fill-opacity="1" /><path clip-path="url(#clip250)" d="M-29.9562 1311.51 L-23.686 1311.51 Q-25.4366 1315.17 -26.296 1318.42 Q-27.1553 1321.66 -27.1553 1324.69 Q-27.1553 1329.94 -25.1183 1332.8 Q-23.0813 1335.64 -19.3255 1335.64 Q-16.1745 1335.64 -14.5512 1333.76 Q-12.9598 1331.85 -11.9731 1326.56 L-11.1774 1322.68 Q-9.80878 1315.49 -6.33947 1312.08 Q-2.90199 1308.64 2.8908 1308.64 Q9.79759 1308.64 13.3624 1313.29 Q16.9272 1317.91 16.9272 1326.85 Q16.9272 1330.22 16.1633 1334.04 Q15.3994 1337.83 13.9035 1341.91 L7.28314 1341.91 Q9.47931 1337.99 10.5933 1334.23 Q11.7073 1330.48 11.7073 1326.85 Q11.7073 1321.34 9.54297 1318.35 Q7.37862 1315.36 3.36823 1315.36 Q-0.132909 1315.36 -2.10628 1317.52 Q-4.07965 1319.66 -5.06633 1324.56 L-5.83022 1328.47 Q-7.2625 1335.67 -10.318 1338.88 Q-13.3736 1342.1 -18.8163 1342.1 Q-25.1183 1342.1 -28.7468 1337.67 Q-32.3752 1333.22 -32.3752 1325.42 Q-32.3752 1322.08 -31.7705 1318.61 Q-31.1657 1315.14 -29.9562 1311.51 Z" fill="#000000" fill-rule="nonzero" fill-opacity="1" /><path clip-path="url(#clip250)" d="M-29.9562 1270.13 L-23.686 1270.13 Q-25.4366 1273.79 -26.296 1277.04 Q-27.1553 1280.29 -27.1553 1283.31 Q-27.1553 1288.56 -25.1183 1291.43 Q-23.0813 1294.26 -19.3255 1294.26 Q-16.1745 1294.26 -14.5512 1292.38 Q-12.9598 1290.47 -11.9731 1285.19 L-11.1774 1281.3 Q-9.80878 1274.11 -6.33947 1270.71 Q-2.90199 1267.27 2.8908 1267.27 Q9.79759 1267.27 13.3624 1271.91 Q16.9272 1276.53 16.9272 1285.47 Q16.9272 1288.85 16.1633 1292.67 Q15.3994 1296.45 13.9035 1300.53 L7.28314 1300.53 Q9.47931 1296.61 10.5933 1292.86 Q11.7073 1289.1 11.7073 1285.47 Q11.7073 1279.97 9.54297 1276.98 Q7.37862 1273.98 3.36823 1273.98 Q-0.132909 1273.98 -2.10628 1276.15 Q-4.07965 1278.28 -5.06633 1283.18 L-5.83022 1287.1 Q-7.2625 1294.29 -10.318 1297.5 Q-13.3736 1300.72 -18.8163 1300.72 Q-25.1183 1300.72 -28.7468 1296.3 Q-32.3752 1291.84 -32.3752 1284.04 Q-32.3752 1280.7 -31.7705 1277.23 Q-31.1657 1273.76 -29.9562 1270.13 Z" fill="#000000" fill-rule="nonzero" fill-opacity="1" /><path clip-path="url(#clip250)" d="M-31.5158 1257.24 L-31.5158 1248.58 L8.238 1227.51 L-31.5158 1227.51 L-31.5158 1221.28 L16.0042 1221.28 L16.0042 1229.93 L-23.7497 1251 L16.0042 1251 L16.0042 1257.24 L-31.5158 1257.24 Z" fill="#000000" fill-rule="nonzero" fill-opacity="1" /><path clip-path="url(#clip250)" d="M-33.4574 1209.66 L-33.4574 1204.57 Q-25.9458 1199.79 -18.7526 1197.44 Q-11.5594 1195.05 -4.46159 1195.05 Q2.668 1195.05 9.89308 1197.44 Q17.1182 1199.79 24.5979 1204.57 L24.5979 1209.66 Q17.3091 1205.42 10.1159 1203.36 Q2.8908 1201.26 -4.46159 1201.26 Q-11.814 1201.26 -18.9754 1203.36 Q-26.1368 1205.42 -33.4574 1209.66 Z" fill="#000000" fill-rule="nonzero" fill-opacity="1" /><path clip-path="url(#clip250)" d="M2036.7 12.096 L2045.5 12.096 L2062.27 36.9686 L2078.92 12.096 L2087.71 12.096 L2066.32 43.7741 L2066.32 72.576 L2058.09 72.576 L2058.09 43.7741 L2036.7 12.096 Z" fill="#000000" fill-rule="nonzero" fill-opacity="1" /><path clip-path="url(#clip250)" d="M2123.15 48.0275 L2123.15 51.6733 L2088.88 51.6733 Q2089.37 59.3701 2093.5 63.421 Q2097.67 67.4314 2105.08 67.4314 Q2109.38 67.4314 2113.39 66.3781 Q2117.44 65.3249 2121.41 63.2184 L2121.41 70.267 Q2117.4 71.9684 2113.19 72.8596 Q2108.97 73.7508 2104.64 73.7508 Q2093.78 73.7508 2087.42 67.4314 Q2081.1 61.1119 2081.1 50.3365 Q2081.1 39.1965 2087.1 32.6746 Q2093.13 26.1121 2103.34 26.1121 Q2112.5 26.1121 2117.8 32.0264 Q2123.15 37.9003 2123.15 48.0275 M2115.7 45.84 Q2115.62 39.7232 2112.25 36.0774 Q2108.93 32.4315 2103.42 32.4315 Q2097.18 32.4315 2093.42 35.9558 Q2089.69 39.4801 2089.12 45.8805 L2115.7 45.84 Z" fill="#000000" fill-rule="nonzero" fill-opacity="1" /><path clip-path="url(#clip250)" d="M2156 49.7694 Q2146.97 49.7694 2143.49 51.8354 Q2140 53.9013 2140 58.8839 Q2140 62.8538 2142.6 65.2034 Q2145.23 67.5124 2149.72 67.5124 Q2155.92 67.5124 2159.65 63.1374 Q2163.42 58.7219 2163.42 51.4303 L2163.42 49.7694 L2156 49.7694 M2170.87 46.6907 L2170.87 72.576 L2163.42 72.576 L2163.42 65.6895 Q2160.86 69.8214 2157.06 71.8063 Q2153.25 73.7508 2147.74 73.7508 Q2140.77 73.7508 2136.64 69.8619 Q2132.55 65.9325 2132.55 59.3701 Q2132.55 51.7138 2137.65 47.825 Q2142.8 43.9361 2152.97 43.9361 L2163.42 43.9361 L2163.42 43.2069 Q2163.42 38.0623 2160.01 35.2672 Q2156.65 32.4315 2150.54 32.4315 Q2146.65 32.4315 2142.96 33.3632 Q2139.27 34.295 2135.87 36.1584 L2135.87 29.2718 Q2139.96 27.692 2143.81 26.9223 Q2147.66 26.1121 2151.3 26.1121 Q2161.15 26.1121 2166.01 31.2163 Q2170.87 36.3204 2170.87 46.6907 Z" fill="#000000" fill-rule="nonzero" fill-opacity="1" /><path clip-path="url(#clip250)" d="M2212.51 34.1734 Q2211.26 33.4443 2209.76 33.1202 Q2208.3 32.7556 2206.52 32.7556 Q2200.2 32.7556 2196.8 36.8875 Q2193.43 40.9789 2193.43 48.6757 L2193.43 72.576 L2185.94 72.576 L2185.94 27.2059 L2193.43 27.2059 L2193.43 34.2544 Q2195.78 30.1225 2199.55 28.1376 Q2203.32 26.1121 2208.71 26.1121 Q2209.48 26.1121 2210.41 26.2337 Q2211.34 26.3147 2212.47 26.5172 L2212.51 34.1734 Z" fill="#000000" fill-rule="nonzero" fill-opacity="1" /><path clip-path="url(#clip250)" d="M2220.33 9.54393 L2227.79 9.54393 L2227.79 72.576 L2220.33 72.576 L2220.33 9.54393 Z" fill="#000000" fill-rule="nonzero" fill-opacity="1" /><path clip-path="url(#clip250)" d="M2262.26 76.7889 Q2259.1 84.8907 2256.1 87.3618 Q2253.1 89.8329 2248.08 89.8329 L2242.13 89.8329 L2242.13 83.5945 L2246.5 83.5945 Q2249.58 83.5945 2251.28 82.1361 Q2252.98 80.6778 2255.05 75.2496 L2256.39 71.8468 L2238.03 27.2059 L2245.93 27.2059 L2260.11 62.6918 L2274.29 27.2059 L2282.19 27.2059 L2262.26 76.7889 Z" fill="#000000" fill-rule="nonzero" fill-opacity="1" /><path clip-path="url(#clip250)" d="M2355.43 14.0809 L2355.43 22.0612 Q2350.77 19.8332 2346.64 18.7395 Q2342.51 17.6457 2338.66 17.6457 Q2331.98 17.6457 2328.33 20.2383 Q2324.72 22.8309 2324.72 27.611 Q2324.72 31.6214 2327.11 33.6873 Q2329.54 35.7128 2336.27 36.9686 L2341.21 37.9813 Q2350.37 39.7232 2354.7 44.1387 Q2359.08 48.5136 2359.08 55.8863 Q2359.08 64.6767 2353.16 69.2137 Q2347.29 73.7508 2335.9 73.7508 Q2331.61 73.7508 2326.75 72.7785 Q2321.93 71.8063 2316.74 69.9024 L2316.74 61.4765 Q2321.73 64.2716 2326.51 65.6895 Q2331.29 67.1073 2335.9 67.1073 Q2342.91 67.1073 2346.72 64.3527 Q2350.53 61.598 2350.53 56.4939 Q2350.53 52.0379 2347.77 49.5264 Q2345.06 47.0148 2338.82 45.759 L2333.84 44.7868 Q2324.68 42.9639 2320.59 39.075 Q2316.5 35.1862 2316.5 28.2591 Q2316.5 20.2383 2322.13 15.6203 Q2327.8 11.0023 2337.73 11.0023 Q2341.98 11.0023 2346.4 11.7719 Q2350.81 12.5416 2355.43 14.0809 Z" fill="#000000" fill-rule="nonzero" fill-opacity="1" /><path clip-path="url(#clip250)" d="M2370.74 54.671 L2370.74 27.2059 L2378.2 27.2059 L2378.2 54.3874 Q2378.2 60.8284 2380.71 64.0691 Q2383.22 67.2693 2388.24 67.2693 Q2394.28 67.2693 2397.76 63.421 Q2401.29 59.5726 2401.29 52.9291 L2401.29 27.2059 L2408.74 27.2059 L2408.74 72.576 L2401.29 72.576 L2401.29 65.6084 Q2398.57 69.7404 2394.97 71.7658 Q2391.4 73.7508 2386.66 73.7508 Q2378.84 73.7508 2374.79 68.8897 Q2370.74 64.0286 2370.74 54.671 M2389.5 26.1121 L2389.5 26.1121 Z" fill="#000000" fill-rule="nonzero" fill-opacity="1" /><path clip-path="url(#clip250)" d="M2461.81 45.1919 L2461.81 72.576 L2454.35 72.576 L2454.35 45.4349 Q2454.35 38.994 2451.84 35.7938 Q2449.33 32.5936 2444.31 32.5936 Q2438.27 32.5936 2434.79 36.4419 Q2431.3 40.2903 2431.3 46.9338 L2431.3 72.576 L2423.81 72.576 L2423.81 27.2059 L2431.3 27.2059 L2431.3 34.2544 Q2433.98 30.163 2437.58 28.1376 Q2441.23 26.1121 2445.97 26.1121 Q2453.79 26.1121 2457.8 30.9732 Q2461.81 35.7938 2461.81 45.1919 Z" fill="#000000" fill-rule="nonzero" fill-opacity="1" /><path clip-path="url(#clip250)" d="M2505.6 28.5427 L2505.6 35.5912 Q2502.44 33.9709 2499.03 33.1607 Q2495.63 32.3505 2491.99 32.3505 Q2486.44 32.3505 2483.64 34.0519 Q2480.89 35.7533 2480.89 39.156 Q2480.89 41.7486 2482.87 43.2475 Q2484.86 44.7058 2490.85 46.0426 L2493.4 46.6097 Q2501.34 48.3111 2504.67 51.4303 Q2508.03 54.509 2508.03 60.0587 Q2508.03 66.3781 2503 70.0644 Q2498.02 73.7508 2489.27 73.7508 Q2485.63 73.7508 2481.66 73.0216 Q2477.73 72.3329 2473.35 70.9151 L2473.35 63.2184 Q2477.48 65.3654 2481.49 66.4591 Q2485.5 67.5124 2489.43 67.5124 Q2494.7 67.5124 2497.54 65.73 Q2500.37 63.9071 2500.37 60.6258 Q2500.37 57.5877 2498.31 55.9673 Q2496.28 54.3469 2489.35 52.8481 L2486.76 52.2405 Q2479.83 50.7821 2476.75 47.7845 Q2473.68 44.7463 2473.68 39.4801 Q2473.68 33.0797 2478.21 29.5959 Q2482.75 26.1121 2491.09 26.1121 Q2495.23 26.1121 2498.87 26.7198 Q2502.52 27.3274 2505.6 28.5427 Z" fill="#000000" fill-rule="nonzero" fill-opacity="1" /><path clip-path="url(#clip250)" d="M2527.11 65.7705 L2527.11 89.8329 L2519.61 89.8329 L2519.61 27.2059 L2527.11 27.2059 L2527.11 34.0924 Q2529.46 30.0415 2533.02 28.0971 Q2536.63 26.1121 2541.61 26.1121 Q2549.87 26.1121 2555.02 32.6746 Q2560.2 39.2371 2560.2 49.9314 Q2560.2 60.6258 2555.02 67.1883 Q2549.87 73.7508 2541.61 73.7508 Q2536.63 73.7508 2533.02 71.8063 Q2529.46 69.8214 2527.11 65.7705 M2552.47 49.9314 Q2552.47 41.7081 2549.06 37.0496 Q2545.7 32.3505 2539.79 32.3505 Q2533.87 32.3505 2530.47 37.0496 Q2527.11 41.7081 2527.11 49.9314 Q2527.11 58.1548 2530.47 62.8538 Q2533.87 67.5124 2539.79 67.5124 Q2545.7 67.5124 2549.06 62.8538 Q2552.47 58.1548 2552.47 49.9314 Z" fill="#000000" fill-rule="nonzero" fill-opacity="1" /><path clip-path="url(#clip250)" d="M2590.14 32.4315 Q2584.14 32.4315 2580.66 37.1306 Q2577.18 41.7891 2577.18 49.9314 Q2577.18 58.0738 2580.62 62.7728 Q2584.1 67.4314 2590.14 67.4314 Q2596.09 67.4314 2599.58 62.7323 Q2603.06 58.0333 2603.06 49.9314 Q2603.06 41.8701 2599.58 37.1711 Q2596.09 32.4315 2590.14 32.4315 M2590.14 26.1121 Q2599.86 26.1121 2605.41 32.4315 Q2610.96 38.7509 2610.96 49.9314 Q2610.96 61.0714 2605.41 67.4314 Q2599.86 73.7508 2590.14 73.7508 Q2580.38 73.7508 2574.83 67.4314 Q2569.32 61.0714 2569.32 49.9314 Q2569.32 38.7509 2574.83 32.4315 Q2580.38 26.1121 2590.14 26.1121 Z" fill="#000000" fill-rule="nonzero" fill-opacity="1" /><path clip-path="url(#clip250)" d="M2630.69 14.324 L2630.69 27.2059 L2646.04 27.2059 L2646.04 32.9987 L2630.69 32.9987 L2630.69 57.6282 Q2630.69 63.1779 2632.19 64.7578 Q2633.73 66.3376 2638.39 66.3376 L2646.04 66.3376 L2646.04 72.576 L2638.39 72.576 Q2629.76 72.576 2626.48 69.3758 Q2623.19 66.1351 2623.19 57.6282 L2623.19 32.9987 L2617.73 32.9987 L2617.73 27.2059 L2623.19 27.2059 L2623.19 14.324 L2630.69 14.324 Z" fill="#000000" fill-rule="nonzero" fill-opacity="1" /><path clip-path="url(#clip250)" d="M2702.75 20.1573 L2691.65 50.2555 L2713.89 50.2555 L2702.75 20.1573 M2698.14 12.096 L2707.41 12.096 L2730.46 72.576 L2721.96 72.576 L2716.45 57.061 L2689.18 57.061 L2683.67 72.576 L2675.05 72.576 L2698.14 12.096 Z" fill="#000000" fill-rule="nonzero" fill-opacity="1" /><path clip-path="url(#clip250)" d="M2770.16 28.9478 L2770.16 35.9153 Q2767 34.1734 2763.8 33.3227 Q2760.64 32.4315 2757.4 32.4315 Q2750.15 32.4315 2746.14 37.0496 Q2742.13 41.6271 2742.13 49.9314 Q2742.13 58.2358 2746.14 62.8538 Q2750.15 67.4314 2757.4 67.4314 Q2760.64 67.4314 2763.8 66.5807 Q2767 65.6895 2770.16 63.9476 L2770.16 70.8341 Q2767.04 72.2924 2763.68 73.0216 Q2760.36 73.7508 2756.59 73.7508 Q2746.34 73.7508 2740.31 67.3098 Q2734.27 60.8689 2734.27 49.9314 Q2734.27 38.832 2740.35 32.472 Q2746.46 26.1121 2757.08 26.1121 Q2760.52 26.1121 2763.8 26.8413 Q2767.08 27.5299 2770.16 28.9478 Z" fill="#000000" fill-rule="nonzero" fill-opacity="1" /><path clip-path="url(#clip250)" d="M2790.5 14.324 L2790.5 27.2059 L2805.85 27.2059 L2805.85 32.9987 L2790.5 32.9987 L2790.5 57.6282 Q2790.5 63.1779 2792 64.7578 Q2793.54 66.3376 2798.19 66.3376 L2805.85 66.3376 L2805.85 72.576 L2798.19 72.576 Q2789.57 72.576 2786.28 69.3758 Q2783 66.1351 2783 57.6282 L2783 32.9987 L2777.53 32.9987 L2777.53 27.2059 L2783 27.2059 L2783 14.324 L2790.5 14.324 Z" fill="#000000" fill-rule="nonzero" fill-opacity="1" /><path clip-path="url(#clip250)" d="M2815.65 27.2059 L2823.11 27.2059 L2823.11 72.576 L2815.65 72.576 L2815.65 27.2059 M2815.65 9.54393 L2823.11 9.54393 L2823.11 18.9825 L2815.65 18.9825 L2815.65 9.54393 Z" fill="#000000" fill-rule="nonzero" fill-opacity="1" /><path clip-path="url(#clip250)" d="M2833.36 27.2059 L2841.25 27.2059 L2855.43 65.2844 L2869.61 27.2059 L2877.51 27.2059 L2860.5 72.576 L2850.37 72.576 L2833.36 27.2059 Z" fill="#000000" fill-rule="nonzero" fill-opacity="1" /><path clip-path="url(#clip250)" d="M2887.8 27.2059 L2895.25 27.2059 L2895.25 72.576 L2887.8 72.576 L2887.8 27.2059 M2887.8 9.54393 L2895.25 9.54393 L2895.25 18.9825 L2887.8 18.9825 L2887.8 9.54393 Z" fill="#000000" fill-rule="nonzero" fill-opacity="1" /><path clip-path="url(#clip250)" d="M2918.22 14.324 L2918.22 27.2059 L2933.57 27.2059 L2933.57 32.9987 L2918.22 32.9987 L2918.22 57.6282 Q2918.22 63.1779 2919.72 64.7578 Q2921.26 66.3376 2925.92 66.3376 L2933.57 66.3376 L2933.57 72.576 L2925.92 72.576 Q2917.29 72.576 2914.01 69.3758 Q2910.73 66.1351 2910.73 57.6282 L2910.73 32.9987 L2905.26 32.9987 L2905.26 27.2059 L2910.73 27.2059 L2910.73 14.324 L2918.22 14.324 Z" fill="#000000" fill-rule="nonzero" fill-opacity="1" /><path clip-path="url(#clip250)" d="M2962.26 76.7889 Q2959.1 84.8907 2956.1 87.3618 Q2953.1 89.8329 2948.08 89.8329 L2942.12 89.8329 L2942.12 83.5945 L2946.5 83.5945 Q2949.58 83.5945 2951.28 82.1361 Q2952.98 80.6778 2955.04 75.2496 L2956.38 71.8468 L2938.03 27.2059 L2945.93 27.2059 L2960.11 62.6918 L2974.29 27.2059 L2982.19 27.2059 L2962.26 76.7889 Z" fill="#000000" fill-rule="nonzero" fill-opacity="1" /><polyline clip-path="url(#clip252)" style="stroke:#009af9; stroke-linecap:round; stroke-linejoin:round; stroke-width:8; stroke-opacity:1; fill:none" points="393.115,1844.76 406.902,1861.54 420.689,1827.98 434.476,1727.28 448.263,1576.23 462.05,2432.15 475.838,2096.5 489.625,2113.28 503.412,1979.02 517.199,2029.37 530.986,1995.8 544.773,1945.45 558.561,1911.89 572.348,1794.41 586.135,1676.93 599.922,1609.8 613.709,1676.93 627.496,1995.8 641.284,2297.89 655.071,2130.06 668.858,1979.02 682.645,2012.59 696.432,2130.06 710.219,1777.63 724.007,1626.58 737.794,1307.71 751.581,1207.01 765.368,2264.33 779.155,2448.94 792.942,2381.81 806.73,2146.85 820.517,2348.24 834.304,2046.15 848.091,1760.84 861.878,1643.37 875.666,1341.28 889.453,1760.84 903.24,1441.97 917.027,2113.28 930.814,2415.37 944.601,2499.28 958.389,2281.11 972.176,2012.59 985.963,2130.06 999.75,1844.76 1013.54,1760.84 1027.32,1643.37 1041.11,1609.8 1054.9,1594.7 1068.69,1903.5 1082.47,2544.6 1096.26,1943.78 1110.05,2232.44 1123.83,2255.93 1137.62,1989.09 1151.41,1935.38 1165.2,1572.88 1178.98,1690.36 1192.77,1838.05 1206.56,1796.09 1220.34,1559.45 1234.13,2359.99 1247.92,2215.66 1261.71,2091.46 1275.49,2205.59 1289.28,2104.89 1303.07,1502.39 1316.85,1408.41 1330.64,1336.24 1344.43,2034.4 1358.22,2267.68 1372,2198.87 1385.79,2477.47 1399.58,2015.94 1413.37,2341.53 1427.15,1730.64 1440.94,725.351 1454.73,906.604 1468.51,2423.76 1482.3,2635.22 1496.09,2225.73 1509.88,2442.22 1523.66,2208.94 1537.45,2156.92 1551.24,1712.17 1565.02,958.631 1578.81,1121.42 1592.6,1963.92 1606.39,2160.27 1620.17,2418.73 1633.96,2336.49 1647.75,2056.22 1661.53,2165.31 1675.32,2044.47 1689.11,2276.07 1702.9,2034.4 1716.68,2106.57 1730.47,1984.05 1744.26,1900.14 1758.04,1816.23 1771.83,1618.19 1785.62,1760.84 1799.41,1977.34 1813.19,1871.61 1826.98,2034.4 1840.77,2182.09 1854.55,2247.54 1868.34,1979.02 1882.13,2039.44 1895.92,1987.41 1909.7,1921.96 1923.49,1885.04 1937.28,1824.62 1951.06,1916.92 1964.85,1584.63 1978.64,1770.91 1992.43,2024.33 2006.21,2130.06 2020,2049.51 2033.79,2084.75 2047.58,2096.5 2061.36,1989.09 2075.15,1982.38 2088.94,1833.01 2102.72,1809.51 2116.51,1614.84 2130.3,1722.24 2144.09,1700.43 2157.87,1898.46 2171.66,1880 2185.45,2333.14 2199.23,2286.14 2213.02,2264.33 2226.81,1866.58 2240.6,1212.05 2254.38,861.291 2268.17,1663.5 2281.96,2534.53 2295.74,2239.15 2309.53,2299.57 2323.32,2413.69 2337.11,2155.24 2350.89,2172.02 2364.68,1873.29 2378.47,1524.21 2392.25,1586.3 2406.04,1324.49 2419.83,1505.75 2433.62,2422.08 2447.4,2443.9 2461.19,1980.7 2474.98,2119.99 2488.76,2198.87 2502.55,2254.26 2516.34,2178.73 2530.13,1985.73 2543.91,1636.65 2557.7,1406.73 2571.49,1290.93 2585.27,1911.89 2599.06,2257.61 2612.85,2249.22 2626.64,2198.87 2640.42,1895.11 2654.21,2222.37 2668,2183.77 2681.78,2096.5 2695.57,1436.94 2709.36,1334.56 2723.15,854.578 2736.93,2412.01 2750.72,2106.57 2764.51,2539.56 2778.3,2306.28 2792.08,2410.34 2805.87,2041.12 2819.66,1926.99 2833.44,2096.5 2847.23,1901.82 2861.02,1504.07 2874.81,1576.23 2888.59,1854.83 2902.38,1878.32 2916.17,1948.81 2929.95,2135.1 2943.74,2395.23 2957.53,2151.88 2971.32,2051.19 2985.1,1953.85 2998.89,1932.03 3012.68,1467.15 3026.46,1317.78 3040.25,1742.38 3054.04,2064.61 3067.83,2180.41 3081.61,2318.03 3095.4,2207.27 3109.19,1937.06 3122.97,2190.48 3136.76,1989.09 3150.55,2059.58 3164.34,1906.85 3178.12,1619.87 3191.91,1650.08 3205.7,1584.63 3219.48,2108.25 3233.27,1807.84 3247.06,2172.02 3260.85,2022.66 3274.63,2370.06 3288.42,2161.95 3302.21,1980.7 3315.99,1982.38 3329.78,1807.84 3343.57,1311.07 3357.36,1782.66 3371.14,1160.02 3384.93,2336.49 3398.72,2230.76 3412.5,2381.81 3426.29,2138.46 3440.08,2145.17 3453.87,2086.43 3467.65,1762.52 3481.44,1482.25 3495.23,1616.51 3509.02,1859.86 3522.8,1797.77 3536.59,2161.95 3550.38,2435.51 3564.16,2188.8 3577.95,2114.96 3591.74,2036.08 3605.53,1895.11 3619.31,1485.61 3633.1,1213.73 3646.89,1363.09 3660.67,2026.01 3674.46,2294.54 3688.25,2297.89 3702.04,2286.14 3715.82,2229.08 3729.61,2185.45 3743.4,2057.9 3757.18,1549.38 3770.97,948.561 3784.76,955.274 3798.55,2202.23 3812.33,1972.31 3826.12,2798.02 3839.91,2188.8 3853.69,2581.52 3867.48,2240.83 3881.27,2104.89 3895.06,1381.56 3908.84,205.086 3922.63,1131.49 3936.42,2036.08 3950.2,2378.45 3963.99,2729.21 3977.78,2925.57 3991.57,2219.01 4005.35,2108.25 4019.14,2242.51 4032.93,1863.22 4046.71,1410.09 4060.5,1160.02 4074.29,1742.38 4088.08,1952.17 4101.86,1962.24 4115.65,2581.52 4129.44,1906.85 4143.23,2464.04 4157.01,2004.19 4170.8,2264.33 4184.59,1994.12 4198.37,1695.39 4212.16,854.578 4225.95,889.821 4239.74,1958.88 4253.52,2183.77 4267.31,2356.63 4281.1,2772.84 4294.88,2292.86 4308.67,2415.37 4322.46,2020.98 4336.25,1676.93 4350.03,757.238 4363.82,982.126 4377.61,2197.2 4391.39,1893.43 4405.18,2808.09 4418.97,2611.73 4432.76,2359.99 4446.54,2153.56 4460.33,2094.82 4474.12,1728.96 4487.9,1227.15 4501.69,1458.76 4515.48,1504.07 4529.27,2089.79 4543.05,2062.93 4556.84,2621.8 4570.63,2336.49 4584.41,2123.35 4598.2,2190.48 4611.99,2074.68 4625.78,2022.66 "/>
</svg>
