<?xml version="1.0" encoding="utf-8"?>
<svg xmlns="http://www.w3.org/2000/svg" xmlns:xlink="http://www.w3.org/1999/xlink" width="600" height="400" viewBox="0 0 2400 1600">
<defs>
  <clipPath id="clip980">
    <rect x="0" y="0" width="2400" height="1600"/>
  </clipPath>
</defs>
<path clip-path="url(#clip980)" d="M0 1600 L2400 1600 L2400 0 L0 0  Z" fill="#ffffff" fill-rule="evenodd" fill-opacity="1"/>
<defs>
  <clipPath id="clip981">
    <rect x="480" y="0" width="1681" height="1600"/>
  </clipPath>
</defs>
<path clip-path="url(#clip980)" d="M211.325 1423.18 L2352.76 1423.18 L2352.76 123.472 L211.325 123.472  Z" fill="#ffffff" fill-rule="evenodd" fill-opacity="1"/>
<defs>
  <clipPath id="clip982">
    <rect x="211" y="123" width="2142" height="1301"/>
  </clipPath>
</defs>
<polyline clip-path="url(#clip982)" style="stroke:#000000; stroke-linecap:round; stroke-linejoin:round; stroke-width:2; stroke-opacity:0.1; fill:none" points="421.577,1423.18 421.577,123.472 "/>
<polyline clip-path="url(#clip982)" style="stroke:#000000; stroke-linecap:round; stroke-linejoin:round; stroke-width:2; stroke-opacity:0.1; fill:none" points="795.691,1423.18 795.691,123.472 "/>
<polyline clip-path="url(#clip982)" style="stroke:#000000; stroke-linecap:round; stroke-linejoin:round; stroke-width:2; stroke-opacity:0.1; fill:none" points="1169.81,1423.18 1169.81,123.472 "/>
<polyline clip-path="url(#clip982)" style="stroke:#000000; stroke-linecap:round; stroke-linejoin:round; stroke-width:2; stroke-opacity:0.1; fill:none" points="1543.92,1423.18 1543.92,123.472 "/>
<polyline clip-path="url(#clip982)" style="stroke:#000000; stroke-linecap:round; stroke-linejoin:round; stroke-width:2; stroke-opacity:0.1; fill:none" points="1918.03,1423.18 1918.03,123.472 "/>
<polyline clip-path="url(#clip982)" style="stroke:#000000; stroke-linecap:round; stroke-linejoin:round; stroke-width:2; stroke-opacity:0.1; fill:none" points="2292.15,1423.18 2292.15,123.472 "/>
<polyline clip-path="url(#clip982)" style="stroke:#000000; stroke-linecap:round; stroke-linejoin:round; stroke-width:2; stroke-opacity:0.1; fill:none" points="211.325,1260.08 2352.76,1260.08 "/>
<polyline clip-path="url(#clip982)" style="stroke:#000000; stroke-linecap:round; stroke-linejoin:round; stroke-width:2; stroke-opacity:0.1; fill:none" points="211.325,1077.85 2352.76,1077.85 "/>
<polyline clip-path="url(#clip982)" style="stroke:#000000; stroke-linecap:round; stroke-linejoin:round; stroke-width:2; stroke-opacity:0.1; fill:none" points="211.325,895.614 2352.76,895.614 "/>
<polyline clip-path="url(#clip982)" style="stroke:#000000; stroke-linecap:round; stroke-linejoin:round; stroke-width:2; stroke-opacity:0.1; fill:none" points="211.325,713.384 2352.76,713.384 "/>
<polyline clip-path="url(#clip982)" style="stroke:#000000; stroke-linecap:round; stroke-linejoin:round; stroke-width:2; stroke-opacity:0.1; fill:none" points="211.325,531.153 2352.76,531.153 "/>
<polyline clip-path="url(#clip982)" style="stroke:#000000; stroke-linecap:round; stroke-linejoin:round; stroke-width:2; stroke-opacity:0.1; fill:none" points="211.325,348.922 2352.76,348.922 "/>
<polyline clip-path="url(#clip982)" style="stroke:#000000; stroke-linecap:round; stroke-linejoin:round; stroke-width:2; stroke-opacity:0.1; fill:none" points="211.325,166.691 2352.76,166.691 "/>
<polyline clip-path="url(#clip980)" style="stroke:#000000; stroke-linecap:round; stroke-linejoin:round; stroke-width:4; stroke-opacity:1; fill:none" points="211.325,1423.18 2352.76,1423.18 "/>
<polyline clip-path="url(#clip980)" style="stroke:#000000; stroke-linecap:round; stroke-linejoin:round; stroke-width:4; stroke-opacity:1; fill:none" points="421.577,1423.18 421.577,1404.28 "/>
<polyline clip-path="url(#clip980)" style="stroke:#000000; stroke-linecap:round; stroke-linejoin:round; stroke-width:4; stroke-opacity:1; fill:none" points="795.691,1423.18 795.691,1404.28 "/>
<polyline clip-path="url(#clip980)" style="stroke:#000000; stroke-linecap:round; stroke-linejoin:round; stroke-width:4; stroke-opacity:1; fill:none" points="1169.81,1423.18 1169.81,1404.28 "/>
<polyline clip-path="url(#clip980)" style="stroke:#000000; stroke-linecap:round; stroke-linejoin:round; stroke-width:4; stroke-opacity:1; fill:none" points="1543.92,1423.18 1543.92,1404.28 "/>
<polyline clip-path="url(#clip980)" style="stroke:#000000; stroke-linecap:round; stroke-linejoin:round; stroke-width:4; stroke-opacity:1; fill:none" points="1918.03,1423.18 1918.03,1404.28 "/>
<polyline clip-path="url(#clip980)" style="stroke:#000000; stroke-linecap:round; stroke-linejoin:round; stroke-width:4; stroke-opacity:1; fill:none" points="2292.15,1423.18 2292.15,1404.28 "/>
<path clip-path="url(#clip980)" d="M366.103 1481.64 L373.742 1481.64 L373.742 1455.28 L365.431 1456.95 L365.431 1452.69 L373.695 1451.02 L378.371 1451.02 L378.371 1481.64 L386.01 1481.64 L386.01 1485.58 L366.103 1485.58 L366.103 1481.64 Z" fill="#000000" fill-rule="nonzero" fill-opacity="1" /><path clip-path="url(#clip980)" d="M395.593 1484.86 L395.593 1480.6 Q397.353 1481.44 399.158 1481.88 Q400.964 1482.32 402.7 1482.32 Q407.329 1482.32 409.76 1479.21 Q412.214 1476.09 412.561 1469.75 Q411.218 1471.74 409.158 1472.8 Q407.098 1473.87 404.598 1473.87 Q399.413 1473.87 396.38 1470.74 Q393.371 1467.59 393.371 1462.15 Q393.371 1456.83 396.519 1453.61 Q399.667 1450.39 404.899 1450.39 Q410.894 1450.39 414.042 1455 Q417.214 1459.58 417.214 1468.33 Q417.214 1476.51 413.325 1481.39 Q409.459 1486.25 402.908 1486.25 Q401.149 1486.25 399.343 1485.9 Q397.538 1485.56 395.593 1484.86 M404.899 1470.21 Q408.047 1470.21 409.876 1468.06 Q411.727 1465.9 411.727 1462.15 Q411.727 1458.43 409.876 1456.27 Q408.047 1454.1 404.899 1454.1 Q401.751 1454.1 399.899 1456.27 Q398.07 1458.43 398.07 1462.15 Q398.07 1465.9 399.899 1468.06 Q401.751 1470.21 404.899 1470.21 Z" fill="#000000" fill-rule="nonzero" fill-opacity="1" /><path clip-path="url(#clip980)" d="M425.663 1451.02 L444.019 1451.02 L444.019 1454.96 L429.945 1454.96 L429.945 1463.43 Q430.964 1463.08 431.982 1462.92 Q433.001 1462.73 434.019 1462.73 Q439.806 1462.73 443.186 1465.9 Q446.565 1469.08 446.565 1474.49 Q446.565 1480.07 443.093 1483.17 Q439.621 1486.25 433.301 1486.25 Q431.126 1486.25 428.857 1485.88 Q426.612 1485.51 424.204 1484.77 L424.204 1480.07 Q426.288 1481.2 428.51 1481.76 Q430.732 1482.32 433.209 1482.32 Q437.213 1482.32 439.551 1480.21 Q441.889 1478.1 441.889 1474.49 Q441.889 1470.88 439.551 1468.77 Q437.213 1466.67 433.209 1466.67 Q431.334 1466.67 429.459 1467.08 Q427.607 1467.5 425.663 1468.38 L425.663 1451.02 Z" fill="#000000" fill-rule="nonzero" fill-opacity="1" /><path clip-path="url(#clip980)" d="M465.778 1454.1 Q462.167 1454.1 460.338 1457.66 Q458.533 1461.2 458.533 1468.33 Q458.533 1475.44 460.338 1479.01 Q462.167 1482.55 465.778 1482.55 Q469.412 1482.55 471.218 1479.01 Q473.047 1475.44 473.047 1468.33 Q473.047 1461.2 471.218 1457.66 Q469.412 1454.1 465.778 1454.1 M465.778 1450.39 Q471.588 1450.39 474.644 1455 Q477.723 1459.58 477.723 1468.33 Q477.723 1477.06 474.644 1481.67 Q471.588 1486.25 465.778 1486.25 Q459.968 1486.25 456.889 1481.67 Q453.834 1477.06 453.834 1468.33 Q453.834 1459.58 456.889 1455 Q459.968 1450.39 465.778 1450.39 Z" fill="#000000" fill-rule="nonzero" fill-opacity="1" /><path clip-path="url(#clip980)" d="M740.217 1481.64 L747.856 1481.64 L747.856 1455.28 L739.546 1456.95 L739.546 1452.69 L747.81 1451.02 L752.486 1451.02 L752.486 1481.64 L760.125 1481.64 L760.125 1485.58 L740.217 1485.58 L740.217 1481.64 Z" fill="#000000" fill-rule="nonzero" fill-opacity="1" /><path clip-path="url(#clip980)" d="M769.708 1484.86 L769.708 1480.6 Q771.467 1481.44 773.273 1481.88 Q775.078 1482.32 776.814 1482.32 Q781.444 1482.32 783.874 1479.21 Q786.328 1476.09 786.675 1469.75 Q785.333 1471.74 783.273 1472.8 Q781.212 1473.87 778.712 1473.87 Q773.527 1473.87 770.495 1470.74 Q767.486 1467.59 767.486 1462.15 Q767.486 1456.83 770.634 1453.61 Q773.782 1450.39 779.013 1450.39 Q785.009 1450.39 788.157 1455 Q791.328 1459.58 791.328 1468.33 Q791.328 1476.51 787.439 1481.39 Q783.573 1486.25 777.023 1486.25 Q775.263 1486.25 773.458 1485.9 Q771.652 1485.56 769.708 1484.86 M779.013 1470.21 Q782.161 1470.21 783.99 1468.06 Q785.842 1465.9 785.842 1462.15 Q785.842 1458.43 783.99 1456.27 Q782.161 1454.1 779.013 1454.1 Q775.865 1454.1 774.013 1456.27 Q772.185 1458.43 772.185 1462.15 Q772.185 1465.9 774.013 1468.06 Q775.865 1470.21 779.013 1470.21 Z" fill="#000000" fill-rule="nonzero" fill-opacity="1" /><path clip-path="url(#clip980)" d="M810.309 1466.44 Q807.161 1466.44 805.309 1468.59 Q803.481 1470.74 803.481 1474.49 Q803.481 1478.22 805.309 1480.39 Q807.161 1482.55 810.309 1482.55 Q813.458 1482.55 815.286 1480.39 Q817.138 1478.22 817.138 1474.49 Q817.138 1470.74 815.286 1468.59 Q813.458 1466.44 810.309 1466.44 M819.592 1451.78 L819.592 1456.04 Q817.833 1455.21 816.027 1454.77 Q814.245 1454.33 812.485 1454.33 Q807.856 1454.33 805.402 1457.45 Q802.972 1460.58 802.624 1466.9 Q803.99 1464.89 806.05 1463.82 Q808.11 1462.73 810.587 1462.73 Q815.796 1462.73 818.805 1465.9 Q821.837 1469.05 821.837 1474.49 Q821.837 1479.82 818.689 1483.03 Q815.541 1486.25 810.309 1486.25 Q804.314 1486.25 801.143 1481.67 Q797.972 1477.06 797.972 1468.33 Q797.972 1460.14 801.86 1455.28 Q805.749 1450.39 812.3 1450.39 Q814.059 1450.39 815.842 1450.74 Q817.647 1451.09 819.592 1451.78 Z" fill="#000000" fill-rule="nonzero" fill-opacity="1" /><path clip-path="url(#clip980)" d="M839.893 1454.1 Q836.282 1454.1 834.453 1457.66 Q832.647 1461.2 832.647 1468.33 Q832.647 1475.44 834.453 1479.01 Q836.282 1482.55 839.893 1482.55 Q843.527 1482.55 845.332 1479.01 Q847.161 1475.44 847.161 1468.33 Q847.161 1461.2 845.332 1457.66 Q843.527 1454.1 839.893 1454.1 M839.893 1450.39 Q845.703 1450.39 848.758 1455 Q851.837 1459.58 851.837 1468.33 Q851.837 1477.06 848.758 1481.67 Q845.703 1486.25 839.893 1486.25 Q834.082 1486.25 831.004 1481.67 Q827.948 1477.06 827.948 1468.33 Q827.948 1459.58 831.004 1455 Q834.082 1450.39 839.893 1450.39 Z" fill="#000000" fill-rule="nonzero" fill-opacity="1" /><path clip-path="url(#clip980)" d="M1114.33 1481.64 L1121.97 1481.64 L1121.97 1455.28 L1113.66 1456.95 L1113.66 1452.69 L1121.92 1451.02 L1126.6 1451.02 L1126.6 1481.64 L1134.24 1481.64 L1134.24 1485.58 L1114.33 1485.58 L1114.33 1481.64 Z" fill="#000000" fill-rule="nonzero" fill-opacity="1" /><path clip-path="url(#clip980)" d="M1143.82 1484.86 L1143.82 1480.6 Q1145.58 1481.44 1147.39 1481.88 Q1149.19 1482.32 1150.93 1482.32 Q1155.56 1482.32 1157.99 1479.21 Q1160.44 1476.09 1160.79 1469.75 Q1159.45 1471.74 1157.39 1472.8 Q1155.33 1473.87 1152.83 1473.87 Q1147.64 1473.87 1144.61 1470.74 Q1141.6 1467.59 1141.6 1462.15 Q1141.6 1456.83 1144.75 1453.61 Q1147.9 1450.39 1153.13 1450.39 Q1159.12 1450.39 1162.27 1455 Q1165.44 1459.58 1165.44 1468.33 Q1165.44 1476.51 1161.55 1481.39 Q1157.69 1486.25 1151.14 1486.25 Q1149.38 1486.25 1147.57 1485.9 Q1145.77 1485.56 1143.82 1484.86 M1153.13 1470.21 Q1156.28 1470.21 1158.1 1468.06 Q1159.96 1465.9 1159.96 1462.15 Q1159.96 1458.43 1158.1 1456.27 Q1156.28 1454.1 1153.13 1454.1 Q1149.98 1454.1 1148.13 1456.27 Q1146.3 1458.43 1146.3 1462.15 Q1146.3 1465.9 1148.13 1468.06 Q1149.98 1470.21 1153.13 1470.21 Z" fill="#000000" fill-rule="nonzero" fill-opacity="1" /><path clip-path="url(#clip980)" d="M1172.66 1451.02 L1194.89 1451.02 L1194.89 1453.01 L1182.34 1485.58 L1177.46 1485.58 L1189.26 1454.96 L1172.66 1454.96 L1172.66 1451.02 Z" fill="#000000" fill-rule="nonzero" fill-opacity="1" /><path clip-path="url(#clip980)" d="M1214.01 1454.1 Q1210.4 1454.1 1208.57 1457.66 Q1206.76 1461.2 1206.76 1468.33 Q1206.76 1475.44 1208.57 1479.01 Q1210.4 1482.55 1214.01 1482.55 Q1217.64 1482.55 1219.45 1479.01 Q1221.28 1475.44 1221.28 1468.33 Q1221.28 1461.2 1219.45 1457.66 Q1217.64 1454.1 1214.01 1454.1 M1214.01 1450.39 Q1219.82 1450.39 1222.87 1455 Q1225.95 1459.58 1225.95 1468.33 Q1225.95 1477.06 1222.87 1481.67 Q1219.82 1486.25 1214.01 1486.25 Q1208.2 1486.25 1205.12 1481.67 Q1202.06 1477.06 1202.06 1468.33 Q1202.06 1459.58 1205.12 1455 Q1208.2 1450.39 1214.01 1450.39 Z" fill="#000000" fill-rule="nonzero" fill-opacity="1" /><path clip-path="url(#clip980)" d="M1488.45 1481.64 L1496.09 1481.64 L1496.09 1455.28 L1487.77 1456.95 L1487.77 1452.69 L1496.04 1451.02 L1500.71 1451.02 L1500.71 1481.64 L1508.35 1481.64 L1508.35 1485.58 L1488.45 1485.58 L1488.45 1481.64 Z" fill="#000000" fill-rule="nonzero" fill-opacity="1" /><path clip-path="url(#clip980)" d="M1517.94 1484.86 L1517.94 1480.6 Q1519.7 1481.44 1521.5 1481.88 Q1523.31 1482.32 1525.04 1482.32 Q1529.67 1482.32 1532.1 1479.21 Q1534.56 1476.09 1534.9 1469.75 Q1533.56 1471.74 1531.5 1472.8 Q1529.44 1473.87 1526.94 1473.87 Q1521.76 1473.87 1518.72 1470.74 Q1515.71 1467.59 1515.71 1462.15 Q1515.71 1456.83 1518.86 1453.61 Q1522.01 1450.39 1527.24 1450.39 Q1533.24 1450.39 1536.39 1455 Q1539.56 1459.58 1539.56 1468.33 Q1539.56 1476.51 1535.67 1481.39 Q1531.8 1486.25 1525.25 1486.25 Q1523.49 1486.25 1521.69 1485.9 Q1519.88 1485.56 1517.94 1484.86 M1527.24 1470.21 Q1530.39 1470.21 1532.22 1468.06 Q1534.07 1465.9 1534.07 1462.15 Q1534.07 1458.43 1532.22 1456.27 Q1530.39 1454.1 1527.24 1454.1 Q1524.09 1454.1 1522.24 1456.27 Q1520.41 1458.43 1520.41 1462.15 Q1520.41 1465.9 1522.24 1468.06 Q1524.09 1470.21 1527.24 1470.21 Z" fill="#000000" fill-rule="nonzero" fill-opacity="1" /><path clip-path="url(#clip980)" d="M1557.96 1469.17 Q1554.63 1469.17 1552.71 1470.95 Q1550.81 1472.73 1550.81 1475.86 Q1550.81 1478.98 1552.71 1480.77 Q1554.63 1482.55 1557.96 1482.55 Q1561.29 1482.55 1563.21 1480.77 Q1565.14 1478.96 1565.14 1475.86 Q1565.14 1472.73 1563.21 1470.95 Q1561.32 1469.17 1557.96 1469.17 M1553.28 1467.18 Q1550.27 1466.44 1548.58 1464.38 Q1546.92 1462.32 1546.92 1459.35 Q1546.92 1455.21 1549.86 1452.8 Q1552.82 1450.39 1557.96 1450.39 Q1563.12 1450.39 1566.06 1452.8 Q1569 1455.21 1569 1459.35 Q1569 1462.32 1567.31 1464.38 Q1565.64 1466.44 1562.66 1467.18 Q1566.04 1467.96 1567.91 1470.26 Q1569.81 1472.55 1569.81 1475.86 Q1569.81 1480.88 1566.73 1483.57 Q1563.68 1486.25 1557.96 1486.25 Q1552.24 1486.25 1549.16 1483.57 Q1546.11 1480.88 1546.11 1475.86 Q1546.11 1472.55 1548.01 1470.26 Q1549.9 1467.96 1553.28 1467.18 M1551.57 1459.79 Q1551.57 1462.48 1553.24 1463.98 Q1554.93 1465.49 1557.96 1465.49 Q1560.97 1465.49 1562.66 1463.98 Q1564.37 1462.48 1564.37 1459.79 Q1564.37 1457.11 1562.66 1455.6 Q1560.97 1454.1 1557.96 1454.1 Q1554.93 1454.1 1553.24 1455.6 Q1551.57 1457.11 1551.57 1459.79 Z" fill="#000000" fill-rule="nonzero" fill-opacity="1" /><path clip-path="url(#clip980)" d="M1588.12 1454.1 Q1584.51 1454.1 1582.68 1457.66 Q1580.88 1461.2 1580.88 1468.33 Q1580.88 1475.44 1582.68 1479.01 Q1584.51 1482.55 1588.12 1482.55 Q1591.76 1482.55 1593.56 1479.01 Q1595.39 1475.44 1595.39 1468.33 Q1595.39 1461.2 1593.56 1457.66 Q1591.76 1454.1 1588.12 1454.1 M1588.12 1450.39 Q1593.93 1450.39 1596.99 1455 Q1600.07 1459.58 1600.07 1468.33 Q1600.07 1477.06 1596.99 1481.67 Q1593.93 1486.25 1588.12 1486.25 Q1582.31 1486.25 1579.23 1481.67 Q1576.18 1477.06 1576.18 1468.33 Q1576.18 1459.58 1579.23 1455 Q1582.31 1450.39 1588.12 1450.39 Z" fill="#000000" fill-rule="nonzero" fill-opacity="1" /><path clip-path="url(#clip980)" d="M1862.56 1481.64 L1870.2 1481.64 L1870.2 1455.28 L1861.89 1456.95 L1861.89 1452.69 L1870.15 1451.02 L1874.83 1451.02 L1874.83 1481.64 L1882.47 1481.64 L1882.47 1485.58 L1862.56 1485.58 L1862.56 1481.64 Z" fill="#000000" fill-rule="nonzero" fill-opacity="1" /><path clip-path="url(#clip980)" d="M1892.05 1484.86 L1892.05 1480.6 Q1893.81 1481.44 1895.62 1481.88 Q1897.42 1482.32 1899.16 1482.32 Q1903.79 1482.32 1906.22 1479.21 Q1908.67 1476.09 1909.02 1469.75 Q1907.68 1471.74 1905.62 1472.8 Q1903.56 1473.87 1901.06 1473.87 Q1895.87 1473.87 1892.84 1470.74 Q1889.83 1467.59 1889.83 1462.15 Q1889.83 1456.83 1892.98 1453.61 Q1896.13 1450.39 1901.36 1450.39 Q1907.35 1450.39 1910.5 1455 Q1913.67 1459.58 1913.67 1468.33 Q1913.67 1476.51 1909.78 1481.39 Q1905.92 1486.25 1899.37 1486.25 Q1897.61 1486.25 1895.8 1485.9 Q1894 1485.56 1892.05 1484.86 M1901.36 1470.21 Q1904.5 1470.21 1906.33 1468.06 Q1908.19 1465.9 1908.19 1462.15 Q1908.19 1458.43 1906.33 1456.27 Q1904.5 1454.1 1901.36 1454.1 Q1898.21 1454.1 1896.36 1456.27 Q1894.53 1458.43 1894.53 1462.15 Q1894.53 1465.9 1896.36 1468.06 Q1898.21 1470.21 1901.36 1470.21 Z" fill="#000000" fill-rule="nonzero" fill-opacity="1" /><path clip-path="url(#clip980)" d="M1922.21 1484.86 L1922.21 1480.6 Q1923.97 1481.44 1925.78 1481.88 Q1927.58 1482.32 1929.32 1482.32 Q1933.95 1482.32 1936.38 1479.21 Q1938.83 1476.09 1939.18 1469.75 Q1937.84 1471.74 1935.78 1472.8 Q1933.72 1473.87 1931.22 1473.87 Q1926.03 1473.87 1923 1470.74 Q1919.99 1467.59 1919.99 1462.15 Q1919.99 1456.83 1923.14 1453.61 Q1926.29 1450.39 1931.52 1450.39 Q1937.51 1450.39 1940.66 1455 Q1943.83 1459.58 1943.83 1468.33 Q1943.83 1476.51 1939.94 1481.39 Q1936.08 1486.25 1929.53 1486.25 Q1927.77 1486.25 1925.96 1485.9 Q1924.16 1485.56 1922.21 1484.86 M1931.52 1470.21 Q1934.67 1470.21 1936.5 1468.06 Q1938.35 1465.9 1938.35 1462.15 Q1938.35 1458.43 1936.5 1456.27 Q1934.67 1454.1 1931.52 1454.1 Q1928.37 1454.1 1926.52 1456.27 Q1924.69 1458.43 1924.69 1462.15 Q1924.69 1465.9 1926.52 1468.06 Q1928.37 1470.21 1931.52 1470.21 Z" fill="#000000" fill-rule="nonzero" fill-opacity="1" /><path clip-path="url(#clip980)" d="M1962.24 1454.1 Q1958.62 1454.1 1956.8 1457.66 Q1954.99 1461.2 1954.99 1468.33 Q1954.99 1475.44 1956.8 1479.01 Q1958.62 1482.55 1962.24 1482.55 Q1965.87 1482.55 1967.68 1479.01 Q1969.5 1475.44 1969.5 1468.33 Q1969.5 1461.2 1967.68 1457.66 Q1965.87 1454.1 1962.24 1454.1 M1962.24 1450.39 Q1968.05 1450.39 1971.1 1455 Q1974.18 1459.58 1974.18 1468.33 Q1974.18 1477.06 1971.1 1481.67 Q1968.05 1486.25 1962.24 1486.25 Q1956.43 1486.25 1953.35 1481.67 Q1950.29 1477.06 1950.29 1468.33 Q1950.29 1459.58 1953.35 1455 Q1956.43 1450.39 1962.24 1450.39 Z" fill="#000000" fill-rule="nonzero" fill-opacity="1" /><path clip-path="url(#clip980)" d="M2240.76 1481.64 L2257.08 1481.64 L2257.08 1485.58 L2235.14 1485.58 L2235.14 1481.64 Q2237.8 1478.89 2242.38 1474.26 Q2246.99 1469.61 2248.17 1468.27 Q2250.41 1465.74 2251.29 1464.01 Q2252.2 1462.25 2252.2 1460.56 Q2252.2 1457.8 2250.25 1456.07 Q2248.33 1454.33 2245.23 1454.33 Q2243.03 1454.33 2240.58 1455.09 Q2238.15 1455.86 2235.37 1457.41 L2235.37 1452.69 Q2238.19 1451.55 2240.65 1450.97 Q2243.1 1450.39 2245.14 1450.39 Q2250.51 1450.39 2253.7 1453.08 Q2256.89 1455.77 2256.89 1460.26 Q2256.89 1462.39 2256.08 1464.31 Q2255.3 1466.2 2253.19 1468.8 Q2252.61 1469.47 2249.51 1472.69 Q2246.41 1475.88 2240.76 1481.64 Z" fill="#000000" fill-rule="nonzero" fill-opacity="1" /><path clip-path="url(#clip980)" d="M2276.89 1454.1 Q2273.28 1454.1 2271.46 1457.66 Q2269.65 1461.2 2269.65 1468.33 Q2269.65 1475.44 2271.46 1479.01 Q2273.28 1482.55 2276.89 1482.55 Q2280.53 1482.55 2282.33 1479.01 Q2284.16 1475.44 2284.16 1468.33 Q2284.16 1461.2 2282.33 1457.66 Q2280.53 1454.1 2276.89 1454.1 M2276.89 1450.39 Q2282.7 1450.39 2285.76 1455 Q2288.84 1459.58 2288.84 1468.33 Q2288.84 1477.06 2285.76 1481.67 Q2282.7 1486.25 2276.89 1486.25 Q2271.08 1486.25 2268.01 1481.67 Q2264.95 1477.06 2264.95 1468.33 Q2264.95 1459.58 2268.01 1455 Q2271.08 1450.39 2276.89 1450.39 Z" fill="#000000" fill-rule="nonzero" fill-opacity="1" /><path clip-path="url(#clip980)" d="M2307.06 1454.1 Q2303.45 1454.1 2301.62 1457.66 Q2299.81 1461.2 2299.81 1468.33 Q2299.81 1475.44 2301.62 1479.01 Q2303.45 1482.55 2307.06 1482.55 Q2310.69 1482.55 2312.5 1479.01 Q2314.33 1475.44 2314.33 1468.33 Q2314.33 1461.2 2312.5 1457.66 Q2310.69 1454.1 2307.06 1454.1 M2307.06 1450.39 Q2312.87 1450.39 2315.92 1455 Q2319 1459.58 2319 1468.33 Q2319 1477.06 2315.92 1481.67 Q2312.87 1486.25 2307.06 1486.25 Q2301.25 1486.25 2298.17 1481.67 Q2295.11 1477.06 2295.11 1468.33 Q2295.11 1459.58 2298.17 1455 Q2301.25 1450.39 2307.06 1450.39 Z" fill="#000000" fill-rule="nonzero" fill-opacity="1" /><path clip-path="url(#clip980)" d="M2337.22 1454.1 Q2333.61 1454.1 2331.78 1457.66 Q2329.97 1461.2 2329.97 1468.33 Q2329.97 1475.44 2331.78 1479.01 Q2333.61 1482.55 2337.22 1482.55 Q2340.85 1482.55 2342.66 1479.01 Q2344.49 1475.44 2344.49 1468.33 Q2344.49 1461.2 2342.66 1457.66 Q2340.85 1454.1 2337.22 1454.1 M2337.22 1450.39 Q2343.03 1450.39 2346.08 1455 Q2349.16 1459.58 2349.16 1468.33 Q2349.16 1477.06 2346.08 1481.67 Q2343.03 1486.25 2337.22 1486.25 Q2331.41 1486.25 2328.33 1481.67 Q2325.27 1477.06 2325.27 1468.33 Q2325.27 1459.58 2328.33 1455 Q2331.41 1450.39 2337.22 1450.39 Z" fill="#000000" fill-rule="nonzero" fill-opacity="1" /><path clip-path="url(#clip980)" d="M1203.92 1520.52 L1244.12 1520.52 L1244.12 1525.93 L1227.25 1525.93 L1227.25 1568.04 L1220.79 1568.04 L1220.79 1525.93 L1203.92 1525.93 L1203.92 1520.52 Z" fill="#000000" fill-rule="nonzero" fill-opacity="1" /><path clip-path="url(#clip980)" d="M1248.06 1532.4 L1253.92 1532.4 L1253.92 1568.04 L1248.06 1568.04 L1248.06 1532.4 M1248.06 1518.52 L1253.92 1518.52 L1253.92 1525.93 L1248.06 1525.93 L1248.06 1518.52 Z" fill="#000000" fill-rule="nonzero" fill-opacity="1" /><path clip-path="url(#clip980)" d="M1293.93 1539.24 Q1296.12 1535.29 1299.18 1533.41 Q1302.24 1531.54 1306.37 1531.54 Q1311.94 1531.54 1314.97 1535.45 Q1317.99 1539.33 1317.99 1546.53 L1317.99 1568.04 L1312.1 1568.04 L1312.1 1546.72 Q1312.1 1541.59 1310.29 1539.11 Q1308.47 1536.63 1304.75 1536.63 Q1300.2 1536.63 1297.56 1539.65 Q1294.91 1542.68 1294.91 1547.9 L1294.91 1568.04 L1289.03 1568.04 L1289.03 1546.72 Q1289.03 1541.56 1287.21 1539.11 Q1285.4 1536.63 1281.61 1536.63 Q1277.12 1536.63 1274.48 1539.68 Q1271.84 1542.71 1271.84 1547.9 L1271.84 1568.04 L1265.95 1568.04 L1265.95 1532.4 L1271.84 1532.4 L1271.84 1537.93 Q1273.84 1534.66 1276.65 1533.1 Q1279.45 1531.54 1283.3 1531.54 Q1287.18 1531.54 1289.89 1533.51 Q1292.62 1535.48 1293.93 1539.24 Z" fill="#000000" fill-rule="nonzero" fill-opacity="1" /><path clip-path="url(#clip980)" d="M1360.16 1548.76 L1360.16 1551.62 L1333.24 1551.62 Q1333.62 1557.67 1336.86 1560.85 Q1340.14 1564 1345.97 1564 Q1349.34 1564 1352.49 1563.17 Q1355.68 1562.35 1358.79 1560.69 L1358.79 1566.23 Q1355.64 1567.57 1352.33 1568.27 Q1349.02 1568.97 1345.62 1568.97 Q1337.09 1568.97 1332.09 1564 Q1327.13 1559.04 1327.13 1550.57 Q1327.13 1541.82 1331.84 1536.69 Q1336.58 1531.54 1344.6 1531.54 Q1351.79 1531.54 1355.96 1536.18 Q1360.16 1540.8 1360.16 1548.76 M1354.31 1547.04 Q1354.24 1542.23 1351.6 1539.37 Q1348.99 1536.5 1344.66 1536.5 Q1339.76 1536.5 1336.8 1539.27 Q1333.87 1542.04 1333.43 1547.07 L1354.31 1547.04 Z" fill="#000000" fill-rule="nonzero" fill-opacity="1" /><polyline clip-path="url(#clip980)" style="stroke:#000000; stroke-linecap:round; stroke-linejoin:round; stroke-width:4; stroke-opacity:1; fill:none" points="211.325,1423.18 211.325,123.472 "/>
<polyline clip-path="url(#clip980)" style="stroke:#000000; stroke-linecap:round; stroke-linejoin:round; stroke-width:4; stroke-opacity:1; fill:none" points="211.325,1260.08 230.222,1260.08 "/>
<polyline clip-path="url(#clip980)" style="stroke:#000000; stroke-linecap:round; stroke-linejoin:round; stroke-width:4; stroke-opacity:1; fill:none" points="211.325,1077.85 230.222,1077.85 "/>
<polyline clip-path="url(#clip980)" style="stroke:#000000; stroke-linecap:round; stroke-linejoin:round; stroke-width:4; stroke-opacity:1; fill:none" points="211.325,895.614 230.222,895.614 "/>
<polyline clip-path="url(#clip980)" style="stroke:#000000; stroke-linecap:round; stroke-linejoin:round; stroke-width:4; stroke-opacity:1; fill:none" points="211.325,713.384 230.222,713.384 "/>
<polyline clip-path="url(#clip980)" style="stroke:#000000; stroke-linecap:round; stroke-linejoin:round; stroke-width:4; stroke-opacity:1; fill:none" points="211.325,531.153 230.222,531.153 "/>
<polyline clip-path="url(#clip980)" style="stroke:#000000; stroke-linecap:round; stroke-linejoin:round; stroke-width:4; stroke-opacity:1; fill:none" points="211.325,348.922 230.222,348.922 "/>
<polyline clip-path="url(#clip980)" style="stroke:#000000; stroke-linecap:round; stroke-linejoin:round; stroke-width:4; stroke-opacity:1; fill:none" points="211.325,166.691 230.222,166.691 "/>
<path clip-path="url(#clip980)" d="M114.26 1260.53 L143.936 1260.53 L143.936 1264.46 L114.26 1264.46 L114.26 1260.53 Z" fill="#000000" fill-rule="nonzero" fill-opacity="1" /><path clip-path="url(#clip980)" d="M168.195 1258.72 Q171.552 1259.44 173.427 1261.71 Q175.325 1263.98 175.325 1267.31 Q175.325 1272.43 171.806 1275.23 Q168.288 1278.03 161.806 1278.03 Q159.63 1278.03 157.315 1277.59 Q155.024 1277.17 152.57 1276.31 L152.57 1271.8 Q154.515 1272.93 156.829 1273.51 Q159.144 1274.09 161.667 1274.09 Q166.065 1274.09 168.357 1272.36 Q170.672 1270.62 170.672 1267.31 Q170.672 1264.25 168.519 1262.54 Q166.39 1260.81 162.57 1260.81 L158.542 1260.81 L158.542 1256.96 L162.755 1256.96 Q166.204 1256.96 168.033 1255.6 Q169.862 1254.21 169.862 1251.62 Q169.862 1248.95 167.964 1247.54 Q166.089 1246.11 162.57 1246.11 Q160.649 1246.11 158.45 1246.52 Q156.251 1246.94 153.612 1247.82 L153.612 1243.65 Q156.274 1242.91 158.589 1242.54 Q160.927 1242.17 162.987 1242.17 Q168.311 1242.17 171.413 1244.6 Q174.514 1247.01 174.514 1251.13 Q174.514 1254 172.871 1255.99 Q171.227 1257.96 168.195 1258.72 Z" fill="#000000" fill-rule="nonzero" fill-opacity="1" /><path clip-path="url(#clip980)" d="M115.209 1078.3 L144.885 1078.3 L144.885 1082.23 L115.209 1082.23 L115.209 1078.3 Z" fill="#000000" fill-rule="nonzero" fill-opacity="1" /><path clip-path="url(#clip980)" d="M159.005 1091.19 L175.325 1091.19 L175.325 1095.13 L153.38 1095.13 L153.38 1091.19 Q156.042 1088.44 160.626 1083.81 Q165.232 1079.15 166.413 1077.81 Q168.658 1075.29 169.538 1073.55 Q170.44 1071.79 170.44 1070.1 Q170.44 1067.35 168.496 1065.61 Q166.575 1063.88 163.473 1063.88 Q161.274 1063.88 158.82 1064.64 Q156.39 1065.4 153.612 1066.95 L153.612 1062.23 Q156.436 1061.1 158.89 1060.52 Q161.343 1059.94 163.38 1059.94 Q168.751 1059.94 171.945 1062.63 Q175.139 1065.31 175.139 1069.8 Q175.139 1071.93 174.329 1073.85 Q173.542 1075.75 171.436 1078.34 Q170.857 1079.01 167.755 1082.23 Q164.653 1085.43 159.005 1091.19 Z" fill="#000000" fill-rule="nonzero" fill-opacity="1" /><path clip-path="url(#clip980)" d="M114.839 896.066 L144.515 896.066 L144.515 900.001 L114.839 900.001 L114.839 896.066 Z" fill="#000000" fill-rule="nonzero" fill-opacity="1" /><path clip-path="url(#clip980)" d="M155.417 908.959 L163.056 908.959 L163.056 882.594 L154.746 884.26 L154.746 880.001 L163.01 878.334 L167.686 878.334 L167.686 908.959 L175.325 908.959 L175.325 912.894 L155.417 912.894 L155.417 908.959 Z" fill="#000000" fill-rule="nonzero" fill-opacity="1" /><path clip-path="url(#clip980)" d="M163.38 699.182 Q159.769 699.182 157.94 702.747 Q156.135 706.289 156.135 713.418 Q156.135 720.525 157.94 724.09 Q159.769 727.631 163.38 727.631 Q167.015 727.631 168.82 724.09 Q170.649 720.525 170.649 713.418 Q170.649 706.289 168.82 702.747 Q167.015 699.182 163.38 699.182 M163.38 695.479 Q169.19 695.479 172.246 700.085 Q175.325 704.668 175.325 713.418 Q175.325 722.145 172.246 726.752 Q169.19 731.335 163.38 731.335 Q157.57 731.335 154.491 726.752 Q151.436 722.145 151.436 713.418 Q151.436 704.668 154.491 700.085 Q157.57 695.479 163.38 695.479 Z" fill="#000000" fill-rule="nonzero" fill-opacity="1" /><path clip-path="url(#clip980)" d="M155.417 544.498 L163.056 544.498 L163.056 518.132 L154.746 519.799 L154.746 515.539 L163.01 513.873 L167.686 513.873 L167.686 544.498 L175.325 544.498 L175.325 548.433 L155.417 548.433 L155.417 544.498 Z" fill="#000000" fill-rule="nonzero" fill-opacity="1" /><path clip-path="url(#clip980)" d="M159.005 362.267 L175.325 362.267 L175.325 366.202 L153.38 366.202 L153.38 362.267 Q156.042 359.512 160.626 354.883 Q165.232 350.23 166.413 348.887 Q168.658 346.364 169.538 344.628 Q170.44 342.869 170.44 341.179 Q170.44 338.424 168.496 336.688 Q166.575 334.952 163.473 334.952 Q161.274 334.952 158.82 335.716 Q156.39 336.48 153.612 338.031 L153.612 333.309 Q156.436 332.174 158.89 331.596 Q161.343 331.017 163.38 331.017 Q168.751 331.017 171.945 333.702 Q175.139 336.387 175.139 340.878 Q175.139 343.008 174.329 344.929 Q173.542 346.827 171.436 349.42 Q170.857 350.091 167.755 353.309 Q164.653 356.503 159.005 362.267 Z" fill="#000000" fill-rule="nonzero" fill-opacity="1" /><path clip-path="url(#clip980)" d="M168.195 165.337 Q171.552 166.055 173.427 168.323 Q175.325 170.592 175.325 173.925 Q175.325 179.041 171.806 181.842 Q168.288 184.643 161.806 184.643 Q159.63 184.643 157.315 184.203 Q155.024 183.786 152.57 182.93 L152.57 178.416 Q154.515 179.55 156.829 180.129 Q159.144 180.707 161.667 180.707 Q166.065 180.707 168.357 178.971 Q170.672 177.235 170.672 173.925 Q170.672 170.87 168.519 169.157 Q166.39 167.42 162.57 167.42 L158.542 167.42 L158.542 163.578 L162.755 163.578 Q166.204 163.578 168.033 162.212 Q169.862 160.823 169.862 158.231 Q169.862 155.569 167.964 154.157 Q166.089 152.721 162.57 152.721 Q160.649 152.721 158.45 153.138 Q156.251 153.555 153.612 154.434 L153.612 150.268 Q156.274 149.527 158.589 149.157 Q160.927 148.786 162.987 148.786 Q168.311 148.786 171.413 151.217 Q174.514 153.624 174.514 157.745 Q174.514 160.615 172.871 162.606 Q171.227 164.573 168.195 165.337 Z" fill="#000000" fill-rule="nonzero" fill-opacity="1" /><path clip-path="url(#clip980)" d="M64.0042 842.696 L16.4842 860.839 L16.4842 854.123 L56.4926 839.068 L16.4842 823.981 L16.4842 817.297 L64.0042 835.408 L64.0042 842.696 Z" fill="#000000" fill-rule="nonzero" fill-opacity="1" /><path clip-path="url(#clip980)" d="M46.0847 799.473 Q46.0847 806.571 47.7079 809.308 Q49.3312 812.045 53.2461 812.045 Q56.3653 812.045 58.2114 810.008 Q60.0256 807.94 60.0256 804.407 Q60.0256 799.537 56.5881 796.609 Q53.1188 793.649 47.3897 793.649 L46.0847 793.649 L46.0847 799.473 M43.6657 787.792 L64.0042 787.792 L64.0042 793.649 L58.5933 793.649 Q61.8398 795.654 63.3994 798.646 Q64.9272 801.637 64.9272 805.966 Q64.9272 811.441 61.8716 814.687 Q58.7843 817.902 53.6281 817.902 Q47.6125 817.902 44.5569 813.891 Q41.5014 809.849 41.5014 801.86 L41.5014 793.649 L40.9285 793.649 Q36.8862 793.649 34.6901 796.322 Q32.4621 798.964 32.4621 803.77 Q32.4621 806.826 33.1941 809.722 Q33.9262 812.618 35.3903 815.292 L29.9795 815.292 Q28.7381 812.077 28.1334 809.054 Q27.4968 806.03 27.4968 803.165 Q27.4968 795.431 31.5072 791.611 Q35.5176 787.792 43.6657 787.792 Z" fill="#000000" fill-rule="nonzero" fill-opacity="1" /><path clip-path="url(#clip980)" d="M14.479 775.729 L14.479 769.873 L64.0042 769.873 L64.0042 775.729 L14.479 775.729 Z" fill="#000000" fill-rule="nonzero" fill-opacity="1" /><path clip-path="url(#clip980)" d="M49.9359 758.223 L28.3562 758.223 L28.3562 752.367 L49.7131 752.367 Q54.7739 752.367 57.3202 750.394 Q59.8346 748.42 59.8346 744.473 Q59.8346 739.731 56.8109 736.994 Q53.7872 734.225 48.5673 734.225 L28.3562 734.225 L28.3562 728.368 L64.0042 728.368 L64.0042 734.225 L58.5296 734.225 Q61.7762 736.357 63.3676 739.19 Q64.9272 741.991 64.9272 745.715 Q64.9272 751.858 61.1078 755.04 Q57.2883 758.223 49.9359 758.223 M27.4968 743.487 L27.4968 743.487 Z" fill="#000000" fill-rule="nonzero" fill-opacity="1" /><path clip-path="url(#clip980)" d="M44.7161 685.813 L47.5806 685.813 L47.5806 712.74 Q53.6281 712.358 56.8109 709.112 Q59.9619 705.834 59.9619 700.009 Q59.9619 696.635 59.1344 693.484 Q58.3069 690.301 56.6518 687.182 L62.1899 687.182 Q63.5267 690.333 64.227 693.643 Q64.9272 696.953 64.9272 700.359 Q64.9272 708.889 59.9619 713.886 Q54.9967 718.851 46.5303 718.851 Q37.7774 718.851 32.6531 714.141 Q27.4968 709.398 27.4968 701.378 Q27.4968 694.184 32.1438 690.015 Q36.7589 685.813 44.7161 685.813 M42.9973 691.67 Q38.1912 691.734 35.3266 694.375 Q32.4621 696.985 32.4621 701.314 Q32.4621 706.216 35.2312 709.176 Q38.0002 712.104 43.0292 712.549 L42.9973 691.67 Z" fill="#000000" fill-rule="nonzero" fill-opacity="1" /><path clip-path="url(#clip980)" d="M515.123 12.096 L549.88 12.096 L549.88 18.9825 L523.306 18.9825 L523.306 36.8065 L547.287 36.8065 L547.287 43.6931 L523.306 43.6931 L523.306 72.576 L515.123 72.576 L515.123 12.096 Z" fill="#000000" fill-rule="nonzero" fill-opacity="1" /><path clip-path="url(#clip980)" d="M577.142 32.4315 Q571.147 32.4315 567.663 37.1306 Q564.18 41.7891 564.18 49.9314 Q564.18 58.0738 567.623 62.7728 Q571.107 67.4314 577.142 67.4314 Q583.097 67.4314 586.581 62.7323 Q590.065 58.0333 590.065 49.9314 Q590.065 41.8701 586.581 37.1711 Q583.097 32.4315 577.142 32.4315 M577.142 26.1121 Q586.865 26.1121 592.414 32.4315 Q597.964 38.7509 597.964 49.9314 Q597.964 61.0714 592.414 67.4314 Q586.865 73.7508 577.142 73.7508 Q567.38 73.7508 561.83 67.4314 Q556.321 61.0714 556.321 49.9314 Q556.321 38.7509 561.83 32.4315 Q567.38 26.1121 577.142 26.1121 Z" fill="#000000" fill-rule="nonzero" fill-opacity="1" /><path clip-path="url(#clip980)" d="M636.61 34.1734 Q635.354 33.4443 633.855 33.1202 Q632.397 32.7556 630.614 32.7556 Q624.295 32.7556 620.892 36.8875 Q617.53 40.9789 617.53 48.6757 L617.53 72.576 L610.036 72.576 L610.036 27.2059 L617.53 27.2059 L617.53 34.2544 Q619.879 30.1225 623.647 28.1376 Q627.414 26.1121 632.802 26.1121 Q633.572 26.1121 634.503 26.2337 Q635.435 26.3147 636.569 26.5172 L636.61 34.1734 Z" fill="#000000" fill-rule="nonzero" fill-opacity="1" /><path clip-path="url(#clip980)" d="M681.413 48.0275 L681.413 51.6733 L647.142 51.6733 Q647.628 59.3701 651.76 63.421 Q655.933 67.4314 663.346 67.4314 Q667.64 67.4314 671.65 66.3781 Q675.701 65.3249 679.671 63.2184 L679.671 70.267 Q675.66 71.9684 671.447 72.8596 Q667.235 73.7508 662.9 73.7508 Q652.044 73.7508 645.684 67.4314 Q639.364 61.1119 639.364 50.3365 Q639.364 39.1965 645.36 32.6746 Q651.396 26.1121 661.604 26.1121 Q670.759 26.1121 676.066 32.0264 Q681.413 37.9003 681.413 48.0275 M673.959 45.84 Q673.878 39.7232 670.516 36.0774 Q667.194 32.4315 661.685 32.4315 Q655.446 32.4315 651.679 35.9558 Q647.952 39.4801 647.385 45.8805 L673.959 45.84 Z" fill="#000000" fill-rule="nonzero" fill-opacity="1" /><path clip-path="url(#clip980)" d="M726.297 28.9478 L726.297 35.9153 Q723.137 34.1734 719.937 33.3227 Q716.777 32.4315 713.536 32.4315 Q706.285 32.4315 702.275 37.0496 Q698.264 41.6271 698.264 49.9314 Q698.264 58.2358 702.275 62.8538 Q706.285 67.4314 713.536 67.4314 Q716.777 67.4314 719.937 66.5807 Q723.137 65.6895 726.297 63.9476 L726.297 70.8341 Q723.178 72.2924 719.815 73.0216 Q716.494 73.7508 712.726 73.7508 Q702.477 73.7508 696.442 67.3098 Q690.406 60.8689 690.406 49.9314 Q690.406 38.832 696.482 32.472 Q702.599 26.1121 713.212 26.1121 Q716.656 26.1121 719.937 26.8413 Q723.218 27.5299 726.297 28.9478 Z" fill="#000000" fill-rule="nonzero" fill-opacity="1" /><path clip-path="url(#clip980)" d="M759.879 49.7694 Q750.845 49.7694 747.361 51.8354 Q743.878 53.9013 743.878 58.8839 Q743.878 62.8538 746.47 65.2034 Q749.103 67.5124 753.6 67.5124 Q759.798 67.5124 763.525 63.1374 Q767.292 58.7219 767.292 51.4303 L767.292 49.7694 L759.879 49.7694 M774.746 46.6907 L774.746 72.576 L767.292 72.576 L767.292 65.6895 Q764.74 69.8214 760.932 71.8063 Q757.124 73.7508 751.615 73.7508 Q744.647 73.7508 740.515 69.8619 Q736.424 65.9325 736.424 59.3701 Q736.424 51.7138 741.528 47.825 Q746.673 43.9361 756.841 43.9361 L767.292 43.9361 L767.292 43.2069 Q767.292 38.0623 763.889 35.2672 Q760.527 32.4315 754.41 32.4315 Q750.521 32.4315 746.835 33.3632 Q743.148 34.295 739.746 36.1584 L739.746 29.2718 Q743.837 27.692 747.685 26.9223 Q751.534 26.1121 755.18 26.1121 Q765.023 26.1121 769.884 31.2163 Q774.746 36.3204 774.746 46.6907 Z" fill="#000000" fill-rule="nonzero" fill-opacity="1" /><path clip-path="url(#clip980)" d="M819.022 28.5427 L819.022 35.5912 Q815.862 33.9709 812.459 33.1607 Q809.057 32.3505 805.411 32.3505 Q799.861 32.3505 797.066 34.0519 Q794.311 35.7533 794.311 39.156 Q794.311 41.7486 796.296 43.2475 Q798.281 44.7058 804.277 46.0426 L806.829 46.6097 Q814.768 48.3111 818.09 51.4303 Q821.452 54.509 821.452 60.0587 Q821.452 66.3781 816.429 70.0644 Q811.447 73.7508 802.697 73.7508 Q799.051 73.7508 795.081 73.0216 Q791.152 72.3329 786.777 70.9151 L786.777 63.2184 Q790.909 65.3654 794.919 66.4591 Q798.929 67.5124 802.859 67.5124 Q808.125 67.5124 810.961 65.73 Q813.796 63.9071 813.796 60.6258 Q813.796 57.5877 811.73 55.9673 Q809.705 54.3469 802.778 52.8481 L800.185 52.2405 Q793.258 50.7821 790.179 47.7845 Q787.101 44.7463 787.101 39.4801 Q787.101 33.0797 791.638 29.5959 Q796.175 26.1121 804.52 26.1121 Q808.652 26.1121 812.297 26.7198 Q815.943 27.3274 819.022 28.5427 Z" fill="#000000" fill-rule="nonzero" fill-opacity="1" /><path clip-path="url(#clip980)" d="M840.694 14.324 L840.694 27.2059 L856.047 27.2059 L856.047 32.9987 L840.694 32.9987 L840.694 57.6282 Q840.694 63.1779 842.193 64.7578 Q843.732 66.3376 848.391 66.3376 L856.047 66.3376 L856.047 72.576 L848.391 72.576 Q839.763 72.576 836.481 69.3758 Q833.2 66.1351 833.2 57.6282 L833.2 32.9987 L827.731 32.9987 L827.731 27.2059 L833.2 27.2059 L833.2 14.324 L840.694 14.324 Z" fill="#000000" fill-rule="nonzero" fill-opacity="1" /><path clip-path="url(#clip980)" d="M886.875 27.2059 L894.774 27.2059 L908.952 65.2844 L923.13 27.2059 L931.029 27.2059 L914.016 72.576 L903.888 72.576 L886.875 27.2059 Z" fill="#000000" fill-rule="nonzero" fill-opacity="1" /><path clip-path="url(#clip980)" d="M970.242 28.5427 L970.242 35.5912 Q967.082 33.9709 963.68 33.1607 Q960.277 32.3505 956.631 32.3505 Q951.081 32.3505 948.286 34.0519 Q945.532 35.7533 945.532 39.156 Q945.532 41.7486 947.517 43.2475 Q949.502 44.7058 955.497 46.0426 L958.049 46.6097 Q965.989 48.3111 969.31 51.4303 Q972.673 54.509 972.673 60.0587 Q972.673 66.3781 967.65 70.0644 Q962.667 73.7508 953.917 73.7508 Q950.271 73.7508 946.301 73.0216 Q942.372 72.3329 937.997 70.9151 L937.997 63.2184 Q942.129 65.3654 946.139 66.4591 Q950.15 67.5124 954.079 67.5124 Q959.345 67.5124 962.181 65.73 Q965.017 63.9071 965.017 60.6258 Q965.017 57.5877 962.951 55.9673 Q960.925 54.3469 953.998 52.8481 L951.405 52.2405 Q944.478 50.7821 941.4 47.7845 Q938.321 44.7463 938.321 39.4801 Q938.321 33.0797 942.858 29.5959 Q947.395 26.1121 955.74 26.1121 Q959.872 26.1121 963.518 26.7198 Q967.163 27.3274 970.242 28.5427 Z" fill="#000000" fill-rule="nonzero" fill-opacity="1" /><path clip-path="url(#clip980)" d="M1035.79 17.6457 Q1026.87 17.6457 1021.61 24.2892 Q1016.38 30.9327 1016.38 42.3968 Q1016.38 53.8203 1021.61 60.4638 Q1026.87 67.1073 1035.79 67.1073 Q1044.7 67.1073 1049.88 60.4638 Q1055.11 53.8203 1055.11 42.3968 Q1055.11 30.9327 1049.88 24.2892 Q1044.7 17.6457 1035.79 17.6457 M1035.79 11.0023 Q1048.51 11.0023 1056.12 19.5497 Q1063.74 28.0566 1063.74 42.3968 Q1063.74 56.6965 1056.12 65.2439 Q1048.51 73.7508 1035.79 73.7508 Q1023.03 73.7508 1015.37 65.2439 Q1007.75 56.737 1007.75 42.3968 Q1007.75 28.0566 1015.37 19.5497 Q1023.03 11.0023 1035.79 11.0023 Z" fill="#000000" fill-rule="nonzero" fill-opacity="1" /><path clip-path="url(#clip980)" d="M1108.78 49.9314 Q1108.78 41.7081 1105.38 37.0496 Q1102.02 32.3505 1096.1 32.3505 Q1090.19 32.3505 1086.79 37.0496 Q1083.42 41.7081 1083.42 49.9314 Q1083.42 58.1548 1086.79 62.8538 Q1090.19 67.5124 1096.1 67.5124 Q1102.02 67.5124 1105.38 62.8538 Q1108.78 58.1548 1108.78 49.9314 M1083.42 34.0924 Q1085.77 30.0415 1089.34 28.0971 Q1092.94 26.1121 1097.93 26.1121 Q1106.19 26.1121 1111.34 32.6746 Q1116.52 39.2371 1116.52 49.9314 Q1116.52 60.6258 1111.34 67.1883 Q1106.19 73.7508 1097.93 73.7508 Q1092.94 73.7508 1089.34 71.8063 Q1085.77 69.8214 1083.42 65.7705 L1083.42 72.576 L1075.93 72.576 L1075.93 9.54393 L1083.42 9.54393 L1083.42 34.0924 Z" fill="#000000" fill-rule="nonzero" fill-opacity="1" /><path clip-path="url(#clip980)" d="M1157.8 28.5427 L1157.8 35.5912 Q1154.64 33.9709 1151.24 33.1607 Q1147.83 32.3505 1144.19 32.3505 Q1138.64 32.3505 1135.84 34.0519 Q1133.09 35.7533 1133.09 39.156 Q1133.09 41.7486 1135.07 43.2475 Q1137.06 44.7058 1143.05 46.0426 L1145.61 46.6097 Q1153.55 48.3111 1156.87 51.4303 Q1160.23 54.509 1160.23 60.0587 Q1160.23 66.3781 1155.21 70.0644 Q1150.22 73.7508 1141.47 73.7508 Q1137.83 73.7508 1133.86 73.0216 Q1129.93 72.3329 1125.55 70.9151 L1125.55 63.2184 Q1129.69 65.3654 1133.7 66.4591 Q1137.71 67.5124 1141.64 67.5124 Q1146.9 67.5124 1149.74 65.73 Q1152.57 63.9071 1152.57 60.6258 Q1152.57 57.5877 1150.51 55.9673 Q1148.48 54.3469 1141.55 52.8481 L1138.96 52.2405 Q1132.04 50.7821 1128.96 47.7845 Q1125.88 44.7463 1125.88 39.4801 Q1125.88 33.0797 1130.41 29.5959 Q1134.95 26.1121 1143.3 26.1121 Q1147.43 26.1121 1151.07 26.7198 Q1154.72 27.3274 1157.8 28.5427 Z" fill="#000000" fill-rule="nonzero" fill-opacity="1" /><path clip-path="url(#clip980)" d="M1210.91 48.0275 L1210.91 51.6733 L1176.64 51.6733 Q1177.12 59.3701 1181.25 63.421 Q1185.43 67.4314 1192.84 67.4314 Q1197.13 67.4314 1201.14 66.3781 Q1205.19 65.3249 1209.16 63.2184 L1209.16 70.267 Q1205.15 71.9684 1200.94 72.8596 Q1196.73 73.7508 1192.39 73.7508 Q1181.54 73.7508 1175.18 67.4314 Q1168.86 61.1119 1168.86 50.3365 Q1168.86 39.1965 1174.85 32.6746 Q1180.89 26.1121 1191.1 26.1121 Q1200.25 26.1121 1205.56 32.0264 Q1210.91 37.9003 1210.91 48.0275 M1203.45 45.84 Q1203.37 39.7232 1200.01 36.0774 Q1196.69 32.4315 1191.18 32.4315 Q1184.94 32.4315 1181.17 35.9558 Q1177.45 39.4801 1176.88 45.8805 L1203.45 45.84 Z" fill="#000000" fill-rule="nonzero" fill-opacity="1" /><path clip-path="url(#clip980)" d="M1249.43 34.1734 Q1248.17 33.4443 1246.68 33.1202 Q1245.22 32.7556 1243.44 32.7556 Q1237.12 32.7556 1233.71 36.8875 Q1230.35 40.9789 1230.35 48.6757 L1230.35 72.576 L1222.86 72.576 L1222.86 27.2059 L1230.35 27.2059 L1230.35 34.2544 Q1232.7 30.1225 1236.47 28.1376 Q1240.23 26.1121 1245.62 26.1121 Q1246.39 26.1121 1247.32 26.2337 Q1248.26 26.3147 1249.39 26.5172 L1249.43 34.1734 Z" fill="#000000" fill-rule="nonzero" fill-opacity="1" /><path clip-path="url(#clip980)" d="M1251.9 27.2059 L1259.8 27.2059 L1273.98 65.2844 L1288.16 27.2059 L1296.06 27.2059 L1279.04 72.576 L1268.92 72.576 L1251.9 27.2059 Z" fill="#000000" fill-rule="nonzero" fill-opacity="1" /><path clip-path="url(#clip980)" d="M1345.15 48.0275 L1345.15 51.6733 L1310.88 51.6733 Q1311.37 59.3701 1315.5 63.421 Q1319.67 67.4314 1327.09 67.4314 Q1331.38 67.4314 1335.39 66.3781 Q1339.44 65.3249 1343.41 63.2184 L1343.41 70.267 Q1339.4 71.9684 1335.19 72.8596 Q1330.98 73.7508 1326.64 73.7508 Q1315.78 73.7508 1309.42 67.4314 Q1303.1 61.1119 1303.1 50.3365 Q1303.1 39.1965 1309.1 32.6746 Q1315.14 26.1121 1325.34 26.1121 Q1334.5 26.1121 1339.81 32.0264 Q1345.15 37.9003 1345.15 48.0275 M1337.7 45.84 Q1337.62 39.7232 1334.26 36.0774 Q1330.93 32.4315 1325.43 32.4315 Q1319.19 32.4315 1315.42 35.9558 Q1311.69 39.4801 1311.13 45.8805 L1337.7 45.84 Z" fill="#000000" fill-rule="nonzero" fill-opacity="1" /><path clip-path="url(#clip980)" d="M1387.24 34.0924 L1387.24 9.54393 L1394.7 9.54393 L1394.7 72.576 L1387.24 72.576 L1387.24 65.7705 Q1384.89 69.8214 1381.29 71.8063 Q1377.72 73.7508 1372.7 73.7508 Q1364.48 73.7508 1359.29 67.1883 Q1354.15 60.6258 1354.15 49.9314 Q1354.15 39.2371 1359.29 32.6746 Q1364.48 26.1121 1372.7 26.1121 Q1377.72 26.1121 1381.29 28.0971 Q1384.89 30.0415 1387.24 34.0924 M1361.84 49.9314 Q1361.84 58.1548 1365.21 62.8538 Q1368.61 67.5124 1374.52 67.5124 Q1380.44 67.5124 1383.84 62.8538 Q1387.24 58.1548 1387.24 49.9314 Q1387.24 41.7081 1383.84 37.0496 Q1380.44 32.3505 1374.52 32.3505 Q1368.61 32.3505 1365.21 37.0496 Q1361.84 41.7081 1361.84 49.9314 Z" fill="#000000" fill-rule="nonzero" fill-opacity="1" /><path clip-path="url(#clip980)" d="M1454.33 9.62495 Q1448.9 18.942 1446.26 28.0566 Q1443.63 37.1711 1443.63 46.5287 Q1443.63 55.8863 1446.26 65.0818 Q1448.94 74.2369 1454.33 83.5134 L1447.84 83.5134 Q1441.77 73.9938 1438.73 64.7983 Q1435.73 55.6027 1435.73 46.5287 Q1435.73 37.4952 1438.73 28.3401 Q1441.73 19.1851 1447.84 9.62495 L1454.33 9.62495 Z" fill="#000000" fill-rule="nonzero" fill-opacity="1" /><path clip-path="url(#clip980)" d="M1468.79 9.54393 L1476.24 9.54393 L1476.24 72.576 L1468.79 72.576 L1468.79 9.54393 Z" fill="#000000" fill-rule="nonzero" fill-opacity="1" /><path clip-path="url(#clip980)" d="M1512.46 49.7694 Q1503.42 49.7694 1499.94 51.8354 Q1496.45 53.9013 1496.45 58.8839 Q1496.45 62.8538 1499.05 65.2034 Q1501.68 67.5124 1506.18 67.5124 Q1512.37 67.5124 1516.1 63.1374 Q1519.87 58.7219 1519.87 51.4303 L1519.87 49.7694 L1512.46 49.7694 M1527.32 46.6907 L1527.32 72.576 L1519.87 72.576 L1519.87 65.6895 Q1517.32 69.8214 1513.51 71.8063 Q1509.7 73.7508 1504.19 73.7508 Q1497.22 73.7508 1493.09 69.8619 Q1489 65.9325 1489 59.3701 Q1489 51.7138 1494.11 47.825 Q1499.25 43.9361 1509.42 43.9361 L1519.87 43.9361 L1519.87 43.2069 Q1519.87 38.0623 1516.47 35.2672 Q1513.1 32.4315 1506.99 32.4315 Q1503.1 32.4315 1499.41 33.3632 Q1495.73 34.295 1492.32 36.1584 L1492.32 29.2718 Q1496.41 27.692 1500.26 26.9223 Q1504.11 26.1121 1507.76 26.1121 Q1517.6 26.1121 1522.46 31.2163 Q1527.32 36.3204 1527.32 46.6907 Z" fill="#000000" fill-rule="nonzero" fill-opacity="1" /><path clip-path="url(#clip980)" d="M1571.6 28.5427 L1571.6 35.5912 Q1568.44 33.9709 1565.04 33.1607 Q1561.63 32.3505 1557.99 32.3505 Q1552.44 32.3505 1549.64 34.0519 Q1546.89 35.7533 1546.89 39.156 Q1546.89 41.7486 1548.87 43.2475 Q1550.86 44.7058 1556.85 46.0426 L1559.41 46.6097 Q1567.35 48.3111 1570.67 51.4303 Q1574.03 54.509 1574.03 60.0587 Q1574.03 66.3781 1569.01 70.0644 Q1564.02 73.7508 1555.27 73.7508 Q1551.63 73.7508 1547.66 73.0216 Q1543.73 72.3329 1539.35 70.9151 L1539.35 63.2184 Q1543.49 65.3654 1547.5 66.4591 Q1551.51 67.5124 1555.44 67.5124 Q1560.7 67.5124 1563.54 65.73 Q1566.37 63.9071 1566.37 60.6258 Q1566.37 57.5877 1564.31 55.9673 Q1562.28 54.3469 1555.35 52.8481 L1552.76 52.2405 Q1545.84 50.7821 1542.76 47.7845 Q1539.68 44.7463 1539.68 39.4801 Q1539.68 33.0797 1544.21 29.5959 Q1548.75 26.1121 1557.1 26.1121 Q1561.23 26.1121 1564.87 26.7198 Q1568.52 27.3274 1571.6 28.5427 Z" fill="#000000" fill-rule="nonzero" fill-opacity="1" /><path clip-path="url(#clip980)" d="M1593.27 14.324 L1593.27 27.2059 L1608.62 27.2059 L1608.62 32.9987 L1593.27 32.9987 L1593.27 57.6282 Q1593.27 63.1779 1594.77 64.7578 Q1596.31 66.3376 1600.97 66.3376 L1608.62 66.3376 L1608.62 72.576 L1600.97 72.576 Q1592.34 72.576 1589.06 69.3758 Q1585.78 66.1351 1585.78 57.6282 L1585.78 32.9987 L1580.31 32.9987 L1580.31 27.2059 L1585.78 27.2059 L1585.78 14.324 L1593.27 14.324 Z" fill="#000000" fill-rule="nonzero" fill-opacity="1" /><path clip-path="url(#clip980)" d="M1645.93 12.096 L1678.06 12.096 L1678.06 18.9825 L1653.43 18.9825 L1653.43 33.8088 Q1655.21 33.2012 1656.99 32.9176 Q1658.77 32.5936 1660.56 32.5936 Q1670.68 32.5936 1676.6 38.1433 Q1682.51 43.6931 1682.51 53.1722 Q1682.51 62.9348 1676.44 68.3631 Q1670.36 73.7508 1659.3 73.7508 Q1655.49 73.7508 1651.52 73.1026 Q1647.59 72.4545 1643.38 71.1582 L1643.38 62.9348 Q1647.03 64.9198 1650.92 65.892 Q1654.8 66.8642 1659.14 66.8642 Q1666.15 66.8642 1670.24 63.1779 Q1674.33 59.4916 1674.33 53.1722 Q1674.33 46.8528 1670.24 43.1664 Q1666.15 39.4801 1659.14 39.4801 Q1655.86 39.4801 1652.58 40.2093 Q1649.34 40.9384 1645.93 42.4778 L1645.93 12.096 Z" fill="#000000" fill-rule="nonzero" fill-opacity="1" /><path clip-path="url(#clip980)" d="M1716.14 17.4837 Q1709.82 17.4837 1706.62 23.7221 Q1703.46 29.92 1703.46 42.3968 Q1703.46 54.833 1706.62 61.0714 Q1709.82 67.2693 1716.14 67.2693 Q1722.5 67.2693 1725.65 61.0714 Q1728.86 54.833 1728.86 42.3968 Q1728.86 29.92 1725.65 23.7221 Q1722.5 17.4837 1716.14 17.4837 M1716.14 11.0023 Q1726.3 11.0023 1731.65 19.0636 Q1737.04 27.0843 1737.04 42.3968 Q1737.04 57.6687 1731.65 65.73 Q1726.3 73.7508 1716.14 73.7508 Q1705.97 73.7508 1700.58 65.73 Q1695.23 57.6687 1695.23 42.3968 Q1695.23 27.0843 1700.58 19.0636 Q1705.97 11.0023 1716.14 11.0023 Z" fill="#000000" fill-rule="nonzero" fill-opacity="1" /><path clip-path="url(#clip980)" d="M1783.95 65.7705 L1783.95 89.8329 L1776.45 89.8329 L1776.45 27.2059 L1783.95 27.2059 L1783.95 34.0924 Q1786.3 30.0415 1789.86 28.0971 Q1793.47 26.1121 1798.45 26.1121 Q1806.71 26.1121 1811.86 32.6746 Q1817.04 39.2371 1817.04 49.9314 Q1817.04 60.6258 1811.86 67.1883 Q1806.71 73.7508 1798.45 73.7508 Q1793.47 73.7508 1789.86 71.8063 Q1786.3 69.8214 1783.95 65.7705 M1809.31 49.9314 Q1809.31 41.7081 1805.9 37.0496 Q1802.54 32.3505 1796.63 32.3505 Q1790.71 32.3505 1787.31 37.0496 Q1783.95 41.7081 1783.95 49.9314 Q1783.95 58.1548 1787.31 62.8538 Q1790.71 67.5124 1796.63 67.5124 Q1802.54 67.5124 1805.9 62.8538 Q1809.31 58.1548 1809.31 49.9314 Z" fill="#000000" fill-rule="nonzero" fill-opacity="1" /><path clip-path="url(#clip980)" d="M1846.98 32.4315 Q1840.98 32.4315 1837.5 37.1306 Q1834.02 41.7891 1834.02 49.9314 Q1834.02 58.0738 1837.46 62.7728 Q1840.94 67.4314 1846.98 67.4314 Q1852.93 67.4314 1856.42 62.7323 Q1859.9 58.0333 1859.9 49.9314 Q1859.9 41.8701 1856.42 37.1711 Q1852.93 32.4315 1846.98 32.4315 M1846.98 26.1121 Q1856.7 26.1121 1862.25 32.4315 Q1867.8 38.7509 1867.8 49.9314 Q1867.8 61.0714 1862.25 67.4314 Q1856.7 73.7508 1846.98 73.7508 Q1837.22 73.7508 1831.67 67.4314 Q1826.16 61.0714 1826.16 49.9314 Q1826.16 38.7509 1831.67 32.4315 Q1837.22 26.1121 1846.98 26.1121 Z" fill="#000000" fill-rule="nonzero" fill-opacity="1" /><path clip-path="url(#clip980)" d="M1880.16 27.2059 L1887.61 27.2059 L1887.61 72.576 L1880.16 72.576 L1880.16 27.2059 M1880.16 9.54393 L1887.61 9.54393 L1887.61 18.9825 L1880.16 18.9825 L1880.16 9.54393 Z" fill="#000000" fill-rule="nonzero" fill-opacity="1" /><path clip-path="url(#clip980)" d="M1940.92 45.1919 L1940.92 72.576 L1933.47 72.576 L1933.47 45.4349 Q1933.47 38.994 1930.95 35.7938 Q1928.44 32.5936 1923.42 32.5936 Q1917.38 32.5936 1913.9 36.4419 Q1910.42 40.2903 1910.42 46.9338 L1910.42 72.576 L1902.92 72.576 L1902.92 27.2059 L1910.42 27.2059 L1910.42 34.2544 Q1913.09 30.163 1916.7 28.1376 Q1920.34 26.1121 1925.08 26.1121 Q1932.9 26.1121 1936.91 30.9732 Q1940.92 35.7938 1940.92 45.1919 Z" fill="#000000" fill-rule="nonzero" fill-opacity="1" /><path clip-path="url(#clip980)" d="M1963.16 14.324 L1963.16 27.2059 L1978.51 27.2059 L1978.51 32.9987 L1963.16 32.9987 L1963.16 57.6282 Q1963.16 63.1779 1964.66 64.7578 Q1966.2 66.3376 1970.86 66.3376 L1978.51 66.3376 L1978.51 72.576 L1970.86 72.576 Q1962.23 72.576 1958.95 69.3758 Q1955.67 66.1351 1955.67 57.6282 L1955.67 32.9987 L1950.2 32.9987 L1950.2 27.2059 L1955.67 27.2059 L1955.67 14.324 L1963.16 14.324 Z" fill="#000000" fill-rule="nonzero" fill-opacity="1" /><path clip-path="url(#clip980)" d="M2017.24 28.5427 L2017.24 35.5912 Q2014.08 33.9709 2010.68 33.1607 Q2007.27 32.3505 2003.63 32.3505 Q1998.08 32.3505 1995.28 34.0519 Q1992.53 35.7533 1992.53 39.156 Q1992.53 41.7486 1994.51 43.2475 Q1996.5 44.7058 2002.49 46.0426 L2005.05 46.6097 Q2012.99 48.3111 2016.31 51.4303 Q2019.67 54.509 2019.67 60.0587 Q2019.67 66.3781 2014.65 70.0644 Q2009.66 73.7508 2000.91 73.7508 Q1997.27 73.7508 1993.3 73.0216 Q1989.37 72.3329 1984.99 70.9151 L1984.99 63.2184 Q1989.13 65.3654 1993.14 66.4591 Q1997.15 67.5124 2001.08 67.5124 Q2006.34 67.5124 2009.18 65.73 Q2012.01 63.9071 2012.01 60.6258 Q2012.01 57.5877 2009.95 55.9673 Q2007.92 54.3469 2000.99 52.8481 L1998.4 52.2405 Q1991.48 50.7821 1988.4 47.7845 Q1985.32 44.7463 1985.32 39.4801 Q1985.32 33.0797 1989.85 29.5959 Q1994.39 26.1121 2002.74 26.1121 Q2006.87 26.1121 2010.51 26.7198 Q2014.16 27.3274 2017.24 28.5427 Z" fill="#000000" fill-rule="nonzero" fill-opacity="1" /><path clip-path="url(#clip980)" d="M2030.36 9.62495 L2036.85 9.62495 Q2042.92 19.1851 2045.92 28.3401 Q2048.96 37.4952 2048.96 46.5287 Q2048.96 55.6027 2045.92 64.7983 Q2042.92 73.9938 2036.85 83.5134 L2030.36 83.5134 Q2035.75 74.2369 2038.38 65.0818 Q2041.06 55.8863 2041.06 46.5287 Q2041.06 37.1711 2038.38 28.0566 Q2035.75 18.942 2030.36 9.62495 Z" fill="#000000" fill-rule="nonzero" fill-opacity="1" /><polyline clip-path="url(#clip982)" style="stroke:#0000ff; stroke-linecap:round; stroke-linejoin:round; stroke-width:4; stroke-opacity:1; fill:none" points="271.931,404.793 309.343,609.987 346.754,1046.53 384.166,1094.82 421.577,1070.48 458.988,1232.13 496.4,1016.64 533.811,886.566 571.223,1014.65 608.634,1278.02 646.046,1386.4 683.457,1180.6 720.869,1040.91 758.28,1093.44 795.691,1041.25 833.103,818.418 870.514,847.253 907.926,772.499 945.337,779.666 982.749,921.266 1020.16,749.875 1057.57,655.862 1094.98,1120.37 1132.39,1054.53 1169.81,994.899 1207.22,575.935 1244.63,733.095 1282.04,786.12 1319.45,903.972 1356.86,852.635 1394.27,949.887 1431.69,872.763 1469.1,931.633 1506.51,852.084 1543.92,1026.78 1581.33,1029.49 1618.74,838.745 1656.15,608.185 1693.57,708.023 1730.98,661.271 1768.39,666.427 1805.8,743.555 1843.21,775.855 1880.62,581.613 1918.03,1030.86 1955.45,637.399 1992.86,675.624 2030.27,763.925 2067.68,698.543 2105.09,777.489 "/>
<polyline clip-path="url(#clip982)" style="stroke:#ff0000; stroke-linecap:round; stroke-linejoin:round; stroke-width:8; stroke-opacity:1; fill:none" points="2142.5,778.803 2179.92,753.249 2217.33,737.043 2254.74,726.767 2292.15,720.25 "/>
<polyline clip-path="url(#clip982)" style="stroke:#ff0000; stroke-linecap:round; stroke-linejoin:round; stroke-width:8; stroke-opacity:0.3; fill:none" stroke-dasharray="32, 20" points="2142.5,1141.26 2179.92,1246.44 2217.33,1273.91 2254.74,1280.23 2292.15,1280.24 "/>
<polyline clip-path="url(#clip982)" style="stroke:#ff0000; stroke-linecap:round; stroke-linejoin:round; stroke-width:8; stroke-opacity:0.3; fill:none" stroke-dasharray="32, 20" points="2142.5,416.345 2179.92,260.054 2217.33,200.176 2254.74,173.307 2292.15,160.256 "/>
<path clip-path="url(#clip980)" d="M282.706 425.996 L866.43 425.996 L866.43 166.796 L282.706 166.796  Z" fill="#ffffff" fill-rule="evenodd" fill-opacity="1"/>
<polyline clip-path="url(#clip980)" style="stroke:#000000; stroke-linecap:round; stroke-linejoin:round; stroke-width:4; stroke-opacity:1; fill:none" points="282.706,425.996 866.43,425.996 866.43,166.796 282.706,166.796 282.706,425.996 "/>
<polyline clip-path="url(#clip980)" style="stroke:#0000ff; stroke-linecap:round; stroke-linejoin:round; stroke-width:4; stroke-opacity:1; fill:none" points="306.499,218.636 449.261,218.636 "/>
<path clip-path="url(#clip980)" d="M486.898 238.323 Q485.092 242.953 483.379 244.365 Q481.666 245.777 478.796 245.777 L475.393 245.777 L475.393 242.212 L477.893 242.212 Q479.652 242.212 480.625 241.379 Q481.597 240.545 482.777 237.443 L483.541 235.499 L473.055 209.99 L477.569 209.99 L485.671 230.268 L493.773 209.99 L498.286 209.99 L486.898 238.323 Z" fill="#000000" fill-rule="nonzero" fill-opacity="1" /><path clip-path="url(#clip980)" d="M523.865 243.786 L523.865 247.096 L499.236 247.096 L499.236 243.786 L523.865 243.786 Z" fill="#000000" fill-rule="nonzero" fill-opacity="1" /><path clip-path="url(#clip980)" d="M532.083 202.629 L532.083 209.99 L540.856 209.99 L540.856 213.3 L532.083 213.3 L532.083 227.374 Q532.083 230.545 532.939 231.448 Q533.819 232.351 536.481 232.351 L540.856 232.351 L540.856 235.916 L536.481 235.916 Q531.55 235.916 529.675 234.087 Q527.8 232.235 527.8 227.374 L527.8 213.3 L524.675 213.3 L524.675 209.99 L527.8 209.99 L527.8 202.629 L532.083 202.629 Z" fill="#000000" fill-rule="nonzero" fill-opacity="1" /><path clip-path="url(#clip980)" d="M561.481 213.971 Q560.763 213.555 559.907 213.37 Q559.073 213.161 558.055 213.161 Q554.444 213.161 552.499 215.522 Q550.578 217.86 550.578 222.258 L550.578 235.916 L546.295 235.916 L546.295 209.99 L550.578 209.99 L550.578 214.018 Q551.92 211.657 554.073 210.522 Q556.226 209.365 559.305 209.365 Q559.744 209.365 560.277 209.434 Q560.809 209.481 561.457 209.596 L561.481 213.971 Z" fill="#000000" fill-rule="nonzero" fill-opacity="1" /><path clip-path="url(#clip980)" d="M577.73 222.883 Q572.568 222.883 570.578 224.064 Q568.587 225.244 568.587 228.092 Q568.587 230.36 570.069 231.703 Q571.573 233.022 574.143 233.022 Q577.684 233.022 579.814 230.522 Q581.967 227.999 581.967 223.832 L581.967 222.883 L577.73 222.883 M586.226 221.124 L586.226 235.916 L581.967 235.916 L581.967 231.981 Q580.508 234.342 578.332 235.476 Q576.156 236.587 573.008 236.587 Q569.027 236.587 566.666 234.365 Q564.328 232.119 564.328 228.369 Q564.328 223.994 567.244 221.772 Q570.184 219.55 575.994 219.55 L581.967 219.55 L581.967 219.133 Q581.967 216.194 580.022 214.596 Q578.101 212.976 574.606 212.976 Q572.383 212.976 570.277 213.508 Q568.17 214.041 566.226 215.106 L566.226 211.17 Q568.564 210.268 570.763 209.828 Q572.962 209.365 575.045 209.365 Q580.67 209.365 583.448 212.282 Q586.226 215.198 586.226 221.124 Z" fill="#000000" fill-rule="nonzero" fill-opacity="1" /><path clip-path="url(#clip980)" d="M594.999 209.99 L599.258 209.99 L599.258 235.916 L594.999 235.916 L594.999 209.99 M594.999 199.897 L599.258 199.897 L599.258 205.291 L594.999 205.291 L594.999 199.897 Z" fill="#000000" fill-rule="nonzero" fill-opacity="1" /><path clip-path="url(#clip980)" d="M629.721 220.268 L629.721 235.916 L625.462 235.916 L625.462 220.407 Q625.462 216.726 624.027 214.897 Q622.591 213.069 619.721 213.069 Q616.272 213.069 614.281 215.268 Q612.29 217.467 612.29 221.263 L612.29 235.916 L608.008 235.916 L608.008 209.99 L612.29 209.99 L612.29 214.018 Q613.818 211.68 615.878 210.522 Q617.962 209.365 620.67 209.365 Q625.138 209.365 627.429 212.143 Q629.721 214.897 629.721 220.268 Z" fill="#000000" fill-rule="nonzero" fill-opacity="1" /><path clip-path="url(#clip980)" d="M663.517 199.944 Q660.415 205.268 658.911 210.476 Q657.406 215.684 657.406 221.032 Q657.406 226.379 658.911 231.633 Q660.438 236.865 663.517 242.166 L659.813 242.166 Q656.341 236.726 654.605 231.471 Q652.892 226.217 652.892 221.032 Q652.892 215.87 654.605 210.638 Q656.318 205.407 659.813 199.944 L663.517 199.944 Z" fill="#000000" fill-rule="nonzero" fill-opacity="1" /><path clip-path="url(#clip980)" d="M671.781 199.897 L676.04 199.897 L676.04 235.916 L671.781 235.916 L671.781 199.897 Z" fill="#000000" fill-rule="nonzero" fill-opacity="1" /><path clip-path="url(#clip980)" d="M696.734 222.883 Q691.572 222.883 689.582 224.064 Q687.591 225.244 687.591 228.092 Q687.591 230.36 689.072 231.703 Q690.577 233.022 693.147 233.022 Q696.688 233.022 698.818 230.522 Q700.971 227.999 700.971 223.832 L700.971 222.883 L696.734 222.883 M705.23 221.124 L705.23 235.916 L700.971 235.916 L700.971 231.981 Q699.512 234.342 697.336 235.476 Q695.16 236.587 692.012 236.587 Q688.031 236.587 685.67 234.365 Q683.332 232.119 683.332 228.369 Q683.332 223.994 686.248 221.772 Q689.188 219.55 694.998 219.55 L700.971 219.55 L700.971 219.133 Q700.971 216.194 699.026 214.596 Q697.105 212.976 693.61 212.976 Q691.387 212.976 689.281 213.508 Q687.174 214.041 685.23 215.106 L685.23 211.17 Q687.568 210.268 689.767 209.828 Q691.966 209.365 694.049 209.365 Q699.674 209.365 702.452 212.282 Q705.23 215.198 705.23 221.124 Z" fill="#000000" fill-rule="nonzero" fill-opacity="1" /><path clip-path="url(#clip980)" d="M730.531 210.754 L730.531 214.782 Q728.725 213.856 726.781 213.393 Q724.836 212.93 722.753 212.93 Q719.582 212.93 717.984 213.902 Q716.41 214.874 716.41 216.819 Q716.41 218.3 717.545 219.157 Q718.679 219.99 722.105 220.754 L723.563 221.078 Q728.1 222.05 729.998 223.832 Q731.919 225.592 731.919 228.763 Q731.919 232.374 729.049 234.481 Q726.202 236.587 721.202 236.587 Q719.119 236.587 716.85 236.17 Q714.605 235.777 712.105 234.967 L712.105 230.569 Q714.466 231.795 716.758 232.42 Q719.049 233.022 721.295 233.022 Q724.304 233.022 725.924 232.004 Q727.545 230.962 727.545 229.087 Q727.545 227.351 726.364 226.425 Q725.207 225.499 721.248 224.643 L719.767 224.295 Q715.808 223.462 714.049 221.749 Q712.29 220.013 712.29 217.004 Q712.29 213.346 714.883 211.356 Q717.475 209.365 722.244 209.365 Q724.605 209.365 726.688 209.712 Q728.771 210.059 730.531 210.754 Z" fill="#000000" fill-rule="nonzero" fill-opacity="1" /><path clip-path="url(#clip980)" d="M742.915 202.629 L742.915 209.99 L751.688 209.99 L751.688 213.3 L742.915 213.3 L742.915 227.374 Q742.915 230.545 743.771 231.448 Q744.651 232.351 747.313 232.351 L751.688 232.351 L751.688 235.916 L747.313 235.916 Q742.382 235.916 740.507 234.087 Q738.632 232.235 738.632 227.374 L738.632 213.3 L735.507 213.3 L735.507 209.99 L738.632 209.99 L738.632 202.629 L742.915 202.629 Z" fill="#000000" fill-rule="nonzero" fill-opacity="1" /><path clip-path="url(#clip980)" d="M773.007 201.356 L791.364 201.356 L791.364 205.291 L777.29 205.291 L777.29 213.763 Q778.308 213.416 779.327 213.254 Q780.345 213.069 781.364 213.069 Q787.151 213.069 790.53 216.24 Q793.91 219.411 793.91 224.828 Q793.91 230.406 790.438 233.508 Q786.965 236.587 780.646 236.587 Q778.47 236.587 776.202 236.217 Q773.956 235.846 771.549 235.106 L771.549 230.406 Q773.632 231.541 775.854 232.096 Q778.077 232.652 780.553 232.652 Q784.558 232.652 786.896 230.545 Q789.234 228.439 789.234 224.828 Q789.234 221.217 786.896 219.11 Q784.558 217.004 780.553 217.004 Q778.678 217.004 776.804 217.42 Q774.952 217.837 773.007 218.717 L773.007 201.356 Z" fill="#000000" fill-rule="nonzero" fill-opacity="1" /><path clip-path="url(#clip980)" d="M813.123 204.434 Q809.512 204.434 807.683 207.999 Q805.877 211.541 805.877 218.67 Q805.877 225.777 807.683 229.342 Q809.512 232.883 813.123 232.883 Q816.757 232.883 818.563 229.342 Q820.391 225.777 820.391 218.67 Q820.391 211.541 818.563 207.999 Q816.757 204.434 813.123 204.434 M813.123 200.731 Q818.933 200.731 821.988 205.337 Q825.067 209.92 825.067 218.67 Q825.067 227.397 821.988 232.004 Q818.933 236.587 813.123 236.587 Q807.313 236.587 804.234 232.004 Q801.178 227.397 801.178 218.67 Q801.178 209.92 804.234 205.337 Q807.313 200.731 813.123 200.731 Z" fill="#000000" fill-rule="nonzero" fill-opacity="1" /><path clip-path="url(#clip980)" d="M832.012 199.944 L835.715 199.944 Q839.187 205.407 840.9 210.638 Q842.636 215.87 842.636 221.032 Q842.636 226.217 840.9 231.471 Q839.187 236.726 835.715 242.166 L832.012 242.166 Q835.09 236.865 836.595 231.633 Q838.123 226.379 838.123 221.032 Q838.123 215.684 836.595 210.476 Q835.09 205.268 832.012 199.944 Z" fill="#000000" fill-rule="nonzero" fill-opacity="1" /><polyline clip-path="url(#clip980)" style="stroke:#ff0000; stroke-linecap:round; stroke-linejoin:round; stroke-width:8; stroke-opacity:1; fill:none" points="306.499,270.476 449.261,270.476 "/>
<path clip-path="url(#clip980)" d="M473.055 253.196 L492.916 253.196 L492.916 257.131 L477.731 257.131 L477.731 267.316 L491.435 267.316 L491.435 271.251 L477.731 271.251 L477.731 287.756 L473.055 287.756 L473.055 253.196 Z" fill="#000000" fill-rule="nonzero" fill-opacity="1" /><path clip-path="url(#clip980)" d="M508.495 264.816 Q505.069 264.816 503.078 267.501 Q501.087 270.163 501.087 274.816 Q501.087 279.469 503.055 282.154 Q505.046 284.816 508.495 284.816 Q511.898 284.816 513.888 282.131 Q515.879 279.446 515.879 274.816 Q515.879 270.21 513.888 267.524 Q511.898 264.816 508.495 264.816 M508.495 261.205 Q514.05 261.205 517.222 264.816 Q520.393 268.427 520.393 274.816 Q520.393 281.182 517.222 284.816 Q514.05 288.427 508.495 288.427 Q502.916 288.427 499.745 284.816 Q496.597 281.182 496.597 274.816 Q496.597 268.427 499.745 264.816 Q502.916 261.205 508.495 261.205 Z" fill="#000000" fill-rule="nonzero" fill-opacity="1" /><path clip-path="url(#clip980)" d="M542.476 265.811 Q541.758 265.395 540.902 265.21 Q540.069 265.001 539.05 265.001 Q535.439 265.001 533.495 267.362 Q531.573 269.7 531.573 274.098 L531.573 287.756 L527.291 287.756 L527.291 261.83 L531.573 261.83 L531.573 265.858 Q532.916 263.497 535.069 262.362 Q537.221 261.205 540.3 261.205 Q540.74 261.205 541.272 261.274 Q541.805 261.321 542.453 261.436 L542.476 265.811 Z" fill="#000000" fill-rule="nonzero" fill-opacity="1" /><path clip-path="url(#clip980)" d="M568.078 273.728 L568.078 275.811 L548.495 275.811 Q548.772 280.209 551.133 282.524 Q553.518 284.816 557.754 284.816 Q560.207 284.816 562.499 284.214 Q564.814 283.612 567.082 282.409 L567.082 286.436 Q564.791 287.408 562.383 287.918 Q559.976 288.427 557.499 288.427 Q551.295 288.427 547.661 284.816 Q544.05 281.205 544.05 275.047 Q544.05 268.682 547.476 264.955 Q550.925 261.205 556.758 261.205 Q561.99 261.205 565.022 264.585 Q568.078 267.941 568.078 273.728 M563.819 272.478 Q563.772 268.983 561.851 266.899 Q559.953 264.816 556.805 264.816 Q553.24 264.816 551.087 266.83 Q548.958 268.844 548.633 272.501 L563.819 272.478 Z" fill="#000000" fill-rule="nonzero" fill-opacity="1" /><path clip-path="url(#clip980)" d="M593.726 262.825 L593.726 266.807 Q591.92 265.811 590.092 265.325 Q588.286 264.816 586.434 264.816 Q582.291 264.816 579.999 267.455 Q577.707 270.071 577.707 274.816 Q577.707 279.561 579.999 282.2 Q582.291 284.816 586.434 284.816 Q588.286 284.816 590.092 284.33 Q591.92 283.821 593.726 282.825 L593.726 286.76 Q591.943 287.594 590.022 288.01 Q588.124 288.427 585.971 288.427 Q580.115 288.427 576.666 284.746 Q573.217 281.066 573.217 274.816 Q573.217 268.473 576.689 264.839 Q580.184 261.205 586.249 261.205 Q588.217 261.205 590.092 261.622 Q591.967 262.015 593.726 262.825 Z" fill="#000000" fill-rule="nonzero" fill-opacity="1" /><path clip-path="url(#clip980)" d="M612.915 274.723 Q607.753 274.723 605.763 275.904 Q603.772 277.084 603.772 279.932 Q603.772 282.2 605.253 283.543 Q606.758 284.862 609.328 284.862 Q612.869 284.862 614.999 282.362 Q617.152 279.839 617.152 275.672 L617.152 274.723 L612.915 274.723 M621.411 272.964 L621.411 287.756 L617.152 287.756 L617.152 283.821 Q615.693 286.182 613.517 287.316 Q611.341 288.427 608.193 288.427 Q604.212 288.427 601.851 286.205 Q599.513 283.959 599.513 280.209 Q599.513 275.834 602.429 273.612 Q605.369 271.39 611.179 271.39 L617.152 271.39 L617.152 270.973 Q617.152 268.034 615.207 266.436 Q613.286 264.816 609.791 264.816 Q607.568 264.816 605.462 265.348 Q603.355 265.881 601.411 266.946 L601.411 263.01 Q603.749 262.108 605.948 261.668 Q608.147 261.205 610.23 261.205 Q615.855 261.205 618.633 264.122 Q621.411 267.038 621.411 272.964 Z" fill="#000000" fill-rule="nonzero" fill-opacity="1" /><path clip-path="url(#clip980)" d="M646.712 262.594 L646.712 266.622 Q644.906 265.696 642.962 265.233 Q641.017 264.77 638.934 264.77 Q635.763 264.77 634.165 265.742 Q632.591 266.714 632.591 268.659 Q632.591 270.14 633.726 270.997 Q634.86 271.83 638.286 272.594 L639.744 272.918 Q644.281 273.89 646.179 275.672 Q648.1 277.432 648.1 280.603 Q648.1 284.214 645.23 286.321 Q642.383 288.427 637.383 288.427 Q635.3 288.427 633.031 288.01 Q630.786 287.617 628.286 286.807 L628.286 282.409 Q630.647 283.635 632.939 284.26 Q635.23 284.862 637.476 284.862 Q640.485 284.862 642.105 283.844 Q643.726 282.802 643.726 280.927 Q643.726 279.191 642.545 278.265 Q641.388 277.339 637.429 276.483 L635.948 276.135 Q631.989 275.302 630.23 273.589 Q628.471 271.853 628.471 268.844 Q628.471 265.186 631.064 263.196 Q633.656 261.205 638.425 261.205 Q640.786 261.205 642.869 261.552 Q644.952 261.899 646.712 262.594 Z" fill="#000000" fill-rule="nonzero" fill-opacity="1" /><path clip-path="url(#clip980)" d="M659.096 254.469 L659.096 261.83 L667.869 261.83 L667.869 265.14 L659.096 265.14 L659.096 279.214 Q659.096 282.385 659.952 283.288 Q660.832 284.191 663.494 284.191 L667.869 284.191 L667.869 287.756 L663.494 287.756 Q658.563 287.756 656.688 285.927 Q654.813 284.075 654.813 279.214 L654.813 265.14 L651.688 265.14 L651.688 261.83 L654.813 261.83 L654.813 254.469 L659.096 254.469 Z" fill="#000000" fill-rule="nonzero" fill-opacity="1" /><polyline clip-path="url(#clip980)" style="stroke:#ff0000; stroke-linecap:round; stroke-linejoin:round; stroke-width:8; stroke-opacity:0.3; fill:none" stroke-dasharray="32, 20" points="306.499,322.316 449.261,322.316 "/>
<path clip-path="url(#clip980)" d="M473.055 305.036 L477.731 305.036 L477.731 335.661 L494.56 335.661 L494.56 339.596 L473.055 339.596 L473.055 305.036 Z" fill="#000000" fill-rule="nonzero" fill-opacity="1" /><path clip-path="url(#clip980)" d="M508.495 316.656 Q505.069 316.656 503.078 319.341 Q501.087 322.003 501.087 326.656 Q501.087 331.309 503.055 333.994 Q505.046 336.656 508.495 336.656 Q511.898 336.656 513.888 333.971 Q515.879 331.286 515.879 326.656 Q515.879 322.05 513.888 319.364 Q511.898 316.656 508.495 316.656 M508.495 313.045 Q514.05 313.045 517.222 316.656 Q520.393 320.267 520.393 326.656 Q520.393 333.022 517.222 336.656 Q514.05 340.267 508.495 340.267 Q502.916 340.267 499.745 336.656 Q496.597 333.022 496.597 326.656 Q496.597 320.267 499.745 316.656 Q502.916 313.045 508.495 313.045 Z" fill="#000000" fill-rule="nonzero" fill-opacity="1" /><path clip-path="url(#clip980)" d="M524.976 313.67 L529.235 313.67 L534.559 333.901 L539.86 313.67 L544.883 313.67 L550.207 333.901 L555.508 313.67 L559.768 313.67 L552.985 339.596 L547.962 339.596 L542.383 318.346 L536.782 339.596 L531.759 339.596 L524.976 313.67 Z" fill="#000000" fill-rule="nonzero" fill-opacity="1" /><path clip-path="url(#clip980)" d="M588.402 325.568 L588.402 327.651 L568.819 327.651 Q569.096 332.049 571.457 334.364 Q573.842 336.656 578.078 336.656 Q580.531 336.656 582.823 336.054 Q585.138 335.452 587.406 334.249 L587.406 338.276 Q585.115 339.248 582.707 339.758 Q580.3 340.267 577.823 340.267 Q571.619 340.267 567.985 336.656 Q564.374 333.045 564.374 326.887 Q564.374 320.522 567.8 316.795 Q571.249 313.045 577.082 313.045 Q582.314 313.045 585.346 316.425 Q588.402 319.781 588.402 325.568 M584.143 324.318 Q584.096 320.823 582.175 318.739 Q580.277 316.656 577.129 316.656 Q573.564 316.656 571.411 318.67 Q569.281 320.684 568.957 324.341 L584.143 324.318 Z" fill="#000000" fill-rule="nonzero" fill-opacity="1" /><path clip-path="url(#clip980)" d="M610.416 317.651 Q609.698 317.235 608.841 317.05 Q608.008 316.841 606.99 316.841 Q603.379 316.841 601.434 319.202 Q599.513 321.54 599.513 325.938 L599.513 339.596 L595.23 339.596 L595.23 313.67 L599.513 313.67 L599.513 317.698 Q600.855 315.337 603.008 314.202 Q605.161 313.045 608.24 313.045 Q608.679 313.045 609.212 313.114 Q609.744 313.161 610.392 313.276 L610.416 317.651 Z" fill="#000000" fill-rule="nonzero" fill-opacity="1" /><path clip-path="url(#clip980)" d="M630.693 338.878 L630.693 334.619 Q632.452 335.452 634.258 335.892 Q636.064 336.332 637.8 336.332 Q642.429 336.332 644.86 333.23 Q647.313 330.105 647.661 323.762 Q646.318 325.753 644.258 326.818 Q642.198 327.883 639.698 327.883 Q634.513 327.883 631.48 324.758 Q628.471 321.61 628.471 316.17 Q628.471 310.846 631.619 307.628 Q634.767 304.411 639.999 304.411 Q645.994 304.411 649.142 309.017 Q652.313 313.6 652.313 322.35 Q652.313 330.522 648.425 335.406 Q644.559 340.267 638.008 340.267 Q636.249 340.267 634.443 339.92 Q632.638 339.573 630.693 338.878 M639.999 324.225 Q643.147 324.225 644.976 322.073 Q646.827 319.92 646.827 316.17 Q646.827 312.443 644.976 310.29 Q643.147 308.114 639.999 308.114 Q636.851 308.114 634.999 310.29 Q633.17 312.443 633.17 316.17 Q633.17 319.92 634.999 322.073 Q636.851 324.225 639.999 324.225 Z" fill="#000000" fill-rule="nonzero" fill-opacity="1" /><path clip-path="url(#clip980)" d="M660.762 305.036 L679.119 305.036 L679.119 308.971 L665.045 308.971 L665.045 317.443 Q666.063 317.096 667.082 316.934 Q668.1 316.749 669.119 316.749 Q674.906 316.749 678.286 319.92 Q681.665 323.091 681.665 328.508 Q681.665 334.086 678.193 337.188 Q674.721 340.267 668.401 340.267 Q666.225 340.267 663.957 339.897 Q661.712 339.526 659.304 338.786 L659.304 334.086 Q661.387 335.221 663.61 335.776 Q665.832 336.332 668.309 336.332 Q672.313 336.332 674.651 334.225 Q676.989 332.119 676.989 328.508 Q676.989 324.897 674.651 322.79 Q672.313 320.684 668.309 320.684 Q666.434 320.684 664.559 321.1 Q662.707 321.517 660.762 322.397 L660.762 305.036 Z" fill="#000000" fill-rule="nonzero" fill-opacity="1" /><path clip-path="url(#clip980)" d="M720.276 324.387 Q718.262 324.387 717.105 326.1 Q715.97 327.813 715.97 330.869 Q715.97 333.878 717.105 335.614 Q718.262 337.327 720.276 337.327 Q722.244 337.327 723.378 335.614 Q724.535 333.878 724.535 330.869 Q724.535 327.837 723.378 326.124 Q722.244 324.387 720.276 324.387 M720.276 321.448 Q723.933 321.448 726.086 323.994 Q728.239 326.54 728.239 330.869 Q728.239 335.198 726.063 337.744 Q723.91 340.267 720.276 340.267 Q716.572 340.267 714.42 337.744 Q712.267 335.198 712.267 330.869 Q712.267 326.517 714.42 323.994 Q716.595 321.448 720.276 321.448 M696.387 307.351 Q694.397 307.351 693.239 309.087 Q692.105 310.8 692.105 313.809 Q692.105 316.864 693.239 318.577 Q694.373 320.29 696.387 320.29 Q698.401 320.29 699.535 318.577 Q700.693 316.864 700.693 313.809 Q700.693 310.823 699.535 309.087 Q698.378 307.351 696.387 307.351 M717.29 304.411 L720.994 304.411 L699.373 340.267 L695.67 340.267 L717.29 304.411 M696.387 304.411 Q700.045 304.411 702.221 306.957 Q704.396 309.48 704.396 313.809 Q704.396 318.184 702.221 320.707 Q700.068 323.23 696.387 323.23 Q692.707 323.23 690.554 320.707 Q688.424 318.161 688.424 313.809 Q688.424 309.503 690.577 306.957 Q692.73 304.411 696.387 304.411 Z" fill="#000000" fill-rule="nonzero" fill-opacity="1" /><polyline clip-path="url(#clip980)" style="stroke:#ff0000; stroke-linecap:round; stroke-linejoin:round; stroke-width:8; stroke-opacity:0.3; fill:none" stroke-dasharray="32, 20" points="306.499,374.156 449.261,374.156 "/>
<path clip-path="url(#clip980)" d="M473.055 356.876 L477.754 356.876 L477.754 377.871 Q477.754 383.427 479.768 385.88 Q481.782 388.311 486.296 388.311 Q490.787 388.311 492.8 385.88 Q494.814 383.427 494.814 377.871 L494.814 356.876 L499.513 356.876 L499.513 378.45 Q499.513 385.209 496.157 388.658 Q492.824 392.107 486.296 392.107 Q479.745 392.107 476.388 388.658 Q473.055 385.209 473.055 378.45 L473.055 356.876 Z" fill="#000000" fill-rule="nonzero" fill-opacity="1" /><path clip-path="url(#clip980)" d="M512.222 387.547 L512.222 401.297 L507.939 401.297 L507.939 365.51 L512.222 365.51 L512.222 369.445 Q513.564 367.13 515.601 366.019 Q517.661 364.885 520.509 364.885 Q525.231 364.885 528.171 368.635 Q531.134 372.385 531.134 378.496 Q531.134 384.607 528.171 388.357 Q525.231 392.107 520.509 392.107 Q517.661 392.107 515.601 390.996 Q513.564 389.862 512.222 387.547 M526.712 378.496 Q526.712 373.797 524.768 371.135 Q522.847 368.45 519.467 368.45 Q516.087 368.45 514.143 371.135 Q512.222 373.797 512.222 378.496 Q512.222 383.195 514.143 385.88 Q516.087 388.542 519.467 388.542 Q522.847 388.542 524.768 385.88 Q526.712 383.195 526.712 378.496 Z" fill="#000000" fill-rule="nonzero" fill-opacity="1" /><path clip-path="url(#clip980)" d="M542.314 387.547 L542.314 401.297 L538.032 401.297 L538.032 365.51 L542.314 365.51 L542.314 369.445 Q543.657 367.13 545.694 366.019 Q547.754 364.885 550.601 364.885 Q555.323 364.885 558.263 368.635 Q561.226 372.385 561.226 378.496 Q561.226 384.607 558.263 388.357 Q555.323 392.107 550.601 392.107 Q547.754 392.107 545.694 390.996 Q543.657 389.862 542.314 387.547 M556.805 378.496 Q556.805 373.797 554.86 371.135 Q552.939 368.45 549.559 368.45 Q546.18 368.45 544.235 371.135 Q542.314 373.797 542.314 378.496 Q542.314 383.195 544.235 385.88 Q546.18 388.542 549.559 388.542 Q552.939 388.542 554.86 385.88 Q556.805 383.195 556.805 378.496 Z" fill="#000000" fill-rule="nonzero" fill-opacity="1" /><path clip-path="url(#clip980)" d="M590.462 377.408 L590.462 379.491 L570.879 379.491 Q571.156 383.889 573.518 386.204 Q575.902 388.496 580.138 388.496 Q582.592 388.496 584.883 387.894 Q587.198 387.292 589.467 386.089 L589.467 390.116 Q587.175 391.088 584.767 391.598 Q582.36 392.107 579.883 392.107 Q573.68 392.107 570.045 388.496 Q566.434 384.885 566.434 378.727 Q566.434 372.362 569.86 368.635 Q573.309 364.885 579.143 364.885 Q584.374 364.885 587.406 368.265 Q590.462 371.621 590.462 377.408 M586.203 376.158 Q586.156 372.663 584.235 370.579 Q582.337 368.496 579.189 368.496 Q575.624 368.496 573.471 370.51 Q571.342 372.524 571.018 376.181 L586.203 376.158 Z" fill="#000000" fill-rule="nonzero" fill-opacity="1" /><path clip-path="url(#clip980)" d="M612.476 369.491 Q611.758 369.075 610.902 368.89 Q610.068 368.681 609.05 368.681 Q605.439 368.681 603.494 371.042 Q601.573 373.38 601.573 377.778 L601.573 391.436 L597.291 391.436 L597.291 365.51 L601.573 365.51 L601.573 369.538 Q602.916 367.177 605.068 366.042 Q607.221 364.885 610.3 364.885 Q610.74 364.885 611.272 364.954 Q611.804 365.001 612.453 365.116 L612.476 369.491 Z" fill="#000000" fill-rule="nonzero" fill-opacity="1" /><path clip-path="url(#clip980)" d="M632.753 390.718 L632.753 386.459 Q634.513 387.292 636.318 387.732 Q638.124 388.172 639.86 388.172 Q644.489 388.172 646.92 385.07 Q649.374 381.945 649.721 375.602 Q648.378 377.593 646.318 378.658 Q644.258 379.723 641.758 379.723 Q636.573 379.723 633.54 376.598 Q630.531 373.45 630.531 368.01 Q630.531 362.686 633.679 359.468 Q636.827 356.251 642.059 356.251 Q648.054 356.251 651.202 360.857 Q654.374 365.44 654.374 374.19 Q654.374 382.362 650.485 387.246 Q646.619 392.107 640.068 392.107 Q638.309 392.107 636.503 391.76 Q634.698 391.413 632.753 390.718 M642.059 376.065 Q645.207 376.065 647.036 373.913 Q648.888 371.76 648.888 368.01 Q648.888 364.283 647.036 362.13 Q645.207 359.954 642.059 359.954 Q638.911 359.954 637.059 362.13 Q635.23 364.283 635.23 368.01 Q635.23 371.76 637.059 373.913 Q638.911 376.065 642.059 376.065 Z" fill="#000000" fill-rule="nonzero" fill-opacity="1" /><path clip-path="url(#clip980)" d="M662.823 356.876 L681.179 356.876 L681.179 360.811 L667.105 360.811 L667.105 369.283 Q668.124 368.936 669.142 368.774 Q670.161 368.589 671.179 368.589 Q676.966 368.589 680.346 371.76 Q683.725 374.931 683.725 380.348 Q683.725 385.926 680.253 389.028 Q676.781 392.107 670.461 392.107 Q668.286 392.107 666.017 391.737 Q663.772 391.366 661.364 390.626 L661.364 385.926 Q663.448 387.061 665.67 387.616 Q667.892 388.172 670.369 388.172 Q674.373 388.172 676.711 386.065 Q679.049 383.959 679.049 380.348 Q679.049 376.737 676.711 374.63 Q674.373 372.524 670.369 372.524 Q668.494 372.524 666.619 372.94 Q664.767 373.357 662.823 374.237 L662.823 356.876 Z" fill="#000000" fill-rule="nonzero" fill-opacity="1" /><path clip-path="url(#clip980)" d="M722.336 376.227 Q720.322 376.227 719.165 377.94 Q718.031 379.653 718.031 382.709 Q718.031 385.718 719.165 387.454 Q720.322 389.167 722.336 389.167 Q724.304 389.167 725.438 387.454 Q726.595 385.718 726.595 382.709 Q726.595 379.677 725.438 377.964 Q724.304 376.227 722.336 376.227 M722.336 373.288 Q725.994 373.288 728.146 375.834 Q730.299 378.38 730.299 382.709 Q730.299 387.038 728.123 389.584 Q725.97 392.107 722.336 392.107 Q718.633 392.107 716.48 389.584 Q714.327 387.038 714.327 382.709 Q714.327 378.357 716.48 375.834 Q718.656 373.288 722.336 373.288 M698.447 359.191 Q696.457 359.191 695.299 360.927 Q694.165 362.64 694.165 365.649 Q694.165 368.704 695.299 370.417 Q696.434 372.13 698.447 372.13 Q700.461 372.13 701.596 370.417 Q702.753 368.704 702.753 365.649 Q702.753 362.663 701.596 360.927 Q700.438 359.191 698.447 359.191 M719.35 356.251 L723.054 356.251 L701.434 392.107 L697.73 392.107 L719.35 356.251 M698.447 356.251 Q702.105 356.251 704.281 358.797 Q706.457 361.32 706.457 365.649 Q706.457 370.024 704.281 372.547 Q702.128 375.07 698.447 375.07 Q694.767 375.07 692.614 372.547 Q690.485 370.001 690.485 365.649 Q690.485 361.343 692.637 358.797 Q694.79 356.251 698.447 356.251 Z" fill="#000000" fill-rule="nonzero" fill-opacity="1" /></svg>
