<?xml version="1.0" encoding="utf-8"?>
<svg xmlns="http://www.w3.org/2000/svg" xmlns:xlink="http://www.w3.org/1999/xlink" width="800" height="500" viewBox="0 0 3200 2000">
<defs>
  <clipPath id="clip130">
    <rect x="0" y="0" width="3200" height="2000"/>
  </clipPath>
</defs>
<path clip-path="url(#clip130)" d="M0 2000 L3200 2000 L3200 0 L0 0  Z" fill="#ffffff" fill-rule="evenodd" fill-opacity="1"/>
<defs>
  <clipPath id="clip131">
    <rect x="640" y="0" width="2241" height="2000"/>
  </clipPath>
</defs>
<path clip-path="url(#clip130)" d="M262.72 824.31 L3152.76 824.31 L3152.76 119.692 L262.72 119.692  Z" fill="#ffffff" fill-rule="evenodd" fill-opacity="1"/>
<defs>
  <clipPath id="clip132">
    <rect x="262" y="119" width="2891" height="706"/>
  </clipPath>
</defs>
<polyline clip-path="url(#clip132)" style="stroke:#000000; stroke-linecap:round; stroke-linejoin:round; stroke-width:2; stroke-opacity:0.1; fill:none" points="471.141,824.31 471.141,119.692 "/>
<polyline clip-path="url(#clip132)" style="stroke:#000000; stroke-linecap:round; stroke-linejoin:round; stroke-width:2; stroke-opacity:0.1; fill:none" points="1089.44,824.31 1089.44,119.692 "/>
<polyline clip-path="url(#clip132)" style="stroke:#000000; stroke-linecap:round; stroke-linejoin:round; stroke-width:2; stroke-opacity:0.1; fill:none" points="1707.74,824.31 1707.74,119.692 "/>
<polyline clip-path="url(#clip132)" style="stroke:#000000; stroke-linecap:round; stroke-linejoin:round; stroke-width:2; stroke-opacity:0.1; fill:none" points="2326.04,824.31 2326.04,119.692 "/>
<polyline clip-path="url(#clip132)" style="stroke:#000000; stroke-linecap:round; stroke-linejoin:round; stroke-width:2; stroke-opacity:0.1; fill:none" points="2944.33,824.31 2944.33,119.692 "/>
<polyline clip-path="url(#clip132)" style="stroke:#000000; stroke-linecap:round; stroke-linejoin:round; stroke-width:2; stroke-opacity:0.1; fill:none" points="262.72,703.065 3152.76,703.065 "/>
<polyline clip-path="url(#clip132)" style="stroke:#000000; stroke-linecap:round; stroke-linejoin:round; stroke-width:2; stroke-opacity:0.1; fill:none" points="262.72,568.44 3152.76,568.44 "/>
<polyline clip-path="url(#clip132)" style="stroke:#000000; stroke-linecap:round; stroke-linejoin:round; stroke-width:2; stroke-opacity:0.1; fill:none" points="262.72,433.816 3152.76,433.816 "/>
<polyline clip-path="url(#clip132)" style="stroke:#000000; stroke-linecap:round; stroke-linejoin:round; stroke-width:2; stroke-opacity:0.1; fill:none" points="262.72,299.191 3152.76,299.191 "/>
<polyline clip-path="url(#clip132)" style="stroke:#000000; stroke-linecap:round; stroke-linejoin:round; stroke-width:2; stroke-opacity:0.1; fill:none" points="262.72,164.567 3152.76,164.567 "/>
<polyline clip-path="url(#clip130)" style="stroke:#000000; stroke-linecap:round; stroke-linejoin:round; stroke-width:4; stroke-opacity:1; fill:none" points="262.72,824.31 3152.76,824.31 "/>
<polyline clip-path="url(#clip130)" style="stroke:#000000; stroke-linecap:round; stroke-linejoin:round; stroke-width:4; stroke-opacity:1; fill:none" points="471.141,824.31 471.141,805.412 "/>
<polyline clip-path="url(#clip130)" style="stroke:#000000; stroke-linecap:round; stroke-linejoin:round; stroke-width:4; stroke-opacity:1; fill:none" points="1089.44,824.31 1089.44,805.412 "/>
<polyline clip-path="url(#clip130)" style="stroke:#000000; stroke-linecap:round; stroke-linejoin:round; stroke-width:4; stroke-opacity:1; fill:none" points="1707.74,824.31 1707.74,805.412 "/>
<polyline clip-path="url(#clip130)" style="stroke:#000000; stroke-linecap:round; stroke-linejoin:round; stroke-width:4; stroke-opacity:1; fill:none" points="2326.04,824.31 2326.04,805.412 "/>
<polyline clip-path="url(#clip130)" style="stroke:#000000; stroke-linecap:round; stroke-linejoin:round; stroke-width:4; stroke-opacity:1; fill:none" points="2944.33,824.31 2944.33,805.412 "/>
<path clip-path="url(#clip130)" d="M471.141 861.629 Q467.53 861.629 465.701 865.193 Q463.896 868.735 463.896 875.865 Q463.896 882.971 465.701 886.536 Q467.53 890.077 471.141 890.077 Q474.775 890.077 476.581 886.536 Q478.41 882.971 478.41 875.865 Q478.41 868.735 476.581 865.193 Q474.775 861.629 471.141 861.629 M471.141 857.925 Q476.951 857.925 480.007 862.531 Q483.086 867.115 483.086 875.865 Q483.086 884.591 480.007 889.198 Q476.951 893.781 471.141 893.781 Q465.331 893.781 462.252 889.198 Q459.197 884.591 459.197 875.865 Q459.197 867.115 462.252 862.531 Q465.331 857.925 471.141 857.925 Z" fill="#000000" fill-rule="nonzero" fill-opacity="1" /><path clip-path="url(#clip130)" d="M1079.72 858.55 L1098.07 858.55 L1098.07 862.485 L1084 862.485 L1084 870.957 Q1085.02 870.61 1086.04 870.448 Q1087.06 870.263 1088.07 870.263 Q1093.86 870.263 1097.24 873.434 Q1100.62 876.605 1100.62 882.022 Q1100.62 887.601 1097.15 890.702 Q1093.68 893.781 1087.36 893.781 Q1085.18 893.781 1082.91 893.411 Q1080.67 893.04 1078.26 892.3 L1078.26 887.601 Q1080.34 888.735 1082.56 889.29 Q1084.79 889.846 1087.26 889.846 Q1091.27 889.846 1093.61 887.74 Q1095.94 885.633 1095.94 882.022 Q1095.94 878.411 1093.61 876.304 Q1091.27 874.198 1087.26 874.198 Q1085.39 874.198 1083.51 874.615 Q1081.66 875.031 1079.72 875.911 L1079.72 858.55 Z" fill="#000000" fill-rule="nonzero" fill-opacity="1" /><path clip-path="url(#clip130)" d="M1682.43 889.175 L1690.06 889.175 L1690.06 862.809 L1681.75 864.476 L1681.75 860.217 L1690.02 858.55 L1694.69 858.55 L1694.69 889.175 L1702.33 889.175 L1702.33 893.11 L1682.43 893.11 L1682.43 889.175 Z" fill="#000000" fill-rule="nonzero" fill-opacity="1" /><path clip-path="url(#clip130)" d="M1721.78 861.629 Q1718.17 861.629 1716.34 865.193 Q1714.53 868.735 1714.53 875.865 Q1714.53 882.971 1716.34 886.536 Q1718.17 890.077 1721.78 890.077 Q1725.41 890.077 1727.22 886.536 Q1729.05 882.971 1729.05 875.865 Q1729.05 868.735 1727.22 865.193 Q1725.41 861.629 1721.78 861.629 M1721.78 857.925 Q1727.59 857.925 1730.64 862.531 Q1733.72 867.115 1733.72 875.865 Q1733.72 884.591 1730.64 889.198 Q1727.59 893.781 1721.78 893.781 Q1715.97 893.781 1712.89 889.198 Q1709.83 884.591 1709.83 875.865 Q1709.83 867.115 1712.89 862.531 Q1715.97 857.925 1721.78 857.925 Z" fill="#000000" fill-rule="nonzero" fill-opacity="1" /><path clip-path="url(#clip130)" d="M2301.22 889.175 L2308.86 889.175 L2308.86 862.809 L2300.55 864.476 L2300.55 860.217 L2308.81 858.55 L2313.49 858.55 L2313.49 889.175 L2321.13 889.175 L2321.13 893.11 L2301.22 893.11 L2301.22 889.175 Z" fill="#000000" fill-rule="nonzero" fill-opacity="1" /><path clip-path="url(#clip130)" d="M2330.62 858.55 L2348.98 858.55 L2348.98 862.485 L2334.9 862.485 L2334.9 870.957 Q2335.92 870.61 2336.94 870.448 Q2337.96 870.263 2338.98 870.263 Q2344.76 870.263 2348.14 873.434 Q2351.52 876.605 2351.52 882.022 Q2351.52 887.601 2348.05 890.702 Q2344.58 893.781 2338.26 893.781 Q2336.08 893.781 2333.81 893.411 Q2331.57 893.04 2329.16 892.3 L2329.16 887.601 Q2331.24 888.735 2333.47 889.29 Q2335.69 889.846 2338.17 889.846 Q2342.17 889.846 2344.51 887.74 Q2346.85 885.633 2346.85 882.022 Q2346.85 878.411 2344.51 876.304 Q2342.17 874.198 2338.17 874.198 Q2336.29 874.198 2334.42 874.615 Q2332.56 875.031 2330.62 875.911 L2330.62 858.55 Z" fill="#000000" fill-rule="nonzero" fill-opacity="1" /><path clip-path="url(#clip130)" d="M2923.11 889.175 L2939.43 889.175 L2939.43 893.11 L2917.48 893.11 L2917.48 889.175 Q2920.15 886.42 2924.73 881.79 Q2929.33 877.138 2930.52 875.795 Q2932.76 873.272 2933.64 871.536 Q2934.54 869.777 2934.54 868.087 Q2934.54 865.332 2932.6 863.596 Q2930.68 861.86 2927.58 861.86 Q2925.38 861.86 2922.92 862.624 Q2920.49 863.388 2917.71 864.939 L2917.71 860.217 Q2920.54 859.082 2922.99 858.504 Q2925.45 857.925 2927.48 857.925 Q2932.85 857.925 2936.05 860.61 Q2939.24 863.295 2939.24 867.786 Q2939.24 869.916 2938.43 871.837 Q2937.65 873.735 2935.54 876.328 Q2934.96 876.999 2931.86 880.216 Q2928.76 883.411 2923.11 889.175 Z" fill="#000000" fill-rule="nonzero" fill-opacity="1" /><path clip-path="url(#clip130)" d="M2959.24 861.629 Q2955.63 861.629 2953.8 865.193 Q2952 868.735 2952 875.865 Q2952 882.971 2953.8 886.536 Q2955.63 890.077 2959.24 890.077 Q2962.88 890.077 2964.68 886.536 Q2966.51 882.971 2966.51 875.865 Q2966.51 868.735 2964.68 865.193 Q2962.88 861.629 2959.24 861.629 M2959.24 857.925 Q2965.05 857.925 2968.11 862.531 Q2971.19 867.115 2971.19 875.865 Q2971.19 884.591 2968.11 889.198 Q2965.05 893.781 2959.24 893.781 Q2953.43 893.781 2950.35 889.198 Q2947.3 884.591 2947.3 875.865 Q2947.3 867.115 2950.35 862.531 Q2953.43 857.925 2959.24 857.925 Z" fill="#000000" fill-rule="nonzero" fill-opacity="1" /><path clip-path="url(#clip130)" d="M1655.08 933.654 L1661.51 933.654 L1661.51 975.763 L1684.65 975.763 L1684.65 981.174 L1655.08 981.174 L1655.08 933.654 Z" fill="#000000" fill-rule="nonzero" fill-opacity="1" /><path clip-path="url(#clip130)" d="M1707.34 963.254 Q1700.24 963.254 1697.51 964.878 Q1694.77 966.501 1694.77 970.416 Q1694.77 973.535 1696.8 975.381 Q1698.87 977.195 1702.41 977.195 Q1707.28 977.195 1710.2 973.758 Q1713.16 970.288 1713.16 964.559 L1713.16 963.254 L1707.34 963.254 M1719.02 960.835 L1719.02 981.174 L1713.16 981.174 L1713.16 975.763 Q1711.16 979.01 1708.17 980.569 Q1705.18 982.097 1700.85 982.097 Q1695.37 982.097 1692.13 979.041 Q1688.91 975.954 1688.91 970.798 Q1688.91 964.782 1692.92 961.727 Q1696.96 958.671 1704.95 958.671 L1713.16 958.671 L1713.16 958.098 Q1713.16 954.056 1710.49 951.86 Q1707.85 949.632 1703.04 949.632 Q1699.99 949.632 1697.09 950.364 Q1694.19 951.096 1691.52 952.56 L1691.52 947.149 Q1694.74 945.908 1697.76 945.303 Q1700.78 944.667 1703.65 944.667 Q1711.38 944.667 1715.2 948.677 Q1719.02 952.687 1719.02 960.835 Z" fill="#000000" fill-rule="nonzero" fill-opacity="1" /><path clip-path="url(#clip130)" d="M1754.54 962.936 Q1754.54 956.57 1751.9 953.069 Q1749.29 949.568 1744.55 949.568 Q1739.84 949.568 1737.2 953.069 Q1734.59 956.57 1734.59 962.936 Q1734.59 969.27 1737.2 972.771 Q1739.84 976.272 1744.55 976.272 Q1749.29 976.272 1751.9 972.771 Q1754.54 969.27 1754.54 962.936 M1760.4 976.75 Q1760.4 985.853 1756.36 990.277 Q1752.31 994.733 1743.97 994.733 Q1740.89 994.733 1738.15 994.255 Q1735.41 993.81 1732.83 992.855 L1732.83 987.158 Q1735.41 988.558 1737.93 989.226 Q1740.44 989.895 1743.05 989.895 Q1748.81 989.895 1751.68 986.871 Q1754.54 983.879 1754.54 977.8 L1754.54 974.904 Q1752.73 978.055 1749.89 979.614 Q1747.06 981.174 1743.12 981.174 Q1736.56 981.174 1732.55 976.177 Q1728.54 971.18 1728.54 962.936 Q1728.54 954.661 1732.55 949.664 Q1736.56 944.667 1743.12 944.667 Q1747.06 944.667 1749.89 946.226 Q1752.73 947.786 1754.54 950.937 L1754.54 945.526 L1760.4 945.526 L1760.4 976.75 Z" fill="#000000" fill-rule="nonzero" fill-opacity="1" /><polyline clip-path="url(#clip130)" style="stroke:#000000; stroke-linecap:round; stroke-linejoin:round; stroke-width:4; stroke-opacity:1; fill:none" points="262.72,824.31 262.72,119.692 "/>
<polyline clip-path="url(#clip130)" style="stroke:#000000; stroke-linecap:round; stroke-linejoin:round; stroke-width:4; stroke-opacity:1; fill:none" points="262.72,703.065 281.618,703.065 "/>
<polyline clip-path="url(#clip130)" style="stroke:#000000; stroke-linecap:round; stroke-linejoin:round; stroke-width:4; stroke-opacity:1; fill:none" points="262.72,568.44 281.618,568.44 "/>
<polyline clip-path="url(#clip130)" style="stroke:#000000; stroke-linecap:round; stroke-linejoin:round; stroke-width:4; stroke-opacity:1; fill:none" points="262.72,433.816 281.618,433.816 "/>
<polyline clip-path="url(#clip130)" style="stroke:#000000; stroke-linecap:round; stroke-linejoin:round; stroke-width:4; stroke-opacity:1; fill:none" points="262.72,299.191 281.618,299.191 "/>
<polyline clip-path="url(#clip130)" style="stroke:#000000; stroke-linecap:round; stroke-linejoin:round; stroke-width:4; stroke-opacity:1; fill:none" points="262.72,164.567 281.618,164.567 "/>
<path clip-path="url(#clip130)" d="M108.424 703.516 L138.1 703.516 L138.1 707.451 L108.424 707.451 L108.424 703.516 Z" fill="#000000" fill-rule="nonzero" fill-opacity="1" /><path clip-path="url(#clip130)" d="M158.193 688.864 Q154.582 688.864 152.753 692.428 Q150.947 695.97 150.947 703.1 Q150.947 710.206 152.753 713.771 Q154.582 717.312 158.193 717.312 Q161.827 717.312 163.632 713.771 Q165.461 710.206 165.461 703.1 Q165.461 695.97 163.632 692.428 Q161.827 688.864 158.193 688.864 M158.193 685.16 Q164.003 685.16 167.058 689.766 Q170.137 694.35 170.137 703.1 Q170.137 711.826 167.058 716.433 Q164.003 721.016 158.193 721.016 Q152.383 721.016 149.304 716.433 Q146.248 711.826 146.248 703.1 Q146.248 694.35 149.304 689.766 Q152.383 685.16 158.193 685.16 Z" fill="#000000" fill-rule="nonzero" fill-opacity="1" /><path clip-path="url(#clip130)" d="M178.355 714.465 L183.239 714.465 L183.239 720.345 L178.355 720.345 L178.355 714.465 Z" fill="#000000" fill-rule="nonzero" fill-opacity="1" /><path clip-path="url(#clip130)" d="M207.591 701.711 Q210.947 702.428 212.822 704.697 Q214.72 706.965 214.72 710.299 Q214.72 715.414 211.202 718.215 Q207.683 721.016 201.202 721.016 Q199.026 721.016 196.711 720.576 Q194.419 720.16 191.966 719.303 L191.966 714.789 Q193.91 715.924 196.225 716.502 Q198.54 717.081 201.063 717.081 Q205.461 717.081 207.753 715.345 Q210.067 713.609 210.067 710.299 Q210.067 707.243 207.915 705.53 Q205.785 703.794 201.966 703.794 L197.938 703.794 L197.938 699.951 L202.151 699.951 Q205.6 699.951 207.429 698.586 Q209.257 697.197 209.257 694.604 Q209.257 691.942 207.359 690.53 Q205.484 689.095 201.966 689.095 Q200.044 689.095 197.845 689.512 Q195.646 689.928 193.007 690.808 L193.007 686.641 Q195.669 685.901 197.984 685.53 Q200.322 685.16 202.382 685.16 Q207.706 685.16 210.808 687.59 Q213.91 689.998 213.91 694.118 Q213.91 696.988 212.266 698.979 Q210.623 700.947 207.591 701.711 Z" fill="#000000" fill-rule="nonzero" fill-opacity="1" /><path clip-path="url(#clip130)" d="M157.545 554.239 Q153.933 554.239 152.105 557.804 Q150.299 561.345 150.299 568.475 Q150.299 575.582 152.105 579.146 Q153.933 582.688 157.545 582.688 Q161.179 582.688 162.984 579.146 Q164.813 575.582 164.813 568.475 Q164.813 561.345 162.984 557.804 Q161.179 554.239 157.545 554.239 M157.545 550.535 Q163.355 550.535 166.41 555.142 Q169.489 559.725 169.489 568.475 Q169.489 577.202 166.41 581.808 Q163.355 586.392 157.545 586.392 Q151.734 586.392 148.656 581.808 Q145.6 577.202 145.6 568.475 Q145.6 559.725 148.656 555.142 Q151.734 550.535 157.545 550.535 Z" fill="#000000" fill-rule="nonzero" fill-opacity="1" /><path clip-path="url(#clip130)" d="M177.706 579.841 L182.591 579.841 L182.591 585.72 L177.706 585.72 L177.706 579.841 Z" fill="#000000" fill-rule="nonzero" fill-opacity="1" /><path clip-path="url(#clip130)" d="M202.776 554.239 Q199.165 554.239 197.336 557.804 Q195.53 561.345 195.53 568.475 Q195.53 575.582 197.336 579.146 Q199.165 582.688 202.776 582.688 Q206.41 582.688 208.216 579.146 Q210.044 575.582 210.044 568.475 Q210.044 561.345 208.216 557.804 Q206.41 554.239 202.776 554.239 M202.776 550.535 Q208.586 550.535 211.641 555.142 Q214.72 559.725 214.72 568.475 Q214.72 577.202 211.641 581.808 Q208.586 586.392 202.776 586.392 Q196.966 586.392 193.887 581.808 Q190.831 577.202 190.831 568.475 Q190.831 559.725 193.887 555.142 Q196.966 550.535 202.776 550.535 Z" fill="#000000" fill-rule="nonzero" fill-opacity="1" /><path clip-path="url(#clip130)" d="M158.193 419.615 Q154.582 419.615 152.753 423.179 Q150.947 426.721 150.947 433.851 Q150.947 440.957 152.753 444.522 Q154.582 448.063 158.193 448.063 Q161.827 448.063 163.632 444.522 Q165.461 440.957 165.461 433.851 Q165.461 426.721 163.632 423.179 Q161.827 419.615 158.193 419.615 M158.193 415.911 Q164.003 415.911 167.058 420.517 Q170.137 425.101 170.137 433.851 Q170.137 442.577 167.058 447.184 Q164.003 451.767 158.193 451.767 Q152.383 451.767 149.304 447.184 Q146.248 442.577 146.248 433.851 Q146.248 425.101 149.304 420.517 Q152.383 415.911 158.193 415.911 Z" fill="#000000" fill-rule="nonzero" fill-opacity="1" /><path clip-path="url(#clip130)" d="M178.355 445.216 L183.239 445.216 L183.239 451.096 L178.355 451.096 L178.355 445.216 Z" fill="#000000" fill-rule="nonzero" fill-opacity="1" /><path clip-path="url(#clip130)" d="M207.591 432.462 Q210.947 433.179 212.822 435.448 Q214.72 437.716 214.72 441.05 Q214.72 446.165 211.202 448.966 Q207.683 451.767 201.202 451.767 Q199.026 451.767 196.711 451.327 Q194.419 450.911 191.966 450.054 L191.966 445.54 Q193.91 446.675 196.225 447.253 Q198.54 447.832 201.063 447.832 Q205.461 447.832 207.753 446.096 Q210.067 444.36 210.067 441.05 Q210.067 437.994 207.915 436.281 Q205.785 434.545 201.966 434.545 L197.938 434.545 L197.938 430.702 L202.151 430.702 Q205.6 430.702 207.429 429.337 Q209.257 427.948 209.257 425.355 Q209.257 422.693 207.359 421.281 Q205.484 419.846 201.966 419.846 Q200.044 419.846 197.845 420.263 Q195.646 420.679 193.007 421.559 L193.007 417.392 Q195.669 416.652 197.984 416.281 Q200.322 415.911 202.382 415.911 Q207.706 415.911 210.808 418.341 Q213.91 420.749 213.91 424.869 Q213.91 427.74 212.266 429.73 Q210.623 431.698 207.591 432.462 Z" fill="#000000" fill-rule="nonzero" fill-opacity="1" /><path clip-path="url(#clip130)" d="M157.382 284.99 Q153.771 284.99 151.943 288.555 Q150.137 292.097 150.137 299.226 Q150.137 306.333 151.943 309.897 Q153.771 313.439 157.382 313.439 Q161.017 313.439 162.822 309.897 Q164.651 306.333 164.651 299.226 Q164.651 292.097 162.822 288.555 Q161.017 284.99 157.382 284.99 M157.382 281.286 Q163.193 281.286 166.248 285.893 Q169.327 290.476 169.327 299.226 Q169.327 307.953 166.248 312.559 Q163.193 317.143 157.382 317.143 Q151.572 317.143 148.494 312.559 Q145.438 307.953 145.438 299.226 Q145.438 290.476 148.494 285.893 Q151.572 281.286 157.382 281.286 Z" fill="#000000" fill-rule="nonzero" fill-opacity="1" /><path clip-path="url(#clip130)" d="M177.544 310.592 L182.429 310.592 L182.429 316.471 L177.544 316.471 L177.544 310.592 Z" fill="#000000" fill-rule="nonzero" fill-opacity="1" /><path clip-path="url(#clip130)" d="M203.192 297.328 Q200.044 297.328 198.192 299.481 Q196.364 301.634 196.364 305.384 Q196.364 309.11 198.192 311.286 Q200.044 313.439 203.192 313.439 Q206.341 313.439 208.169 311.286 Q210.021 309.11 210.021 305.384 Q210.021 301.634 208.169 299.481 Q206.341 297.328 203.192 297.328 M212.475 282.675 L212.475 286.935 Q210.716 286.101 208.91 285.661 Q207.128 285.222 205.368 285.222 Q200.739 285.222 198.285 288.347 Q195.854 291.472 195.507 297.791 Q196.873 295.777 198.933 294.712 Q200.993 293.624 203.47 293.624 Q208.679 293.624 211.688 296.796 Q214.72 299.944 214.72 305.384 Q214.72 310.708 211.572 313.925 Q208.424 317.143 203.192 317.143 Q197.197 317.143 194.026 312.559 Q190.855 307.953 190.855 299.226 Q190.855 291.032 194.743 286.171 Q198.632 281.286 205.183 281.286 Q206.942 281.286 208.725 281.634 Q210.53 281.981 212.475 282.675 Z" fill="#000000" fill-rule="nonzero" fill-opacity="1" /><path clip-path="url(#clip130)" d="M157.73 150.366 Q154.119 150.366 152.29 153.93 Q150.484 157.472 150.484 164.602 Q150.484 171.708 152.29 175.273 Q154.119 178.815 157.73 178.815 Q161.364 178.815 163.169 175.273 Q164.998 171.708 164.998 164.602 Q164.998 157.472 163.169 153.93 Q161.364 150.366 157.73 150.366 M157.73 146.662 Q163.54 146.662 166.595 151.268 Q169.674 155.852 169.674 164.602 Q169.674 173.328 166.595 177.935 Q163.54 182.518 157.73 182.518 Q151.92 182.518 148.841 177.935 Q145.785 173.328 145.785 164.602 Q145.785 155.852 148.841 151.268 Q151.92 146.662 157.73 146.662 Z" fill="#000000" fill-rule="nonzero" fill-opacity="1" /><path clip-path="url(#clip130)" d="M177.892 175.967 L182.776 175.967 L182.776 181.847 L177.892 181.847 L177.892 175.967 Z" fill="#000000" fill-rule="nonzero" fill-opacity="1" /><path clip-path="url(#clip130)" d="M193.1 181.129 L193.1 176.87 Q194.859 177.703 196.665 178.143 Q198.47 178.583 200.206 178.583 Q204.836 178.583 207.266 175.481 Q209.72 172.356 210.067 166.014 Q208.725 168.004 206.665 169.069 Q204.604 170.134 202.104 170.134 Q196.919 170.134 193.887 167.009 Q190.878 163.861 190.878 158.421 Q190.878 153.097 194.026 149.88 Q197.174 146.662 202.405 146.662 Q208.401 146.662 211.549 151.268 Q214.72 155.852 214.72 164.602 Q214.72 172.773 210.831 177.657 Q206.966 182.518 200.415 182.518 Q198.655 182.518 196.85 182.171 Q195.044 181.824 193.1 181.129 M202.405 166.477 Q205.554 166.477 207.382 164.324 Q209.234 162.171 209.234 158.421 Q209.234 154.694 207.382 152.542 Q205.554 150.366 202.405 150.366 Q199.257 150.366 197.405 152.542 Q195.577 154.694 195.577 158.421 Q195.577 162.171 197.405 164.324 Q199.257 166.477 202.405 166.477 Z" fill="#000000" fill-rule="nonzero" fill-opacity="1" /><path clip-path="url(#clip130)" d="M4.98229 511.309 L28.6309 520.03 L28.6309 502.556 L4.98229 511.309 M-1.35159 514.938 L-1.35159 507.649 L46.1684 489.539 L46.1684 496.222 L33.9781 500.551 L33.9781 521.972 L46.1684 526.3 L46.1684 533.08 L-1.35159 514.938 Z" fill="#000000" fill-rule="nonzero" fill-opacity="1" /><path clip-path="url(#clip130)" d="M2.30869 448.161 L9.08817 448.161 Q6.06446 451.408 4.56852 455.1 Q3.07258 458.76 3.07258 462.898 Q3.07258 471.046 8.06966 475.375 Q13.0349 479.703 22.4562 479.703 Q31.8456 479.703 36.8427 475.375 Q41.8079 471.046 41.8079 462.898 Q41.8079 458.76 40.312 455.1 Q38.816 451.408 35.7923 448.161 L42.5081 448.161 Q44.7998 451.535 45.9456 455.323 Q47.0914 459.079 47.0914 463.28 Q47.0914 474.07 40.5029 480.276 Q33.8826 486.483 22.4562 486.483 Q10.9979 486.483 4.40938 480.276 Q-2.21096 474.07 -2.21096 463.28 Q-2.21096 459.015 -1.06513 455.259 Q0.0488661 451.472 2.30869 448.161 Z" fill="#000000" fill-rule="nonzero" fill-opacity="1" /><path clip-path="url(#clip130)" d="M-1.35159 438.231 L-1.35159 410.922 L4.05926 410.922 L4.05926 431.802 L18.0638 431.802 L18.0638 412.959 L23.4747 412.959 L23.4747 431.802 L46.1684 431.802 L46.1684 438.231 L-1.35159 438.231 Z" fill="#000000" fill-rule="nonzero" fill-opacity="1" /><path clip-path="url(#clip130)" d="M1104.8 20.1573 L1093.7 50.2555 L1115.94 50.2555 L1104.8 20.1573 M1100.18 12.096 L1109.46 12.096 L1132.51 72.576 L1124 72.576 L1118.49 57.061 L1091.23 57.061 L1085.72 72.576 L1077.09 72.576 L1100.18 12.096 Z" fill="#000000" fill-rule="nonzero" fill-opacity="1" /><path clip-path="url(#clip130)" d="M1140.25 54.671 L1140.25 27.2059 L1147.7 27.2059 L1147.7 54.3874 Q1147.7 60.8284 1150.21 64.0691 Q1152.72 67.2693 1157.75 67.2693 Q1163.78 67.2693 1167.27 63.421 Q1170.79 59.5726 1170.79 52.9291 L1170.79 27.2059 L1178.24 27.2059 L1178.24 72.576 L1170.79 72.576 L1170.79 65.6084 Q1168.08 69.7404 1164.47 71.7658 Q1160.91 73.7508 1156.17 73.7508 Q1148.35 73.7508 1144.3 68.8897 Q1140.25 64.0286 1140.25 54.671 M1159 26.1121 L1159 26.1121 Z" fill="#000000" fill-rule="nonzero" fill-opacity="1" /><path clip-path="url(#clip130)" d="M1200.97 14.324 L1200.97 27.2059 L1216.32 27.2059 L1216.32 32.9987 L1200.97 32.9987 L1200.97 57.6282 Q1200.97 63.1779 1202.47 64.7578 Q1204.01 66.3376 1208.67 66.3376 L1216.32 66.3376 L1216.32 72.576 L1208.67 72.576 Q1200.04 72.576 1196.76 69.3758 Q1193.48 66.1351 1193.48 57.6282 L1193.48 32.9987 L1188.01 32.9987 L1188.01 27.2059 L1193.48 27.2059 L1193.48 14.324 L1200.97 14.324 Z" fill="#000000" fill-rule="nonzero" fill-opacity="1" /><path clip-path="url(#clip130)" d="M1243.71 32.4315 Q1237.71 32.4315 1234.23 37.1306 Q1230.74 41.7891 1230.74 49.9314 Q1230.74 58.0738 1234.19 62.7728 Q1237.67 67.4314 1243.71 67.4314 Q1249.66 67.4314 1253.15 62.7323 Q1256.63 58.0333 1256.63 49.9314 Q1256.63 41.8701 1253.15 37.1711 Q1249.66 32.4315 1243.71 32.4315 M1243.71 26.1121 Q1253.43 26.1121 1258.98 32.4315 Q1264.53 38.7509 1264.53 49.9314 Q1264.53 61.0714 1258.98 67.4314 Q1253.43 73.7508 1243.71 73.7508 Q1233.94 73.7508 1228.39 67.4314 Q1222.89 61.0714 1222.89 49.9314 Q1222.89 38.7509 1228.39 32.4315 Q1233.94 26.1121 1243.71 26.1121 Z" fill="#000000" fill-rule="nonzero" fill-opacity="1" /><path clip-path="url(#clip130)" d="M1309.53 28.9478 L1309.53 35.9153 Q1306.37 34.1734 1303.17 33.3227 Q1300.01 32.4315 1296.77 32.4315 Q1289.52 32.4315 1285.51 37.0496 Q1281.5 41.6271 1281.5 49.9314 Q1281.5 58.2358 1285.51 62.8538 Q1289.52 67.4314 1296.77 67.4314 Q1300.01 67.4314 1303.17 66.5807 Q1306.37 65.6895 1309.53 63.9476 L1309.53 70.8341 Q1306.41 72.2924 1303.05 73.0216 Q1299.73 73.7508 1295.96 73.7508 Q1285.71 73.7508 1279.68 67.3098 Q1273.64 60.8689 1273.64 49.9314 Q1273.64 38.832 1279.72 32.472 Q1285.84 26.1121 1296.45 26.1121 Q1299.89 26.1121 1303.17 26.8413 Q1306.46 27.5299 1309.53 28.9478 Z" fill="#000000" fill-rule="nonzero" fill-opacity="1" /><path clip-path="url(#clip130)" d="M1340.08 32.4315 Q1334.08 32.4315 1330.6 37.1306 Q1327.12 41.7891 1327.12 49.9314 Q1327.12 58.0738 1330.56 62.7728 Q1334.04 67.4314 1340.08 67.4314 Q1346.03 67.4314 1349.52 62.7323 Q1353 58.0333 1353 49.9314 Q1353 41.8701 1349.52 37.1711 Q1346.03 32.4315 1340.08 32.4315 M1340.08 26.1121 Q1349.8 26.1121 1355.35 32.4315 Q1360.9 38.7509 1360.9 49.9314 Q1360.9 61.0714 1355.35 67.4314 Q1349.8 73.7508 1340.08 73.7508 Q1330.32 73.7508 1324.77 67.4314 Q1319.26 61.0714 1319.26 49.9314 Q1319.26 38.7509 1324.77 32.4315 Q1330.32 26.1121 1340.08 26.1121 Z" fill="#000000" fill-rule="nonzero" fill-opacity="1" /><path clip-path="url(#clip130)" d="M1399.55 34.1734 Q1398.29 33.4443 1396.79 33.1202 Q1395.33 32.7556 1393.55 32.7556 Q1387.23 32.7556 1383.83 36.8875 Q1380.47 40.9789 1380.47 48.6757 L1380.47 72.576 L1372.97 72.576 L1372.97 27.2059 L1380.47 27.2059 L1380.47 34.2544 Q1382.81 30.1225 1386.58 28.1376 Q1390.35 26.1121 1395.74 26.1121 Q1396.51 26.1121 1397.44 26.2337 Q1398.37 26.3147 1399.5 26.5172 L1399.55 34.1734 Z" fill="#000000" fill-rule="nonzero" fill-opacity="1" /><path clip-path="url(#clip130)" d="M1432.2 34.1734 Q1430.94 33.4443 1429.44 33.1202 Q1427.98 32.7556 1426.2 32.7556 Q1419.88 32.7556 1416.48 36.8875 Q1413.12 40.9789 1413.12 48.6757 L1413.12 72.576 L1405.62 72.576 L1405.62 27.2059 L1413.12 27.2059 L1413.12 34.2544 Q1415.47 30.1225 1419.23 28.1376 Q1423 26.1121 1428.39 26.1121 Q1429.16 26.1121 1430.09 26.2337 Q1431.02 26.3147 1432.16 26.5172 L1432.2 34.1734 Z" fill="#000000" fill-rule="nonzero" fill-opacity="1" /><path clip-path="url(#clip130)" d="M1477 48.0275 L1477 51.6733 L1442.73 51.6733 Q1443.21 59.3701 1447.35 63.421 Q1451.52 67.4314 1458.93 67.4314 Q1463.23 67.4314 1467.24 66.3781 Q1471.29 65.3249 1475.26 63.2184 L1475.26 70.267 Q1471.25 71.9684 1467.03 72.8596 Q1462.82 73.7508 1458.49 73.7508 Q1447.63 73.7508 1441.27 67.4314 Q1434.95 61.1119 1434.95 50.3365 Q1434.95 39.1965 1440.95 32.6746 Q1446.98 26.1121 1457.19 26.1121 Q1466.34 26.1121 1471.65 32.0264 Q1477 37.9003 1477 48.0275 M1469.54 45.84 Q1469.46 39.7232 1466.1 36.0774 Q1462.78 32.4315 1457.27 32.4315 Q1451.03 32.4315 1447.26 35.9558 Q1443.54 39.4801 1442.97 45.8805 L1469.54 45.84 Z" fill="#000000" fill-rule="nonzero" fill-opacity="1" /><path clip-path="url(#clip130)" d="M1489.23 9.54393 L1496.69 9.54393 L1496.69 72.576 L1489.23 72.576 L1489.23 9.54393 Z" fill="#000000" fill-rule="nonzero" fill-opacity="1" /><path clip-path="url(#clip130)" d="M1532.9 49.7694 Q1523.87 49.7694 1520.38 51.8354 Q1516.9 53.9013 1516.9 58.8839 Q1516.9 62.8538 1519.49 65.2034 Q1522.13 67.5124 1526.62 67.5124 Q1532.82 67.5124 1536.55 63.1374 Q1540.31 58.7219 1540.31 51.4303 L1540.31 49.7694 L1532.9 49.7694 M1547.77 46.6907 L1547.77 72.576 L1540.31 72.576 L1540.31 65.6895 Q1537.76 69.8214 1533.95 71.8063 Q1530.15 73.7508 1524.64 73.7508 Q1517.67 73.7508 1513.54 69.8619 Q1509.45 65.9325 1509.45 59.3701 Q1509.45 51.7138 1514.55 47.825 Q1519.7 43.9361 1529.86 43.9361 L1540.31 43.9361 L1540.31 43.2069 Q1540.31 38.0623 1536.91 35.2672 Q1533.55 32.4315 1527.43 32.4315 Q1523.54 32.4315 1519.86 33.3632 Q1516.17 34.295 1512.77 36.1584 L1512.77 29.2718 Q1516.86 27.692 1520.71 26.9223 Q1524.56 26.1121 1528.2 26.1121 Q1538.05 26.1121 1542.91 31.2163 Q1547.77 36.3204 1547.77 46.6907 Z" fill="#000000" fill-rule="nonzero" fill-opacity="1" /><path clip-path="url(#clip130)" d="M1570.49 14.324 L1570.49 27.2059 L1585.85 27.2059 L1585.85 32.9987 L1570.49 32.9987 L1570.49 57.6282 Q1570.49 63.1779 1571.99 64.7578 Q1573.53 66.3376 1578.19 66.3376 L1585.85 66.3376 L1585.85 72.576 L1578.19 72.576 Q1569.56 72.576 1566.28 69.3758 Q1563 66.1351 1563 57.6282 L1563 32.9987 L1557.53 32.9987 L1557.53 27.2059 L1563 27.2059 L1563 14.324 L1570.49 14.324 Z" fill="#000000" fill-rule="nonzero" fill-opacity="1" /><path clip-path="url(#clip130)" d="M1595.65 27.2059 L1603.1 27.2059 L1603.1 72.576 L1595.65 72.576 L1595.65 27.2059 M1595.65 9.54393 L1603.1 9.54393 L1603.1 18.9825 L1595.65 18.9825 L1595.65 9.54393 Z" fill="#000000" fill-rule="nonzero" fill-opacity="1" /><path clip-path="url(#clip130)" d="M1636.28 32.4315 Q1630.28 32.4315 1626.8 37.1306 Q1623.32 41.7891 1623.32 49.9314 Q1623.32 58.0738 1626.76 62.7728 Q1630.24 67.4314 1636.28 67.4314 Q1642.23 67.4314 1645.72 62.7323 Q1649.2 58.0333 1649.2 49.9314 Q1649.2 41.8701 1645.72 37.1711 Q1642.23 32.4315 1636.28 32.4315 M1636.28 26.1121 Q1646 26.1121 1651.55 32.4315 Q1657.1 38.7509 1657.1 49.9314 Q1657.1 61.0714 1651.55 67.4314 Q1646 73.7508 1636.28 73.7508 Q1626.52 73.7508 1620.97 67.4314 Q1615.46 61.0714 1615.46 49.9314 Q1615.46 38.7509 1620.97 32.4315 Q1626.52 26.1121 1636.28 26.1121 Z" fill="#000000" fill-rule="nonzero" fill-opacity="1" /><path clip-path="url(#clip130)" d="M1707.17 45.1919 L1707.17 72.576 L1699.72 72.576 L1699.72 45.4349 Q1699.72 38.994 1697.21 35.7938 Q1694.69 32.5936 1689.67 32.5936 Q1683.64 32.5936 1680.15 36.4419 Q1676.67 40.2903 1676.67 46.9338 L1676.67 72.576 L1669.17 72.576 L1669.17 27.2059 L1676.67 27.2059 L1676.67 34.2544 Q1679.34 30.163 1682.95 28.1376 Q1686.59 26.1121 1691.33 26.1121 Q1699.15 26.1121 1703.16 30.9732 Q1707.17 35.7938 1707.17 45.1919 Z" fill="#000000" fill-rule="nonzero" fill-opacity="1" /><path clip-path="url(#clip130)" d="M1748.73 12.096 L1783.49 12.096 L1783.49 18.9825 L1756.92 18.9825 L1756.92 36.8065 L1780.9 36.8065 L1780.9 43.6931 L1756.92 43.6931 L1756.92 72.576 L1748.73 72.576 L1748.73 12.096 Z" fill="#000000" fill-rule="nonzero" fill-opacity="1" /><path clip-path="url(#clip130)" d="M1790.82 54.671 L1790.82 27.2059 L1798.28 27.2059 L1798.28 54.3874 Q1798.28 60.8284 1800.79 64.0691 Q1803.3 67.2693 1808.32 67.2693 Q1814.36 67.2693 1817.84 63.421 Q1821.37 59.5726 1821.37 52.9291 L1821.37 27.2059 L1828.82 27.2059 L1828.82 72.576 L1821.37 72.576 L1821.37 65.6084 Q1818.65 69.7404 1815.05 71.7658 Q1811.48 73.7508 1806.74 73.7508 Q1798.92 73.7508 1794.87 68.8897 Q1790.82 64.0286 1790.82 54.671 M1809.58 26.1121 L1809.58 26.1121 Z" fill="#000000" fill-rule="nonzero" fill-opacity="1" /><path clip-path="url(#clip130)" d="M1881.89 45.1919 L1881.89 72.576 L1874.43 72.576 L1874.43 45.4349 Q1874.43 38.994 1871.92 35.7938 Q1869.41 32.5936 1864.39 32.5936 Q1858.35 32.5936 1854.87 36.4419 Q1851.38 40.2903 1851.38 46.9338 L1851.38 72.576 L1843.89 72.576 L1843.89 27.2059 L1851.38 27.2059 L1851.38 34.2544 Q1854.06 30.163 1857.66 28.1376 Q1861.31 26.1121 1866.05 26.1121 Q1873.87 26.1121 1877.88 30.9732 Q1881.89 35.7938 1881.89 45.1919 Z" fill="#000000" fill-rule="nonzero" fill-opacity="1" /><path clip-path="url(#clip130)" d="M1929.4 28.9478 L1929.4 35.9153 Q1926.24 34.1734 1923.04 33.3227 Q1919.88 32.4315 1916.64 32.4315 Q1909.39 32.4315 1905.38 37.0496 Q1901.37 41.6271 1901.37 49.9314 Q1901.37 58.2358 1905.38 62.8538 Q1909.39 67.4314 1916.64 67.4314 Q1919.88 67.4314 1923.04 66.5807 Q1926.24 65.6895 1929.4 63.9476 L1929.4 70.8341 Q1926.28 72.2924 1922.92 73.0216 Q1919.6 73.7508 1915.83 73.7508 Q1905.58 73.7508 1899.55 67.3098 Q1893.51 60.8689 1893.51 49.9314 Q1893.51 38.832 1899.59 32.472 Q1905.71 26.1121 1916.32 26.1121 Q1919.76 26.1121 1923.04 26.8413 Q1926.32 27.5299 1929.4 28.9478 Z" fill="#000000" fill-rule="nonzero" fill-opacity="1" /><path clip-path="url(#clip130)" d="M1949.74 14.324 L1949.74 27.2059 L1965.09 27.2059 L1965.09 32.9987 L1949.74 32.9987 L1949.74 57.6282 Q1949.74 63.1779 1951.24 64.7578 Q1952.78 66.3376 1957.44 66.3376 L1965.09 66.3376 L1965.09 72.576 L1957.44 72.576 Q1948.81 72.576 1945.53 69.3758 Q1942.24 66.1351 1942.24 57.6282 L1942.24 32.9987 L1936.78 32.9987 L1936.78 27.2059 L1942.24 27.2059 L1942.24 14.324 L1949.74 14.324 Z" fill="#000000" fill-rule="nonzero" fill-opacity="1" /><path clip-path="url(#clip130)" d="M1974.9 27.2059 L1982.35 27.2059 L1982.35 72.576 L1974.9 72.576 L1974.9 27.2059 M1974.9 9.54393 L1982.35 9.54393 L1982.35 18.9825 L1974.9 18.9825 L1974.9 9.54393 Z" fill="#000000" fill-rule="nonzero" fill-opacity="1" /><path clip-path="url(#clip130)" d="M2015.53 32.4315 Q2009.53 32.4315 2006.05 37.1306 Q2002.56 41.7891 2002.56 49.9314 Q2002.56 58.0738 2006.01 62.7728 Q2009.49 67.4314 2015.53 67.4314 Q2021.48 67.4314 2024.96 62.7323 Q2028.45 58.0333 2028.45 49.9314 Q2028.45 41.8701 2024.96 37.1711 Q2021.48 32.4315 2015.53 32.4315 M2015.53 26.1121 Q2025.25 26.1121 2030.8 32.4315 Q2036.35 38.7509 2036.35 49.9314 Q2036.35 61.0714 2030.8 67.4314 Q2025.25 73.7508 2015.53 73.7508 Q2005.76 73.7508 2000.21 67.4314 Q1994.7 61.0714 1994.7 49.9314 Q1994.7 38.7509 2000.21 32.4315 Q2005.76 26.1121 2015.53 26.1121 Z" fill="#000000" fill-rule="nonzero" fill-opacity="1" /><path clip-path="url(#clip130)" d="M2086.42 45.1919 L2086.42 72.576 L2078.96 72.576 L2078.96 45.4349 Q2078.96 38.994 2076.45 35.7938 Q2073.94 32.5936 2068.92 32.5936 Q2062.88 32.5936 2059.4 36.4419 Q2055.91 40.2903 2055.91 46.9338 L2055.91 72.576 L2048.42 72.576 L2048.42 27.2059 L2055.91 27.2059 L2055.91 34.2544 Q2058.59 30.163 2062.19 28.1376 Q2065.84 26.1121 2070.58 26.1121 Q2078.4 26.1121 2082.41 30.9732 Q2086.42 35.7938 2086.42 45.1919 Z" fill="#000000" fill-rule="nonzero" fill-opacity="1" /><path clip-path="url(#clip130)" d="M2145.56 9.62495 Q2140.13 18.942 2137.5 28.0566 Q2134.87 37.1711 2134.87 46.5287 Q2134.87 55.8863 2137.5 65.0818 Q2140.17 74.2369 2145.56 83.5134 L2139.08 83.5134 Q2133 73.9938 2129.96 64.7983 Q2126.97 55.6027 2126.97 46.5287 Q2126.97 37.4952 2129.96 28.3401 Q2132.96 19.1851 2139.08 9.62495 L2145.56 9.62495 Z" fill="#000000" fill-rule="nonzero" fill-opacity="1" /><path clip-path="url(#clip130)" d="M2180.56 20.1573 L2169.46 50.2555 L2191.7 50.2555 L2180.56 20.1573 M2175.94 12.096 L2185.22 12.096 L2208.27 72.576 L2199.76 72.576 L2194.25 57.061 L2166.99 57.061 L2161.48 72.576 L2152.85 72.576 L2175.94 12.096 Z" fill="#000000" fill-rule="nonzero" fill-opacity="1" /><path clip-path="url(#clip130)" d="M2260.93 16.7545 L2260.93 25.383 Q2256.8 21.5346 2252.1 19.6307 Q2247.44 17.7268 2242.17 17.7268 Q2231.8 17.7268 2226.29 24.0867 Q2220.79 30.4061 2220.79 42.3968 Q2220.79 54.3469 2226.29 60.7069 Q2231.8 67.0263 2242.17 67.0263 Q2247.44 67.0263 2252.1 65.1223 Q2256.8 63.2184 2260.93 59.3701 L2260.93 67.9175 Q2256.64 70.8341 2251.81 72.2924 Q2247.03 73.7508 2241.69 73.7508 Q2227.96 73.7508 2220.06 65.3654 Q2212.16 56.9395 2212.16 42.3968 Q2212.16 27.8135 2220.06 19.4281 Q2227.96 11.0023 2241.69 11.0023 Q2247.12 11.0023 2251.9 12.4606 Q2256.72 13.8784 2260.93 16.7545 Z" fill="#000000" fill-rule="nonzero" fill-opacity="1" /><path clip-path="url(#clip130)" d="M2273.57 12.096 L2308.33 12.096 L2308.33 18.9825 L2281.75 18.9825 L2281.75 36.8065 L2305.73 36.8065 L2305.73 43.6931 L2281.75 43.6931 L2281.75 72.576 L2273.57 72.576 L2273.57 12.096 Z" fill="#000000" fill-rule="nonzero" fill-opacity="1" /><path clip-path="url(#clip130)" d="M2319.79 9.62495 L2326.27 9.62495 Q2332.35 19.1851 2335.34 28.3401 Q2338.38 37.4952 2338.38 46.5287 Q2338.38 55.6027 2335.34 64.7983 Q2332.35 73.9938 2326.27 83.5134 L2319.79 83.5134 Q2325.18 74.2369 2327.81 65.0818 Q2330.48 55.8863 2330.48 46.5287 Q2330.48 37.1711 2327.81 28.0566 Q2325.18 18.942 2319.79 9.62495 Z" fill="#000000" fill-rule="nonzero" fill-opacity="1" /><path clip-path="url(#clip132)" d="M421.677 119.692 L421.677 568.44 L520.605 568.44 L520.605 119.692 L421.677 119.692 L421.677 119.692  Z" fill="#009af9" fill-rule="evenodd" fill-opacity="1"/>
<polyline clip-path="url(#clip132)" style="stroke:#000000; stroke-linecap:round; stroke-linejoin:round; stroke-width:4; stroke-opacity:1; fill:none" points="421.677,119.692 421.677,568.44 520.605,568.44 520.605,119.692 421.677,119.692 "/>
<path clip-path="url(#clip132)" d="M545.337 570.797 L545.337 568.44 L644.265 568.44 L644.265 570.797 L545.337 570.797 L545.337 570.797  Z" fill="#009af9" fill-rule="evenodd" fill-opacity="1"/>
<polyline clip-path="url(#clip132)" style="stroke:#000000; stroke-linecap:round; stroke-linejoin:round; stroke-width:4; stroke-opacity:1; fill:none" points="545.337,570.797 545.337,568.44 644.265,568.44 644.265,570.797 545.337,570.797 "/>
<path clip-path="url(#clip132)" d="M668.997 479.008 L668.997 568.44 L767.924 568.44 L767.924 479.008 L668.997 479.008 L668.997 479.008  Z" fill="#009af9" fill-rule="evenodd" fill-opacity="1"/>
<polyline clip-path="url(#clip132)" style="stroke:#000000; stroke-linecap:round; stroke-linejoin:round; stroke-width:4; stroke-opacity:1; fill:none" points="668.997,479.008 668.997,568.44 767.924,568.44 767.924,479.008 668.997,479.008 "/>
<path clip-path="url(#clip132)" d="M792.656 824.31 L792.656 568.44 L891.584 568.44 L891.584 824.31 L792.656 824.31 L792.656 824.31  Z" fill="#009af9" fill-rule="evenodd" fill-opacity="1"/>
<polyline clip-path="url(#clip132)" style="stroke:#000000; stroke-linecap:round; stroke-linejoin:round; stroke-width:4; stroke-opacity:1; fill:none" points="792.656,824.31 792.656,568.44 891.584,568.44 891.584,824.31 792.656,824.31 "/>
<path clip-path="url(#clip132)" d="M916.316 506.473 L916.316 568.44 L1015.24 568.44 L1015.24 506.473 L916.316 506.473 L916.316 506.473  Z" fill="#009af9" fill-rule="evenodd" fill-opacity="1"/>
<polyline clip-path="url(#clip132)" style="stroke:#000000; stroke-linecap:round; stroke-linejoin:round; stroke-width:4; stroke-opacity:1; fill:none" points="916.316,506.473 916.316,568.44 1015.24,568.44 1015.24,506.473 916.316,506.473 "/>
<path clip-path="url(#clip132)" d="M1039.98 688.703 L1039.98 568.44 L1138.9 568.44 L1138.9 688.703 L1039.98 688.703 L1039.98 688.703  Z" fill="#009af9" fill-rule="evenodd" fill-opacity="1"/>
<polyline clip-path="url(#clip132)" style="stroke:#000000; stroke-linecap:round; stroke-linejoin:round; stroke-width:4; stroke-opacity:1; fill:none" points="1039.98,688.703 1039.98,568.44 1138.9,568.44 1138.9,688.703 1039.98,688.703 "/>
<path clip-path="url(#clip132)" d="M1163.64 409.079 L1163.64 568.44 L1262.56 568.44 L1262.56 409.079 L1163.64 409.079 L1163.64 409.079  Z" fill="#009af9" fill-rule="evenodd" fill-opacity="1"/>
<polyline clip-path="url(#clip132)" style="stroke:#000000; stroke-linecap:round; stroke-linejoin:round; stroke-width:4; stroke-opacity:1; fill:none" points="1163.64,409.079 1163.64,568.44 1262.56,568.44 1262.56,409.079 1163.64,409.079 "/>
<path clip-path="url(#clip132)" d="M1287.3 655.388 L1287.3 568.44 L1386.22 568.44 L1386.22 655.388 L1287.3 655.388 L1287.3 655.388  Z" fill="#009af9" fill-rule="evenodd" fill-opacity="1"/>
<polyline clip-path="url(#clip132)" style="stroke:#000000; stroke-linecap:round; stroke-linejoin:round; stroke-width:4; stroke-opacity:1; fill:none" points="1287.3,655.388 1287.3,568.44 1386.22,568.44 1386.22,655.388 1287.3,655.388 "/>
<path clip-path="url(#clip132)" d="M1410.95 449.516 L1410.95 568.44 L1509.88 568.44 L1509.88 449.516 L1410.95 449.516 L1410.95 449.516  Z" fill="#009af9" fill-rule="evenodd" fill-opacity="1"/>
<polyline clip-path="url(#clip132)" style="stroke:#000000; stroke-linecap:round; stroke-linejoin:round; stroke-width:4; stroke-opacity:1; fill:none" points="1410.95,449.516 1410.95,568.44 1509.88,568.44 1509.88,449.516 1410.95,449.516 "/>
<path clip-path="url(#clip132)" d="M1534.61 682.126 L1534.61 568.44 L1633.54 568.44 L1633.54 682.126 L1534.61 682.126 L1534.61 682.126  Z" fill="#009af9" fill-rule="evenodd" fill-opacity="1"/>
<polyline clip-path="url(#clip132)" style="stroke:#000000; stroke-linecap:round; stroke-linejoin:round; stroke-width:4; stroke-opacity:1; fill:none" points="1534.61,682.126 1534.61,568.44 1633.54,568.44 1633.54,682.126 1534.61,682.126 "/>
<path clip-path="url(#clip132)" d="M1658.27 470.103 L1658.27 568.44 L1757.2 568.44 L1757.2 470.103 L1658.27 470.103 L1658.27 470.103  Z" fill="#009af9" fill-rule="evenodd" fill-opacity="1"/>
<polyline clip-path="url(#clip132)" style="stroke:#000000; stroke-linecap:round; stroke-linejoin:round; stroke-width:4; stroke-opacity:1; fill:none" points="1658.27,470.103 1658.27,568.44 1757.2,568.44 1757.2,470.103 1658.27,470.103 "/>
<path clip-path="url(#clip132)" d="M1781.93 674.564 L1781.93 568.44 L1880.86 568.44 L1880.86 674.564 L1781.93 674.564 L1781.93 674.564  Z" fill="#009af9" fill-rule="evenodd" fill-opacity="1"/>
<polyline clip-path="url(#clip132)" style="stroke:#000000; stroke-linecap:round; stroke-linejoin:round; stroke-width:4; stroke-opacity:1; fill:none" points="1781.93,674.564 1781.93,568.44 1880.86,568.44 1880.86,674.564 1781.93,674.564 "/>
<path clip-path="url(#clip132)" d="M1905.59 474.982 L1905.59 568.44 L2004.52 568.44 L2004.52 474.982 L1905.59 474.982 L1905.59 474.982  Z" fill="#009af9" fill-rule="evenodd" fill-opacity="1"/>
<polyline clip-path="url(#clip132)" style="stroke:#000000; stroke-linecap:round; stroke-linejoin:round; stroke-width:4; stroke-opacity:1; fill:none" points="1905.59,474.982 1905.59,568.44 2004.52,568.44 2004.52,474.982 1905.59,474.982 "/>
<path clip-path="url(#clip132)" d="M2029.25 669.568 L2029.25 568.44 L2128.18 568.44 L2128.18 669.568 L2029.25 669.568 L2029.25 669.568  Z" fill="#009af9" fill-rule="evenodd" fill-opacity="1"/>
<polyline clip-path="url(#clip132)" style="stroke:#000000; stroke-linecap:round; stroke-linejoin:round; stroke-width:4; stroke-opacity:1; fill:none" points="2029.25,669.568 2029.25,568.44 2128.18,568.44 2128.18,669.568 2029.25,669.568 "/>
<path clip-path="url(#clip132)" d="M2152.91 468.538 L2152.91 568.44 L2251.84 568.44 L2251.84 468.538 L2152.91 468.538 L2152.91 468.538  Z" fill="#009af9" fill-rule="evenodd" fill-opacity="1"/>
<polyline clip-path="url(#clip132)" style="stroke:#000000; stroke-linecap:round; stroke-linejoin:round; stroke-width:4; stroke-opacity:1; fill:none" points="2152.91,468.538 2152.91,568.44 2251.84,568.44 2251.84,468.538 2152.91,468.538 "/>
<path clip-path="url(#clip132)" d="M2276.57 669.204 L2276.57 568.44 L2375.5 568.44 L2375.5 669.204 L2276.57 669.204 L2276.57 669.204  Z" fill="#009af9" fill-rule="evenodd" fill-opacity="1"/>
<polyline clip-path="url(#clip132)" style="stroke:#000000; stroke-linecap:round; stroke-linejoin:round; stroke-width:4; stroke-opacity:1; fill:none" points="2276.57,669.204 2276.57,568.44 2375.5,568.44 2375.5,669.204 2276.57,669.204 "/>
<path clip-path="url(#clip132)" d="M2400.23 477.195 L2400.23 568.44 L2499.16 568.44 L2499.16 477.195 L2400.23 477.195 L2400.23 477.195  Z" fill="#009af9" fill-rule="evenodd" fill-opacity="1"/>
<polyline clip-path="url(#clip132)" style="stroke:#000000; stroke-linecap:round; stroke-linejoin:round; stroke-width:4; stroke-opacity:1; fill:none" points="2400.23,477.195 2400.23,568.44 2499.16,568.44 2499.16,477.195 2400.23,477.195 "/>
<path clip-path="url(#clip132)" d="M2523.89 654.395 L2523.89 568.44 L2622.82 568.44 L2622.82 654.395 L2523.89 654.395 L2523.89 654.395  Z" fill="#009af9" fill-rule="evenodd" fill-opacity="1"/>
<polyline clip-path="url(#clip132)" style="stroke:#000000; stroke-linecap:round; stroke-linejoin:round; stroke-width:4; stroke-opacity:1; fill:none" points="2523.89,654.395 2523.89,568.44 2622.82,568.44 2622.82,654.395 2523.89,654.395 "/>
<path clip-path="url(#clip132)" d="M2647.55 488.852 L2647.55 568.44 L2746.48 568.44 L2746.48 488.852 L2647.55 488.852 L2647.55 488.852  Z" fill="#009af9" fill-rule="evenodd" fill-opacity="1"/>
<polyline clip-path="url(#clip132)" style="stroke:#000000; stroke-linecap:round; stroke-linejoin:round; stroke-width:4; stroke-opacity:1; fill:none" points="2647.55,488.852 2647.55,568.44 2746.48,568.44 2746.48,488.852 2647.55,488.852 "/>
<path clip-path="url(#clip132)" d="M2771.21 663.496 L2771.21 568.44 L2870.14 568.44 L2870.14 663.496 L2771.21 663.496 L2771.21 663.496  Z" fill="#009af9" fill-rule="evenodd" fill-opacity="1"/>
<polyline clip-path="url(#clip132)" style="stroke:#000000; stroke-linecap:round; stroke-linejoin:round; stroke-width:4; stroke-opacity:1; fill:none" points="2771.21,663.496 2771.21,568.44 2870.14,568.44 2870.14,663.496 2771.21,663.496 "/>
<path clip-path="url(#clip132)" d="M2894.87 514.58 L2894.87 568.44 L2993.8 568.44 L2993.8 514.58 L2894.87 514.58 L2894.87 514.58  Z" fill="#009af9" fill-rule="evenodd" fill-opacity="1"/>
<polyline clip-path="url(#clip132)" style="stroke:#000000; stroke-linecap:round; stroke-linejoin:round; stroke-width:4; stroke-opacity:1; fill:none" points="2894.87,514.58 2894.87,568.44 2993.8,568.44 2993.8,514.58 2894.87,514.58 "/>
<circle clip-path="url(#clip132)" style="fill:#009af9; stroke:none; fill-opacity:0" cx="471.141" cy="119.692" r="2"/>
<circle clip-path="url(#clip132)" style="fill:#009af9; stroke:none; fill-opacity:0" cx="594.801" cy="570.797" r="2"/>
<circle clip-path="url(#clip132)" style="fill:#009af9; stroke:none; fill-opacity:0" cx="718.461" cy="479.008" r="2"/>
<circle clip-path="url(#clip132)" style="fill:#009af9; stroke:none; fill-opacity:0" cx="842.12" cy="824.31" r="2"/>
<circle clip-path="url(#clip132)" style="fill:#009af9; stroke:none; fill-opacity:0" cx="965.78" cy="506.473" r="2"/>
<circle clip-path="url(#clip132)" style="fill:#009af9; stroke:none; fill-opacity:0" cx="1089.44" cy="688.703" r="2"/>
<circle clip-path="url(#clip132)" style="fill:#009af9; stroke:none; fill-opacity:0" cx="1213.1" cy="409.079" r="2"/>
<circle clip-path="url(#clip132)" style="fill:#009af9; stroke:none; fill-opacity:0" cx="1336.76" cy="655.388" r="2"/>
<circle clip-path="url(#clip132)" style="fill:#009af9; stroke:none; fill-opacity:0" cx="1460.42" cy="449.516" r="2"/>
<circle clip-path="url(#clip132)" style="fill:#009af9; stroke:none; fill-opacity:0" cx="1584.08" cy="682.126" r="2"/>
<circle clip-path="url(#clip132)" style="fill:#009af9; stroke:none; fill-opacity:0" cx="1707.74" cy="470.103" r="2"/>
<circle clip-path="url(#clip132)" style="fill:#009af9; stroke:none; fill-opacity:0" cx="1831.4" cy="674.564" r="2"/>
<circle clip-path="url(#clip132)" style="fill:#009af9; stroke:none; fill-opacity:0" cx="1955.06" cy="474.982" r="2"/>
<circle clip-path="url(#clip132)" style="fill:#009af9; stroke:none; fill-opacity:0" cx="2078.72" cy="669.568" r="2"/>
<circle clip-path="url(#clip132)" style="fill:#009af9; stroke:none; fill-opacity:0" cx="2202.38" cy="468.538" r="2"/>
<circle clip-path="url(#clip132)" style="fill:#009af9; stroke:none; fill-opacity:0" cx="2326.04" cy="669.204" r="2"/>
<circle clip-path="url(#clip132)" style="fill:#009af9; stroke:none; fill-opacity:0" cx="2449.7" cy="477.195" r="2"/>
<circle clip-path="url(#clip132)" style="fill:#009af9; stroke:none; fill-opacity:0" cx="2573.36" cy="654.395" r="2"/>
<circle clip-path="url(#clip132)" style="fill:#009af9; stroke:none; fill-opacity:0" cx="2697.02" cy="488.852" r="2"/>
<circle clip-path="url(#clip132)" style="fill:#009af9; stroke:none; fill-opacity:0" cx="2820.68" cy="663.496" r="2"/>
<circle clip-path="url(#clip132)" style="fill:#009af9; stroke:none; fill-opacity:0" cx="2944.33" cy="514.58" r="2"/>
<polyline clip-path="url(#clip132)" style="stroke:#ff0000; stroke-linecap:round; stroke-linejoin:round; stroke-width:4; stroke-opacity:1; fill:none" stroke-dasharray="16, 10" points="-2627.32,529.107 6042.79,529.107 "/>
<polyline clip-path="url(#clip132)" style="stroke:#ff0000; stroke-linecap:round; stroke-linejoin:round; stroke-width:4; stroke-opacity:1; fill:none" stroke-dasharray="16, 10" points="-2627.32,607.774 6042.79,607.774 "/>
<path clip-path="url(#clip130)" d="M262.72 1824.31 L3152.76 1824.31 L3152.76 1119.69 L262.72 1119.69  Z" fill="#ffffff" fill-rule="evenodd" fill-opacity="1"/>
<defs>
  <clipPath id="clip133">
    <rect x="262" y="1119" width="2891" height="706"/>
  </clipPath>
</defs>
<polyline clip-path="url(#clip133)" style="stroke:#000000; stroke-linecap:round; stroke-linejoin:round; stroke-width:2; stroke-opacity:0.1; fill:none" points="343.734,1824.31 343.734,1119.69 "/>
<polyline clip-path="url(#clip133)" style="stroke:#000000; stroke-linecap:round; stroke-linejoin:round; stroke-width:2; stroke-opacity:0.1; fill:none" points="993.26,1824.31 993.26,1119.69 "/>
<polyline clip-path="url(#clip133)" style="stroke:#000000; stroke-linecap:round; stroke-linejoin:round; stroke-width:2; stroke-opacity:0.1; fill:none" points="1642.79,1824.31 1642.79,1119.69 "/>
<polyline clip-path="url(#clip133)" style="stroke:#000000; stroke-linecap:round; stroke-linejoin:round; stroke-width:2; stroke-opacity:0.1; fill:none" points="2292.31,1824.31 2292.31,1119.69 "/>
<polyline clip-path="url(#clip133)" style="stroke:#000000; stroke-linecap:round; stroke-linejoin:round; stroke-width:2; stroke-opacity:0.1; fill:none" points="2941.84,1824.31 2941.84,1119.69 "/>
<polyline clip-path="url(#clip133)" style="stroke:#000000; stroke-linecap:round; stroke-linejoin:round; stroke-width:2; stroke-opacity:0.1; fill:none" points="262.72,1663.99 3152.76,1663.99 "/>
<polyline clip-path="url(#clip133)" style="stroke:#000000; stroke-linecap:round; stroke-linejoin:round; stroke-width:2; stroke-opacity:0.1; fill:none" points="262.72,1499.07 3152.76,1499.07 "/>
<polyline clip-path="url(#clip133)" style="stroke:#000000; stroke-linecap:round; stroke-linejoin:round; stroke-width:2; stroke-opacity:0.1; fill:none" points="262.72,1334.15 3152.76,1334.15 "/>
<polyline clip-path="url(#clip133)" style="stroke:#000000; stroke-linecap:round; stroke-linejoin:round; stroke-width:2; stroke-opacity:0.1; fill:none" points="262.72,1169.22 3152.76,1169.22 "/>
<polyline clip-path="url(#clip130)" style="stroke:#000000; stroke-linecap:round; stroke-linejoin:round; stroke-width:4; stroke-opacity:1; fill:none" points="262.72,1824.31 3152.76,1824.31 "/>
<polyline clip-path="url(#clip130)" style="stroke:#000000; stroke-linecap:round; stroke-linejoin:round; stroke-width:4; stroke-opacity:1; fill:none" points="343.734,1824.31 343.734,1805.41 "/>
<polyline clip-path="url(#clip130)" style="stroke:#000000; stroke-linecap:round; stroke-linejoin:round; stroke-width:4; stroke-opacity:1; fill:none" points="993.26,1824.31 993.26,1805.41 "/>
<polyline clip-path="url(#clip130)" style="stroke:#000000; stroke-linecap:round; stroke-linejoin:round; stroke-width:4; stroke-opacity:1; fill:none" points="1642.79,1824.31 1642.79,1805.41 "/>
<polyline clip-path="url(#clip130)" style="stroke:#000000; stroke-linecap:round; stroke-linejoin:round; stroke-width:4; stroke-opacity:1; fill:none" points="2292.31,1824.31 2292.31,1805.41 "/>
<polyline clip-path="url(#clip130)" style="stroke:#000000; stroke-linecap:round; stroke-linejoin:round; stroke-width:4; stroke-opacity:1; fill:none" points="2941.84,1824.31 2941.84,1805.41 "/>
<path clip-path="url(#clip130)" d="M343.734 1861.63 Q340.123 1861.63 338.294 1865.19 Q336.489 1868.73 336.489 1875.86 Q336.489 1882.97 338.294 1886.54 Q340.123 1890.08 343.734 1890.08 Q347.368 1890.08 349.174 1886.54 Q351.003 1882.97 351.003 1875.86 Q351.003 1868.73 349.174 1865.19 Q347.368 1861.63 343.734 1861.63 M343.734 1857.92 Q349.544 1857.92 352.6 1862.53 Q355.679 1867.11 355.679 1875.86 Q355.679 1884.59 352.6 1889.2 Q349.544 1893.78 343.734 1893.78 Q337.924 1893.78 334.845 1889.2 Q331.79 1884.59 331.79 1875.86 Q331.79 1867.11 334.845 1862.53 Q337.924 1857.92 343.734 1857.92 Z" fill="#000000" fill-rule="nonzero" fill-opacity="1" /><path clip-path="url(#clip130)" d="M983.538 1858.55 L1001.89 1858.55 L1001.89 1862.49 L987.82 1862.49 L987.82 1870.96 Q988.839 1870.61 989.857 1870.45 Q990.876 1870.26 991.894 1870.26 Q997.681 1870.26 1001.06 1873.43 Q1004.44 1876.61 1004.44 1882.02 Q1004.44 1887.6 1000.97 1890.7 Q997.496 1893.78 991.176 1893.78 Q989.001 1893.78 986.732 1893.41 Q984.487 1893.04 982.079 1892.3 L982.079 1887.6 Q984.163 1888.73 986.385 1889.29 Q988.607 1889.85 991.084 1889.85 Q995.089 1889.85 997.426 1887.74 Q999.764 1885.63 999.764 1882.02 Q999.764 1878.41 997.426 1876.3 Q995.089 1874.2 991.084 1874.2 Q989.209 1874.2 987.334 1874.61 Q985.482 1875.03 983.538 1875.91 L983.538 1858.55 Z" fill="#000000" fill-rule="nonzero" fill-opacity="1" /><path clip-path="url(#clip130)" d="M1617.47 1889.17 L1625.11 1889.17 L1625.11 1862.81 L1616.8 1864.48 L1616.8 1860.22 L1625.07 1858.55 L1629.74 1858.55 L1629.74 1889.17 L1637.38 1889.17 L1637.38 1893.11 L1617.47 1893.11 L1617.47 1889.17 Z" fill="#000000" fill-rule="nonzero" fill-opacity="1" /><path clip-path="url(#clip130)" d="M1656.82 1861.63 Q1653.21 1861.63 1651.38 1865.19 Q1649.58 1868.73 1649.58 1875.86 Q1649.58 1882.97 1651.38 1886.54 Q1653.21 1890.08 1656.82 1890.08 Q1660.46 1890.08 1662.26 1886.54 Q1664.09 1882.97 1664.09 1875.86 Q1664.09 1868.73 1662.26 1865.19 Q1660.46 1861.63 1656.82 1861.63 M1656.82 1857.92 Q1662.63 1857.92 1665.69 1862.53 Q1668.77 1867.11 1668.77 1875.86 Q1668.77 1884.59 1665.69 1889.2 Q1662.63 1893.78 1656.82 1893.78 Q1651.01 1893.78 1647.94 1889.2 Q1644.88 1884.59 1644.88 1875.86 Q1644.88 1867.11 1647.94 1862.53 Q1651.01 1857.92 1656.82 1857.92 Z" fill="#000000" fill-rule="nonzero" fill-opacity="1" /><path clip-path="url(#clip130)" d="M2267.5 1889.17 L2275.14 1889.17 L2275.14 1862.81 L2266.83 1864.48 L2266.83 1860.22 L2275.09 1858.55 L2279.76 1858.55 L2279.76 1889.17 L2287.4 1889.17 L2287.4 1893.11 L2267.5 1893.11 L2267.5 1889.17 Z" fill="#000000" fill-rule="nonzero" fill-opacity="1" /><path clip-path="url(#clip130)" d="M2296.89 1858.55 L2315.25 1858.55 L2315.25 1862.49 L2301.18 1862.49 L2301.18 1870.96 Q2302.2 1870.61 2303.21 1870.45 Q2304.23 1870.26 2305.25 1870.26 Q2311.04 1870.26 2314.42 1873.43 Q2317.8 1876.61 2317.8 1882.02 Q2317.8 1887.6 2314.32 1890.7 Q2310.85 1893.78 2304.53 1893.78 Q2302.36 1893.78 2300.09 1893.41 Q2297.84 1893.04 2295.44 1892.3 L2295.44 1887.6 Q2297.52 1888.73 2299.74 1889.29 Q2301.96 1889.85 2304.44 1889.85 Q2308.45 1889.85 2310.78 1887.74 Q2313.12 1885.63 2313.12 1882.02 Q2313.12 1878.41 2310.78 1876.3 Q2308.45 1874.2 2304.44 1874.2 Q2302.57 1874.2 2300.69 1874.61 Q2298.84 1875.03 2296.89 1875.91 L2296.89 1858.55 Z" fill="#000000" fill-rule="nonzero" fill-opacity="1" /><path clip-path="url(#clip130)" d="M2920.61 1889.17 L2936.93 1889.17 L2936.93 1893.11 L2914.99 1893.11 L2914.99 1889.17 Q2917.65 1886.42 2922.23 1881.79 Q2926.84 1877.14 2928.02 1875.8 Q2930.26 1873.27 2931.14 1871.54 Q2932.05 1869.78 2932.05 1868.09 Q2932.05 1865.33 2930.1 1863.6 Q2928.18 1861.86 2925.08 1861.86 Q2922.88 1861.86 2920.42 1862.62 Q2917.99 1863.39 2915.22 1864.94 L2915.22 1860.22 Q2918.04 1859.08 2920.49 1858.5 Q2922.95 1857.92 2924.98 1857.92 Q2930.36 1857.92 2933.55 1860.61 Q2936.74 1863.3 2936.74 1867.79 Q2936.74 1869.92 2935.93 1871.84 Q2935.15 1873.73 2933.04 1876.33 Q2932.46 1877 2929.36 1880.22 Q2926.26 1883.41 2920.61 1889.17 Z" fill="#000000" fill-rule="nonzero" fill-opacity="1" /><path clip-path="url(#clip130)" d="M2956.74 1861.63 Q2953.13 1861.63 2951.3 1865.19 Q2949.5 1868.73 2949.5 1875.86 Q2949.5 1882.97 2951.3 1886.54 Q2953.13 1890.08 2956.74 1890.08 Q2960.38 1890.08 2962.18 1886.54 Q2964.01 1882.97 2964.01 1875.86 Q2964.01 1868.73 2962.18 1865.19 Q2960.38 1861.63 2956.74 1861.63 M2956.74 1857.92 Q2962.55 1857.92 2965.61 1862.53 Q2968.69 1867.11 2968.69 1875.86 Q2968.69 1884.59 2965.61 1889.2 Q2962.55 1893.78 2956.74 1893.78 Q2950.93 1893.78 2947.86 1889.2 Q2944.8 1884.59 2944.8 1875.86 Q2944.8 1867.11 2947.86 1862.53 Q2950.93 1857.92 2956.74 1857.92 Z" fill="#000000" fill-rule="nonzero" fill-opacity="1" /><path clip-path="url(#clip130)" d="M1655.08 1933.65 L1661.51 1933.65 L1661.51 1975.76 L1684.65 1975.76 L1684.65 1981.17 L1655.08 1981.17 L1655.08 1933.65 Z" fill="#000000" fill-rule="nonzero" fill-opacity="1" /><path clip-path="url(#clip130)" d="M1707.34 1963.25 Q1700.24 1963.25 1697.51 1964.88 Q1694.77 1966.5 1694.77 1970.42 Q1694.77 1973.53 1696.8 1975.38 Q1698.87 1977.2 1702.41 1977.2 Q1707.28 1977.2 1710.2 1973.76 Q1713.16 1970.29 1713.16 1964.56 L1713.16 1963.25 L1707.34 1963.25 M1719.02 1960.84 L1719.02 1981.17 L1713.16 1981.17 L1713.16 1975.76 Q1711.16 1979.01 1708.17 1980.57 Q1705.18 1982.1 1700.85 1982.1 Q1695.37 1982.1 1692.13 1979.04 Q1688.91 1975.95 1688.91 1970.8 Q1688.91 1964.78 1692.92 1961.73 Q1696.96 1958.67 1704.95 1958.67 L1713.16 1958.67 L1713.16 1958.1 Q1713.16 1954.06 1710.49 1951.86 Q1707.85 1949.63 1703.04 1949.63 Q1699.99 1949.63 1697.09 1950.36 Q1694.19 1951.1 1691.52 1952.56 L1691.52 1947.15 Q1694.74 1945.91 1697.76 1945.3 Q1700.78 1944.67 1703.65 1944.67 Q1711.38 1944.67 1715.2 1948.68 Q1719.02 1952.69 1719.02 1960.84 Z" fill="#000000" fill-rule="nonzero" fill-opacity="1" /><path clip-path="url(#clip130)" d="M1754.54 1962.94 Q1754.54 1956.57 1751.9 1953.07 Q1749.29 1949.57 1744.55 1949.57 Q1739.84 1949.57 1737.2 1953.07 Q1734.59 1956.57 1734.59 1962.94 Q1734.59 1969.27 1737.2 1972.77 Q1739.84 1976.27 1744.55 1976.27 Q1749.29 1976.27 1751.9 1972.77 Q1754.54 1969.27 1754.54 1962.94 M1760.4 1976.75 Q1760.4 1985.85 1756.36 1990.28 Q1752.31 1994.73 1743.97 1994.73 Q1740.89 1994.73 1738.15 1994.26 Q1735.41 1993.81 1732.83 1992.85 L1732.83 1987.16 Q1735.41 1988.56 1737.93 1989.23 Q1740.44 1989.89 1743.05 1989.89 Q1748.81 1989.89 1751.68 1986.87 Q1754.54 1983.88 1754.54 1977.8 L1754.54 1974.9 Q1752.73 1978.05 1749.89 1979.61 Q1747.06 1981.17 1743.12 1981.17 Q1736.56 1981.17 1732.55 1976.18 Q1728.54 1971.18 1728.54 1962.94 Q1728.54 1954.66 1732.55 1949.66 Q1736.56 1944.67 1743.12 1944.67 Q1747.06 1944.67 1749.89 1946.23 Q1752.73 1947.79 1754.54 1950.94 L1754.54 1945.53 L1760.4 1945.53 L1760.4 1976.75 Z" fill="#000000" fill-rule="nonzero" fill-opacity="1" /><polyline clip-path="url(#clip130)" style="stroke:#000000; stroke-linecap:round; stroke-linejoin:round; stroke-width:4; stroke-opacity:1; fill:none" points="262.72,1824.31 262.72,1119.69 "/>
<polyline clip-path="url(#clip130)" style="stroke:#000000; stroke-linecap:round; stroke-linejoin:round; stroke-width:4; stroke-opacity:1; fill:none" points="262.72,1663.99 281.618,1663.99 "/>
<polyline clip-path="url(#clip130)" style="stroke:#000000; stroke-linecap:round; stroke-linejoin:round; stroke-width:4; stroke-opacity:1; fill:none" points="262.72,1499.07 281.618,1499.07 "/>
<polyline clip-path="url(#clip130)" style="stroke:#000000; stroke-linecap:round; stroke-linejoin:round; stroke-width:4; stroke-opacity:1; fill:none" points="262.72,1334.15 281.618,1334.15 "/>
<polyline clip-path="url(#clip130)" style="stroke:#000000; stroke-linecap:round; stroke-linejoin:round; stroke-width:4; stroke-opacity:1; fill:none" points="262.72,1169.22 281.618,1169.22 "/>
<path clip-path="url(#clip130)" d="M107.29 1664.44 L136.966 1664.44 L136.966 1668.38 L107.29 1668.38 L107.29 1664.44 Z" fill="#000000" fill-rule="nonzero" fill-opacity="1" /><path clip-path="url(#clip130)" d="M157.058 1649.79 Q153.447 1649.79 151.619 1653.36 Q149.813 1656.9 149.813 1664.03 Q149.813 1671.13 151.619 1674.7 Q153.447 1678.24 157.058 1678.24 Q160.693 1678.24 162.498 1674.7 Q164.327 1671.13 164.327 1664.03 Q164.327 1656.9 162.498 1653.36 Q160.693 1649.79 157.058 1649.79 M157.058 1646.09 Q162.869 1646.09 165.924 1650.69 Q169.003 1655.28 169.003 1664.03 Q169.003 1672.75 165.924 1677.36 Q162.869 1681.94 157.058 1681.94 Q151.248 1681.94 148.17 1677.36 Q145.114 1672.75 145.114 1664.03 Q145.114 1655.28 148.17 1650.69 Q151.248 1646.09 157.058 1646.09 Z" fill="#000000" fill-rule="nonzero" fill-opacity="1" /><path clip-path="url(#clip130)" d="M177.22 1675.39 L182.105 1675.39 L182.105 1681.27 L177.22 1681.27 L177.22 1675.39 Z" fill="#000000" fill-rule="nonzero" fill-opacity="1" /><path clip-path="url(#clip130)" d="M205.137 1650.79 L193.331 1669.24 L205.137 1669.24 L205.137 1650.79 M203.91 1646.71 L209.79 1646.71 L209.79 1669.24 L214.72 1669.24 L214.72 1673.13 L209.79 1673.13 L209.79 1681.27 L205.137 1681.27 L205.137 1673.13 L189.535 1673.13 L189.535 1668.61 L203.91 1646.71 Z" fill="#000000" fill-rule="nonzero" fill-opacity="1" /><path clip-path="url(#clip130)" d="M109.373 1499.52 L139.049 1499.52 L139.049 1503.46 L109.373 1503.46 L109.373 1499.52 Z" fill="#000000" fill-rule="nonzero" fill-opacity="1" /><path clip-path="url(#clip130)" d="M159.142 1484.87 Q155.531 1484.87 153.702 1488.43 Q151.896 1491.98 151.896 1499.1 Q151.896 1506.21 153.702 1509.78 Q155.531 1513.32 159.142 1513.32 Q162.776 1513.32 164.582 1509.78 Q166.41 1506.21 166.41 1499.1 Q166.41 1491.98 164.582 1488.43 Q162.776 1484.87 159.142 1484.87 M159.142 1481.17 Q164.952 1481.17 168.007 1485.77 Q171.086 1490.35 171.086 1499.1 Q171.086 1507.83 168.007 1512.44 Q164.952 1517.02 159.142 1517.02 Q153.332 1517.02 150.253 1512.44 Q147.197 1507.83 147.197 1499.1 Q147.197 1490.35 150.253 1485.77 Q153.332 1481.17 159.142 1481.17 Z" fill="#000000" fill-rule="nonzero" fill-opacity="1" /><path clip-path="url(#clip130)" d="M179.304 1510.47 L184.188 1510.47 L184.188 1516.35 L179.304 1516.35 L179.304 1510.47 Z" fill="#000000" fill-rule="nonzero" fill-opacity="1" /><path clip-path="url(#clip130)" d="M198.401 1512.41 L214.72 1512.41 L214.72 1516.35 L192.776 1516.35 L192.776 1512.41 Q195.438 1509.66 200.021 1505.03 Q204.628 1500.38 205.808 1499.04 Q208.054 1496.51 208.933 1494.78 Q209.836 1493.02 209.836 1491.33 Q209.836 1488.57 207.891 1486.84 Q205.97 1485.1 202.868 1485.1 Q200.669 1485.1 198.216 1485.86 Q195.785 1486.63 193.007 1488.18 L193.007 1483.46 Q195.831 1482.32 198.285 1481.74 Q200.739 1481.17 202.776 1481.17 Q208.146 1481.17 211.341 1483.85 Q214.535 1486.54 214.535 1491.03 Q214.535 1493.16 213.725 1495.08 Q212.938 1496.98 210.831 1499.57 Q210.253 1500.24 207.151 1503.46 Q204.049 1506.65 198.401 1512.41 Z" fill="#000000" fill-rule="nonzero" fill-opacity="1" /><path clip-path="url(#clip130)" d="M157.545 1319.95 Q153.933 1319.95 152.105 1323.51 Q150.299 1327.05 150.299 1334.18 Q150.299 1341.29 152.105 1344.85 Q153.933 1348.39 157.545 1348.39 Q161.179 1348.39 162.984 1344.85 Q164.813 1341.29 164.813 1334.18 Q164.813 1327.05 162.984 1323.51 Q161.179 1319.95 157.545 1319.95 M157.545 1316.24 Q163.355 1316.24 166.41 1320.85 Q169.489 1325.43 169.489 1334.18 Q169.489 1342.91 166.41 1347.51 Q163.355 1352.1 157.545 1352.1 Q151.734 1352.1 148.656 1347.51 Q145.6 1342.91 145.6 1334.18 Q145.6 1325.43 148.656 1320.85 Q151.734 1316.24 157.545 1316.24 Z" fill="#000000" fill-rule="nonzero" fill-opacity="1" /><path clip-path="url(#clip130)" d="M177.706 1345.55 L182.591 1345.55 L182.591 1351.43 L177.706 1351.43 L177.706 1345.55 Z" fill="#000000" fill-rule="nonzero" fill-opacity="1" /><path clip-path="url(#clip130)" d="M202.776 1319.95 Q199.165 1319.95 197.336 1323.51 Q195.53 1327.05 195.53 1334.18 Q195.53 1341.29 197.336 1344.85 Q199.165 1348.39 202.776 1348.39 Q206.41 1348.39 208.216 1344.85 Q210.044 1341.29 210.044 1334.18 Q210.044 1327.05 208.216 1323.51 Q206.41 1319.95 202.776 1319.95 M202.776 1316.24 Q208.586 1316.24 211.641 1320.85 Q214.72 1325.43 214.72 1334.18 Q214.72 1342.91 211.641 1347.51 Q208.586 1352.1 202.776 1352.1 Q196.966 1352.1 193.887 1347.51 Q190.831 1342.91 190.831 1334.18 Q190.831 1325.43 193.887 1320.85 Q196.966 1316.24 202.776 1316.24 Z" fill="#000000" fill-rule="nonzero" fill-opacity="1" /><path clip-path="url(#clip130)" d="M159.142 1155.02 Q155.531 1155.02 153.702 1158.59 Q151.896 1162.13 151.896 1169.26 Q151.896 1176.36 153.702 1179.93 Q155.531 1183.47 159.142 1183.47 Q162.776 1183.47 164.582 1179.93 Q166.41 1176.36 166.41 1169.26 Q166.41 1162.13 164.582 1158.59 Q162.776 1155.02 159.142 1155.02 M159.142 1151.32 Q164.952 1151.32 168.007 1155.93 Q171.086 1160.51 171.086 1169.26 Q171.086 1177.99 168.007 1182.59 Q164.952 1187.17 159.142 1187.17 Q153.332 1187.17 150.253 1182.59 Q147.197 1177.99 147.197 1169.26 Q147.197 1160.51 150.253 1155.93 Q153.332 1151.32 159.142 1151.32 Z" fill="#000000" fill-rule="nonzero" fill-opacity="1" /><path clip-path="url(#clip130)" d="M179.304 1180.62 L184.188 1180.62 L184.188 1186.5 L179.304 1186.5 L179.304 1180.62 Z" fill="#000000" fill-rule="nonzero" fill-opacity="1" /><path clip-path="url(#clip130)" d="M198.401 1182.57 L214.72 1182.57 L214.72 1186.5 L192.776 1186.5 L192.776 1182.57 Q195.438 1179.81 200.021 1175.18 Q204.628 1170.53 205.808 1169.19 Q208.054 1166.67 208.933 1164.93 Q209.836 1163.17 209.836 1161.48 Q209.836 1158.73 207.891 1156.99 Q205.97 1155.25 202.868 1155.25 Q200.669 1155.25 198.216 1156.02 Q195.785 1156.78 193.007 1158.33 L193.007 1153.61 Q195.831 1152.48 198.285 1151.9 Q200.739 1151.32 202.776 1151.32 Q208.146 1151.32 211.341 1154 Q214.535 1156.69 214.535 1161.18 Q214.535 1163.31 213.725 1165.23 Q212.938 1167.13 210.831 1169.72 Q210.253 1170.39 207.151 1173.61 Q204.049 1176.8 198.401 1182.57 Z" fill="#000000" fill-rule="nonzero" fill-opacity="1" /><path clip-path="url(#clip130)" d="M2.79769 1541.28 L20.6535 1541.28 L20.6535 1533.19 Q20.6535 1528.7 18.33 1526.25 Q16.0065 1523.8 11.7097 1523.8 Q7.44466 1523.8 5.12118 1526.25 Q2.79769 1528.7 2.79769 1533.19 L2.79769 1541.28 M-2.48584 1547.71 L-2.48584 1533.19 Q-2.48584 1525.2 1.14261 1521.13 Q4.73923 1517.02 11.7097 1517.02 Q18.7438 1517.02 22.3404 1521.13 Q25.937 1525.2 25.937 1533.19 L25.937 1541.28 L45.0342 1541.28 L45.0342 1547.71 L-2.48584 1547.71 Z" fill="#000000" fill-rule="nonzero" fill-opacity="1" /><path clip-path="url(#clip130)" d="M3.84804 1496.68 L27.4966 1505.41 L27.4966 1487.93 L3.84804 1496.68 M-2.48584 1500.31 L-2.48584 1493.02 L45.0342 1474.91 L45.0342 1481.6 L32.8438 1485.93 L32.8438 1507.35 L45.0342 1511.68 L45.0342 1518.45 L-2.48584 1500.31 Z" fill="#000000" fill-rule="nonzero" fill-opacity="1" /><path clip-path="url(#clip130)" d="M1.17444 1433.54 L7.95392 1433.54 Q4.93021 1436.78 3.43426 1440.47 Q1.93832 1444.14 1.93832 1448.27 Q1.93832 1456.42 6.9354 1460.75 Q11.9007 1465.08 21.3219 1465.08 Q30.7113 1465.08 35.7084 1460.75 Q40.6736 1456.42 40.6736 1448.27 Q40.6736 1444.14 39.1777 1440.47 Q37.6818 1436.78 34.6581 1433.54 L41.3739 1433.54 Q43.6655 1436.91 44.8114 1440.7 Q45.9572 1444.45 45.9572 1448.65 Q45.9572 1459.44 39.3687 1465.65 Q32.7483 1471.86 21.3219 1471.86 Q9.86363 1471.86 3.27512 1465.65 Q-3.34521 1459.44 -3.34521 1448.65 Q-3.34521 1444.39 -2.19939 1440.63 Q-1.08539 1436.85 1.17444 1433.54 Z" fill="#000000" fill-rule="nonzero" fill-opacity="1" /><path clip-path="url(#clip130)" d="M-2.48584 1423.61 L-2.48584 1396.3 L2.92501 1396.3 L2.92501 1417.18 L16.9296 1417.18 L16.9296 1398.33 L22.3404 1398.33 L22.3404 1417.18 L45.0342 1417.18 L45.0342 1423.61 L-2.48584 1423.61 Z" fill="#000000" fill-rule="nonzero" fill-opacity="1" /><path clip-path="url(#clip130)" d="M923.118 1018.82 L923.118 1041.55 L933.408 1041.55 Q939.119 1041.55 942.239 1038.59 Q945.358 1035.63 945.358 1030.16 Q945.358 1024.73 942.239 1021.78 Q939.119 1018.82 933.408 1018.82 L923.118 1018.82 M914.936 1012.1 L933.408 1012.1 Q943.575 1012.1 948.761 1016.71 Q953.986 1021.29 953.986 1030.16 Q953.986 1039.12 948.761 1043.69 Q943.575 1048.27 933.408 1048.27 L923.118 1048.27 L923.118 1072.58 L914.936 1072.58 L914.936 1012.1 Z" fill="#000000" fill-rule="nonzero" fill-opacity="1" /><path clip-path="url(#clip130)" d="M981.532 1049.77 Q972.499 1049.77 969.015 1051.84 Q965.531 1053.9 965.531 1058.88 Q965.531 1062.85 968.124 1065.2 Q970.757 1067.51 975.254 1067.51 Q981.451 1067.51 985.178 1063.14 Q988.946 1058.72 988.946 1051.43 L988.946 1049.77 L981.532 1049.77 M996.399 1046.69 L996.399 1072.58 L988.946 1072.58 L988.946 1065.69 Q986.394 1069.82 982.586 1071.81 Q978.778 1073.75 973.269 1073.75 Q966.301 1073.75 962.169 1069.86 Q958.078 1065.93 958.078 1059.37 Q958.078 1051.71 963.182 1047.82 Q968.326 1043.94 978.494 1043.94 L988.946 1043.94 L988.946 1043.21 Q988.946 1038.06 985.543 1035.27 Q982.181 1032.43 976.064 1032.43 Q972.175 1032.43 968.489 1033.36 Q964.802 1034.29 961.399 1036.16 L961.399 1029.27 Q965.491 1027.69 969.339 1026.92 Q973.188 1026.11 976.833 1026.11 Q986.677 1026.11 991.538 1031.22 Q996.399 1036.32 996.399 1046.69 Z" fill="#000000" fill-rule="nonzero" fill-opacity="1" /><path clip-path="url(#clip130)" d="M1038.04 1034.17 Q1036.79 1033.44 1035.29 1033.12 Q1033.83 1032.76 1032.05 1032.76 Q1025.73 1032.76 1022.33 1036.89 Q1018.96 1040.98 1018.96 1048.68 L1018.96 1072.58 L1011.47 1072.58 L1011.47 1027.21 L1018.96 1027.21 L1018.96 1034.25 Q1021.31 1030.12 1025.08 1028.14 Q1028.85 1026.11 1034.23 1026.11 Q1035 1026.11 1035.94 1026.23 Q1036.87 1026.31 1038 1026.52 L1038.04 1034.17 Z" fill="#000000" fill-rule="nonzero" fill-opacity="1" /><path clip-path="url(#clip130)" d="M1053.23 1014.32 L1053.23 1027.21 L1068.59 1027.21 L1068.59 1033 L1053.23 1033 L1053.23 1057.63 Q1053.23 1063.18 1054.73 1064.76 Q1056.27 1066.34 1060.93 1066.34 L1068.59 1066.34 L1068.59 1072.58 L1060.93 1072.58 Q1052.3 1072.58 1049.02 1069.38 Q1045.74 1066.14 1045.74 1057.63 L1045.74 1033 L1040.27 1033 L1040.27 1027.21 L1045.74 1027.21 L1045.74 1014.32 L1053.23 1014.32 Z" fill="#000000" fill-rule="nonzero" fill-opacity="1" /><path clip-path="url(#clip130)" d="M1078.39 1027.21 L1085.84 1027.21 L1085.84 1072.58 L1078.39 1072.58 L1078.39 1027.21 M1078.39 1009.54 L1085.84 1009.54 L1085.84 1018.98 L1078.39 1018.98 L1078.39 1009.54 Z" fill="#000000" fill-rule="nonzero" fill-opacity="1" /><path clip-path="url(#clip130)" d="M1122.06 1049.77 Q1113.02 1049.77 1109.54 1051.84 Q1106.06 1053.9 1106.06 1058.88 Q1106.06 1062.85 1108.65 1065.2 Q1111.28 1067.51 1115.78 1067.51 Q1121.98 1067.51 1125.7 1063.14 Q1129.47 1058.72 1129.47 1051.43 L1129.47 1049.77 L1122.06 1049.77 M1136.93 1046.69 L1136.93 1072.58 L1129.47 1072.58 L1129.47 1065.69 Q1126.92 1069.82 1123.11 1071.81 Q1119.3 1073.75 1113.79 1073.75 Q1106.83 1073.75 1102.69 1069.86 Q1098.6 1065.93 1098.6 1059.37 Q1098.6 1051.71 1103.71 1047.82 Q1108.85 1043.94 1119.02 1043.94 L1129.47 1043.94 L1129.47 1043.21 Q1129.47 1038.06 1126.07 1035.27 Q1122.71 1032.43 1116.59 1032.43 Q1112.7 1032.43 1109.01 1033.36 Q1105.33 1034.29 1101.93 1036.16 L1101.93 1029.27 Q1106.02 1027.69 1109.87 1026.92 Q1113.71 1026.11 1117.36 1026.11 Q1127.2 1026.11 1132.06 1031.22 Q1136.93 1036.32 1136.93 1046.69 Z" fill="#000000" fill-rule="nonzero" fill-opacity="1" /><path clip-path="url(#clip130)" d="M1152.28 1009.54 L1159.73 1009.54 L1159.73 1072.58 L1152.28 1072.58 L1152.28 1009.54 Z" fill="#000000" fill-rule="nonzero" fill-opacity="1" /><path clip-path="url(#clip130)" d="M1222.24 1020.16 L1211.14 1050.26 L1233.38 1050.26 L1222.24 1020.16 M1217.62 1012.1 L1226.9 1012.1 L1249.95 1072.58 L1241.44 1072.58 L1235.93 1057.06 L1208.67 1057.06 L1203.16 1072.58 L1194.53 1072.58 L1217.62 1012.1 Z" fill="#000000" fill-rule="nonzero" fill-opacity="1" /><path clip-path="url(#clip130)" d="M1257.68 1054.67 L1257.68 1027.21 L1265.14 1027.21 L1265.14 1054.39 Q1265.14 1060.83 1267.65 1064.07 Q1270.16 1067.27 1275.18 1067.27 Q1281.22 1067.27 1284.7 1063.42 Q1288.23 1059.57 1288.23 1052.93 L1288.23 1027.21 L1295.68 1027.21 L1295.68 1072.58 L1288.23 1072.58 L1288.23 1065.61 Q1285.51 1069.74 1281.91 1071.77 Q1278.34 1073.75 1273.6 1073.75 Q1265.78 1073.75 1261.73 1068.89 Q1257.68 1064.03 1257.68 1054.67 M1276.44 1026.11 L1276.44 1026.11 Z" fill="#000000" fill-rule="nonzero" fill-opacity="1" /><path clip-path="url(#clip130)" d="M1318.41 1014.32 L1318.41 1027.21 L1333.76 1027.21 L1333.76 1033 L1318.41 1033 L1318.41 1057.63 Q1318.41 1063.18 1319.9 1064.76 Q1321.44 1066.34 1326.1 1066.34 L1333.76 1066.34 L1333.76 1072.58 L1326.1 1072.58 Q1317.47 1072.58 1314.19 1069.38 Q1310.91 1066.14 1310.91 1057.63 L1310.91 1033 L1305.44 1033 L1305.44 1027.21 L1310.91 1027.21 L1310.91 1014.32 L1318.41 1014.32 Z" fill="#000000" fill-rule="nonzero" fill-opacity="1" /><path clip-path="url(#clip130)" d="M1361.14 1032.43 Q1355.15 1032.43 1351.66 1037.13 Q1348.18 1041.79 1348.18 1049.93 Q1348.18 1058.07 1351.62 1062.77 Q1355.11 1067.43 1361.14 1067.43 Q1367.1 1067.43 1370.58 1062.73 Q1374.07 1058.03 1374.07 1049.93 Q1374.07 1041.87 1370.58 1037.17 Q1367.1 1032.43 1361.14 1032.43 M1361.14 1026.11 Q1370.86 1026.11 1376.41 1032.43 Q1381.96 1038.75 1381.96 1049.93 Q1381.96 1061.07 1376.41 1067.43 Q1370.86 1073.75 1361.14 1073.75 Q1351.38 1073.75 1345.83 1067.43 Q1340.32 1061.07 1340.32 1049.93 Q1340.32 1038.75 1345.83 1032.43 Q1351.38 1026.11 1361.14 1026.11 Z" fill="#000000" fill-rule="nonzero" fill-opacity="1" /><path clip-path="url(#clip130)" d="M1426.97 1028.95 L1426.97 1035.92 Q1423.81 1034.17 1420.61 1033.32 Q1417.45 1032.43 1414.21 1032.43 Q1406.96 1032.43 1402.95 1037.05 Q1398.94 1041.63 1398.94 1049.93 Q1398.94 1058.24 1402.95 1062.85 Q1406.96 1067.43 1414.21 1067.43 Q1417.45 1067.43 1420.61 1066.58 Q1423.81 1065.69 1426.97 1063.95 L1426.97 1070.83 Q1423.85 1072.29 1420.49 1073.02 Q1417.17 1073.75 1413.4 1073.75 Q1403.15 1073.75 1397.11 1067.31 Q1391.08 1060.87 1391.08 1049.93 Q1391.08 1038.83 1397.16 1032.47 Q1403.27 1026.11 1413.89 1026.11 Q1417.33 1026.11 1420.61 1026.84 Q1423.89 1027.53 1426.97 1028.95 Z" fill="#000000" fill-rule="nonzero" fill-opacity="1" /><path clip-path="url(#clip130)" d="M1457.51 1032.43 Q1451.52 1032.43 1448.03 1037.13 Q1444.55 1041.79 1444.55 1049.93 Q1444.55 1058.07 1447.99 1062.77 Q1451.48 1067.43 1457.51 1067.43 Q1463.47 1067.43 1466.95 1062.73 Q1470.44 1058.03 1470.44 1049.93 Q1470.44 1041.87 1466.95 1037.17 Q1463.47 1032.43 1457.51 1032.43 M1457.51 1026.11 Q1467.24 1026.11 1472.79 1032.43 Q1478.34 1038.75 1478.34 1049.93 Q1478.34 1061.07 1472.79 1067.43 Q1467.24 1073.75 1457.51 1073.75 Q1447.75 1073.75 1442.2 1067.43 Q1436.69 1061.07 1436.69 1049.93 Q1436.69 1038.75 1442.2 1032.43 Q1447.75 1026.11 1457.51 1026.11 Z" fill="#000000" fill-rule="nonzero" fill-opacity="1" /><path clip-path="url(#clip130)" d="M1516.98 1034.17 Q1515.73 1033.44 1514.23 1033.12 Q1512.77 1032.76 1510.99 1032.76 Q1504.67 1032.76 1501.26 1036.89 Q1497.9 1040.98 1497.9 1048.68 L1497.9 1072.58 L1490.41 1072.58 L1490.41 1027.21 L1497.9 1027.21 L1497.9 1034.25 Q1500.25 1030.12 1504.02 1028.14 Q1507.79 1026.11 1513.17 1026.11 Q1513.94 1026.11 1514.87 1026.23 Q1515.81 1026.31 1516.94 1026.52 L1516.98 1034.17 Z" fill="#000000" fill-rule="nonzero" fill-opacity="1" /><path clip-path="url(#clip130)" d="M1549.63 1034.17 Q1548.38 1033.44 1546.88 1033.12 Q1545.42 1032.76 1543.64 1032.76 Q1537.32 1032.76 1533.91 1036.89 Q1530.55 1040.98 1530.55 1048.68 L1530.55 1072.58 L1523.06 1072.58 L1523.06 1027.21 L1530.55 1027.21 L1530.55 1034.25 Q1532.9 1030.12 1536.67 1028.14 Q1540.44 1026.11 1545.82 1026.11 Q1546.59 1026.11 1547.52 1026.23 Q1548.46 1026.31 1549.59 1026.52 L1549.63 1034.17 Z" fill="#000000" fill-rule="nonzero" fill-opacity="1" /><path clip-path="url(#clip130)" d="M1594.43 1048.03 L1594.43 1051.67 L1560.16 1051.67 Q1560.65 1059.37 1564.78 1063.42 Q1568.95 1067.43 1576.37 1067.43 Q1580.66 1067.43 1584.67 1066.38 Q1588.72 1065.32 1592.69 1063.22 L1592.69 1070.27 Q1588.68 1071.97 1584.47 1072.86 Q1580.26 1073.75 1575.92 1073.75 Q1565.07 1073.75 1558.71 1067.43 Q1552.39 1061.11 1552.39 1050.34 Q1552.39 1039.2 1558.38 1032.67 Q1564.42 1026.11 1574.63 1026.11 Q1583.78 1026.11 1589.09 1032.03 Q1594.43 1037.9 1594.43 1048.03 M1586.98 1045.84 Q1586.9 1039.72 1583.54 1036.08 Q1580.22 1032.43 1574.71 1032.43 Q1568.47 1032.43 1564.7 1035.96 Q1560.97 1039.48 1560.41 1045.88 L1586.98 1045.84 Z" fill="#000000" fill-rule="nonzero" fill-opacity="1" /><path clip-path="url(#clip130)" d="M1606.67 1009.54 L1614.12 1009.54 L1614.12 1072.58 L1606.67 1072.58 L1606.67 1009.54 Z" fill="#000000" fill-rule="nonzero" fill-opacity="1" /><path clip-path="url(#clip130)" d="M1650.34 1049.77 Q1641.3 1049.77 1637.82 1051.84 Q1634.34 1053.9 1634.34 1058.88 Q1634.34 1062.85 1636.93 1065.2 Q1639.56 1067.51 1644.06 1067.51 Q1650.26 1067.51 1653.98 1063.14 Q1657.75 1058.72 1657.75 1051.43 L1657.75 1049.77 L1650.34 1049.77 M1665.2 1046.69 L1665.2 1072.58 L1657.75 1072.58 L1657.75 1065.69 Q1655.2 1069.82 1651.39 1071.81 Q1647.58 1073.75 1642.07 1073.75 Q1635.11 1073.75 1630.97 1069.86 Q1626.88 1065.93 1626.88 1059.37 Q1626.88 1051.71 1631.99 1047.82 Q1637.13 1043.94 1647.3 1043.94 L1657.75 1043.94 L1657.75 1043.21 Q1657.75 1038.06 1654.35 1035.27 Q1650.98 1032.43 1644.87 1032.43 Q1640.98 1032.43 1637.29 1033.36 Q1633.61 1034.29 1630.2 1036.16 L1630.2 1029.27 Q1634.3 1027.69 1638.14 1026.92 Q1641.99 1026.11 1645.64 1026.11 Q1655.48 1026.11 1660.34 1031.22 Q1665.2 1036.32 1665.2 1046.69 Z" fill="#000000" fill-rule="nonzero" fill-opacity="1" /><path clip-path="url(#clip130)" d="M1687.93 1014.32 L1687.93 1027.21 L1703.28 1027.21 L1703.28 1033 L1687.93 1033 L1687.93 1057.63 Q1687.93 1063.18 1689.43 1064.76 Q1690.97 1066.34 1695.63 1066.34 L1703.28 1066.34 L1703.28 1072.58 L1695.63 1072.58 Q1687 1072.58 1683.72 1069.38 Q1680.43 1066.14 1680.43 1057.63 L1680.43 1033 L1674.97 1033 L1674.97 1027.21 L1680.43 1027.21 L1680.43 1014.32 L1687.93 1014.32 Z" fill="#000000" fill-rule="nonzero" fill-opacity="1" /><path clip-path="url(#clip130)" d="M1713.09 1027.21 L1720.54 1027.21 L1720.54 1072.58 L1713.09 1072.58 L1713.09 1027.21 M1713.09 1009.54 L1720.54 1009.54 L1720.54 1018.98 L1713.09 1018.98 L1713.09 1009.54 Z" fill="#000000" fill-rule="nonzero" fill-opacity="1" /><path clip-path="url(#clip130)" d="M1753.72 1032.43 Q1747.72 1032.43 1744.24 1037.13 Q1740.75 1041.79 1740.75 1049.93 Q1740.75 1058.07 1744.2 1062.77 Q1747.68 1067.43 1753.72 1067.43 Q1759.67 1067.43 1763.15 1062.73 Q1766.64 1058.03 1766.64 1049.93 Q1766.64 1041.87 1763.15 1037.17 Q1759.67 1032.43 1753.72 1032.43 M1753.72 1026.11 Q1763.44 1026.11 1768.99 1032.43 Q1774.54 1038.75 1774.54 1049.93 Q1774.54 1061.07 1768.99 1067.43 Q1763.44 1073.75 1753.72 1073.75 Q1743.95 1073.75 1738.4 1067.43 Q1732.89 1061.07 1732.89 1049.93 Q1732.89 1038.75 1738.4 1032.43 Q1743.95 1026.11 1753.72 1026.11 Z" fill="#000000" fill-rule="nonzero" fill-opacity="1" /><path clip-path="url(#clip130)" d="M1824.61 1045.19 L1824.61 1072.58 L1817.15 1072.58 L1817.15 1045.43 Q1817.15 1038.99 1814.64 1035.79 Q1812.13 1032.59 1807.11 1032.59 Q1801.07 1032.59 1797.59 1036.44 Q1794.1 1040.29 1794.1 1046.93 L1794.1 1072.58 L1786.61 1072.58 L1786.61 1027.21 L1794.1 1027.21 L1794.1 1034.25 Q1796.78 1030.16 1800.38 1028.14 Q1804.03 1026.11 1808.77 1026.11 Q1816.59 1026.11 1820.6 1030.97 Q1824.61 1035.79 1824.61 1045.19 Z" fill="#000000" fill-rule="nonzero" fill-opacity="1" /><path clip-path="url(#clip130)" d="M1866.17 1012.1 L1900.93 1012.1 L1900.93 1018.98 L1874.35 1018.98 L1874.35 1036.81 L1898.33 1036.81 L1898.33 1043.69 L1874.35 1043.69 L1874.35 1072.58 L1866.17 1072.58 L1866.17 1012.1 Z" fill="#000000" fill-rule="nonzero" fill-opacity="1" /><path clip-path="url(#clip130)" d="M1908.26 1054.67 L1908.26 1027.21 L1915.71 1027.21 L1915.71 1054.39 Q1915.71 1060.83 1918.22 1064.07 Q1920.73 1067.27 1925.76 1067.27 Q1931.79 1067.27 1935.28 1063.42 Q1938.8 1059.57 1938.8 1052.93 L1938.8 1027.21 L1946.26 1027.21 L1946.26 1072.58 L1938.8 1072.58 L1938.8 1065.61 Q1936.09 1069.74 1932.48 1071.77 Q1928.92 1073.75 1924.18 1073.75 Q1916.36 1073.75 1912.31 1068.89 Q1908.26 1064.03 1908.26 1054.67 M1927.01 1026.11 L1927.01 1026.11 Z" fill="#000000" fill-rule="nonzero" fill-opacity="1" /><path clip-path="url(#clip130)" d="M1999.32 1045.19 L1999.32 1072.58 L1991.87 1072.58 L1991.87 1045.43 Q1991.87 1038.99 1989.36 1035.79 Q1986.85 1032.59 1981.82 1032.59 Q1975.79 1032.59 1972.3 1036.44 Q1968.82 1040.29 1968.82 1046.93 L1968.82 1072.58 L1961.32 1072.58 L1961.32 1027.21 L1968.82 1027.21 L1968.82 1034.25 Q1971.49 1030.16 1975.1 1028.14 Q1978.74 1026.11 1983.48 1026.11 Q1991.3 1026.11 1995.31 1030.97 Q1999.32 1035.79 1999.32 1045.19 Z" fill="#000000" fill-rule="nonzero" fill-opacity="1" /><path clip-path="url(#clip130)" d="M2046.84 1028.95 L2046.84 1035.92 Q2043.68 1034.17 2040.48 1033.32 Q2037.32 1032.43 2034.08 1032.43 Q2026.83 1032.43 2022.82 1037.05 Q2018.81 1041.63 2018.81 1049.93 Q2018.81 1058.24 2022.82 1062.85 Q2026.83 1067.43 2034.08 1067.43 Q2037.32 1067.43 2040.48 1066.58 Q2043.68 1065.69 2046.84 1063.95 L2046.84 1070.83 Q2043.72 1072.29 2040.36 1073.02 Q2037.04 1073.75 2033.27 1073.75 Q2023.02 1073.75 2016.98 1067.31 Q2010.95 1060.87 2010.95 1049.93 Q2010.95 1038.83 2017.02 1032.47 Q2023.14 1026.11 2033.75 1026.11 Q2037.2 1026.11 2040.48 1026.84 Q2043.76 1027.53 2046.84 1028.95 Z" fill="#000000" fill-rule="nonzero" fill-opacity="1" /><path clip-path="url(#clip130)" d="M2067.17 1014.32 L2067.17 1027.21 L2082.53 1027.21 L2082.53 1033 L2067.17 1033 L2067.17 1057.63 Q2067.17 1063.18 2068.67 1064.76 Q2070.21 1066.34 2074.87 1066.34 L2082.53 1066.34 L2082.53 1072.58 L2074.87 1072.58 Q2066.24 1072.58 2062.96 1069.38 Q2059.68 1066.14 2059.68 1057.63 L2059.68 1033 L2054.21 1033 L2054.21 1027.21 L2059.68 1027.21 L2059.68 1014.32 L2067.17 1014.32 Z" fill="#000000" fill-rule="nonzero" fill-opacity="1" /><path clip-path="url(#clip130)" d="M2092.33 1027.21 L2099.78 1027.21 L2099.78 1072.58 L2092.33 1072.58 L2092.33 1027.21 M2092.33 1009.54 L2099.78 1009.54 L2099.78 1018.98 L2092.33 1018.98 L2092.33 1009.54 Z" fill="#000000" fill-rule="nonzero" fill-opacity="1" /><path clip-path="url(#clip130)" d="M2132.96 1032.43 Q2126.97 1032.43 2123.48 1037.13 Q2120 1041.79 2120 1049.93 Q2120 1058.07 2123.44 1062.77 Q2126.93 1067.43 2132.96 1067.43 Q2138.92 1067.43 2142.4 1062.73 Q2145.88 1058.03 2145.88 1049.93 Q2145.88 1041.87 2142.4 1037.17 Q2138.92 1032.43 2132.96 1032.43 M2132.96 1026.11 Q2142.68 1026.11 2148.23 1032.43 Q2153.78 1038.75 2153.78 1049.93 Q2153.78 1061.07 2148.23 1067.43 Q2142.68 1073.75 2132.96 1073.75 Q2123.2 1073.75 2117.65 1067.43 Q2112.14 1061.07 2112.14 1049.93 Q2112.14 1038.75 2117.65 1032.43 Q2123.2 1026.11 2132.96 1026.11 Z" fill="#000000" fill-rule="nonzero" fill-opacity="1" /><path clip-path="url(#clip130)" d="M2203.85 1045.19 L2203.85 1072.58 L2196.4 1072.58 L2196.4 1045.43 Q2196.4 1038.99 2193.89 1035.79 Q2191.38 1032.59 2186.35 1032.59 Q2180.32 1032.59 2176.83 1036.44 Q2173.35 1040.29 2173.35 1046.93 L2173.35 1072.58 L2165.85 1072.58 L2165.85 1027.21 L2173.35 1027.21 L2173.35 1034.25 Q2176.02 1030.16 2179.63 1028.14 Q2183.27 1026.11 2188.01 1026.11 Q2195.83 1026.11 2199.84 1030.97 Q2203.85 1035.79 2203.85 1045.19 Z" fill="#000000" fill-rule="nonzero" fill-opacity="1" /><path clip-path="url(#clip130)" d="M2263 1009.62 Q2257.57 1018.94 2254.93 1028.06 Q2252.3 1037.17 2252.3 1046.53 Q2252.3 1055.89 2254.93 1065.08 Q2257.61 1074.24 2263 1083.51 L2256.51 1083.51 Q2250.44 1073.99 2247.4 1064.8 Q2244.4 1055.6 2244.4 1046.53 Q2244.4 1037.5 2247.4 1028.34 Q2250.4 1019.19 2256.51 1009.62 L2263 1009.62 Z" fill="#000000" fill-rule="nonzero" fill-opacity="1" /><path clip-path="url(#clip130)" d="M2285.96 1018.82 L2285.96 1041.55 L2296.25 1041.55 Q2301.97 1041.55 2305.08 1038.59 Q2308.2 1035.63 2308.2 1030.16 Q2308.2 1024.73 2305.08 1021.78 Q2301.97 1018.82 2296.25 1018.82 L2285.96 1018.82 M2277.78 1012.1 L2296.25 1012.1 Q2306.42 1012.1 2311.61 1016.71 Q2316.83 1021.29 2316.83 1030.16 Q2316.83 1039.12 2311.61 1043.69 Q2306.42 1048.27 2296.25 1048.27 L2285.96 1048.27 L2285.96 1072.58 L2277.78 1072.58 L2277.78 1012.1 Z" fill="#000000" fill-rule="nonzero" fill-opacity="1" /><path clip-path="url(#clip130)" d="M2342.72 1020.16 L2331.62 1050.26 L2353.86 1050.26 L2342.72 1020.16 M2338.1 1012.1 L2347.38 1012.1 L2370.43 1072.58 L2361.92 1072.58 L2356.41 1057.06 L2329.15 1057.06 L2323.64 1072.58 L2315.01 1072.58 L2338.1 1012.1 Z" fill="#000000" fill-rule="nonzero" fill-opacity="1" /><path clip-path="url(#clip130)" d="M2423.09 1016.75 L2423.09 1025.38 Q2418.96 1021.53 2414.26 1019.63 Q2409.6 1017.73 2404.33 1017.73 Q2393.96 1017.73 2388.45 1024.09 Q2382.94 1030.41 2382.94 1042.4 Q2382.94 1054.35 2388.45 1060.71 Q2393.96 1067.03 2404.33 1067.03 Q2409.6 1067.03 2414.26 1065.12 Q2418.96 1063.22 2423.09 1059.37 L2423.09 1067.92 Q2418.79 1070.83 2413.97 1072.29 Q2409.19 1073.75 2403.85 1073.75 Q2390.11 1073.75 2382.21 1065.37 Q2374.31 1056.94 2374.31 1042.4 Q2374.31 1027.81 2382.21 1019.43 Q2390.11 1011 2403.85 1011 Q2409.27 1011 2414.05 1012.46 Q2418.87 1013.88 2423.09 1016.75 Z" fill="#000000" fill-rule="nonzero" fill-opacity="1" /><path clip-path="url(#clip130)" d="M2435.73 1012.1 L2470.48 1012.1 L2470.48 1018.98 L2443.91 1018.98 L2443.91 1036.81 L2467.89 1036.81 L2467.89 1043.69 L2443.91 1043.69 L2443.91 1072.58 L2435.73 1072.58 L2435.73 1012.1 Z" fill="#000000" fill-rule="nonzero" fill-opacity="1" /><path clip-path="url(#clip130)" d="M2481.95 1009.62 L2488.43 1009.62 Q2494.5 1019.19 2497.5 1028.34 Q2500.54 1037.5 2500.54 1046.53 Q2500.54 1055.6 2497.5 1064.8 Q2494.5 1073.99 2488.43 1083.51 L2481.95 1083.51 Q2487.33 1074.24 2489.97 1065.08 Q2492.64 1055.89 2492.64 1046.53 Q2492.64 1037.17 2489.97 1028.06 Q2487.33 1018.94 2481.95 1009.62 Z" fill="#000000" fill-rule="nonzero" fill-opacity="1" /><path clip-path="url(#clip133)" d="M421.677 1338.48 L421.677 1334.15 L525.601 1334.15 L525.601 1338.48 L421.677 1338.48 L421.677 1338.48  Z" fill="#009af9" fill-rule="evenodd" fill-opacity="1"/>
<polyline clip-path="url(#clip133)" style="stroke:#000000; stroke-linecap:round; stroke-linejoin:round; stroke-width:4; stroke-opacity:1; fill:none" points="421.677,1338.48 421.677,1334.15 525.601,1334.15 525.601,1338.48 421.677,1338.48 "/>
<path clip-path="url(#clip133)" d="M551.582 1169.34 L551.582 1334.15 L655.506 1334.15 L655.506 1169.34 L551.582 1169.34 L551.582 1169.34  Z" fill="#009af9" fill-rule="evenodd" fill-opacity="1"/>
<polyline clip-path="url(#clip133)" style="stroke:#000000; stroke-linecap:round; stroke-linejoin:round; stroke-width:4; stroke-opacity:1; fill:none" points="551.582,1169.34 551.582,1334.15 655.506,1334.15 655.506,1169.34 551.582,1169.34 "/>
<path clip-path="url(#clip133)" d="M681.488 1824.31 L681.488 1334.15 L785.412 1334.15 L785.412 1824.31 L681.488 1824.31 L681.488 1824.31  Z" fill="#009af9" fill-rule="evenodd" fill-opacity="1"/>
<polyline clip-path="url(#clip133)" style="stroke:#000000; stroke-linecap:round; stroke-linejoin:round; stroke-width:4; stroke-opacity:1; fill:none" points="681.488,1824.31 681.488,1334.15 785.412,1334.15 785.412,1824.31 681.488,1824.31 "/>
<path clip-path="url(#clip133)" d="M811.393 1119.69 L811.393 1334.15 L915.317 1334.15 L915.317 1119.69 L811.393 1119.69 L811.393 1119.69  Z" fill="#009af9" fill-rule="evenodd" fill-opacity="1"/>
<polyline clip-path="url(#clip133)" style="stroke:#000000; stroke-linecap:round; stroke-linejoin:round; stroke-width:4; stroke-opacity:1; fill:none" points="811.393,1119.69 811.393,1334.15 915.317,1334.15 915.317,1119.69 811.393,1119.69 "/>
<path clip-path="url(#clip133)" d="M941.298 1473.62 L941.298 1334.15 L1045.22 1334.15 L1045.22 1473.62 L941.298 1473.62 L941.298 1473.62  Z" fill="#009af9" fill-rule="evenodd" fill-opacity="1"/>
<polyline clip-path="url(#clip133)" style="stroke:#000000; stroke-linecap:round; stroke-linejoin:round; stroke-width:4; stroke-opacity:1; fill:none" points="941.298,1473.62 941.298,1334.15 1045.22,1334.15 1045.22,1473.62 941.298,1473.62 "/>
<path clip-path="url(#clip133)" d="M1071.2 1288.01 L1071.2 1334.15 L1175.13 1334.15 L1175.13 1288.01 L1071.2 1288.01 L1071.2 1288.01  Z" fill="#009af9" fill-rule="evenodd" fill-opacity="1"/>
<polyline clip-path="url(#clip133)" style="stroke:#000000; stroke-linecap:round; stroke-linejoin:round; stroke-width:4; stroke-opacity:1; fill:none" points="1071.2,1288.01 1071.2,1334.15 1175.13,1334.15 1175.13,1288.01 1071.2,1288.01 "/>
<path clip-path="url(#clip133)" d="M1201.11 1353.3 L1201.11 1334.15 L1305.03 1334.15 L1305.03 1353.3 L1201.11 1353.3 L1201.11 1353.3  Z" fill="#009af9" fill-rule="evenodd" fill-opacity="1"/>
<polyline clip-path="url(#clip133)" style="stroke:#000000; stroke-linecap:round; stroke-linejoin:round; stroke-width:4; stroke-opacity:1; fill:none" points="1201.11,1353.3 1201.11,1334.15 1305.03,1334.15 1305.03,1353.3 1201.11,1353.3 "/>
<path clip-path="url(#clip133)" d="M1331.01 1314.94 L1331.01 1334.15 L1434.94 1334.15 L1434.94 1314.94 L1331.01 1314.94 L1331.01 1314.94  Z" fill="#009af9" fill-rule="evenodd" fill-opacity="1"/>
<polyline clip-path="url(#clip133)" style="stroke:#000000; stroke-linecap:round; stroke-linejoin:round; stroke-width:4; stroke-opacity:1; fill:none" points="1331.01,1314.94 1331.01,1334.15 1434.94,1334.15 1434.94,1314.94 1331.01,1314.94 "/>
<path clip-path="url(#clip133)" d="M1460.92 1335.35 L1460.92 1334.15 L1564.84 1334.15 L1564.84 1335.35 L1460.92 1335.35 L1460.92 1335.35  Z" fill="#009af9" fill-rule="evenodd" fill-opacity="1"/>
<polyline clip-path="url(#clip133)" style="stroke:#000000; stroke-linecap:round; stroke-linejoin:round; stroke-width:4; stroke-opacity:1; fill:none" points="1460.92,1335.35 1460.92,1334.15 1564.84,1334.15 1564.84,1335.35 1460.92,1335.35 "/>
<path clip-path="url(#clip133)" d="M1590.82 1317.13 L1590.82 1334.15 L1694.75 1334.15 L1694.75 1317.13 L1590.82 1317.13 L1590.82 1317.13  Z" fill="#009af9" fill-rule="evenodd" fill-opacity="1"/>
<polyline clip-path="url(#clip133)" style="stroke:#000000; stroke-linecap:round; stroke-linejoin:round; stroke-width:4; stroke-opacity:1; fill:none" points="1590.82,1317.13 1590.82,1334.15 1694.75,1334.15 1694.75,1317.13 1590.82,1317.13 "/>
<path clip-path="url(#clip133)" d="M1720.73 1349.01 L1720.73 1334.15 L1824.65 1334.15 L1824.65 1349.01 L1720.73 1349.01 L1720.73 1349.01  Z" fill="#009af9" fill-rule="evenodd" fill-opacity="1"/>
<polyline clip-path="url(#clip133)" style="stroke:#000000; stroke-linecap:round; stroke-linejoin:round; stroke-width:4; stroke-opacity:1; fill:none" points="1720.73,1349.01 1720.73,1334.15 1824.65,1334.15 1824.65,1349.01 1720.73,1349.01 "/>
<path clip-path="url(#clip133)" d="M1850.63 1333.09 L1850.63 1334.15 L1954.56 1334.15 L1954.56 1333.09 L1850.63 1333.09 L1850.63 1333.09  Z" fill="#009af9" fill-rule="evenodd" fill-opacity="1"/>
<polyline clip-path="url(#clip133)" style="stroke:#000000; stroke-linecap:round; stroke-linejoin:round; stroke-width:4; stroke-opacity:1; fill:none" points="1850.63,1333.09 1850.63,1334.15 1954.56,1334.15 1954.56,1333.09 1850.63,1333.09 "/>
<path clip-path="url(#clip133)" d="M1980.54 1352.03 L1980.54 1334.15 L2084.46 1334.15 L2084.46 1352.03 L1980.54 1352.03 L1980.54 1352.03  Z" fill="#009af9" fill-rule="evenodd" fill-opacity="1"/>
<polyline clip-path="url(#clip133)" style="stroke:#000000; stroke-linecap:round; stroke-linejoin:round; stroke-width:4; stroke-opacity:1; fill:none" points="1980.54,1352.03 1980.54,1334.15 2084.46,1334.15 2084.46,1352.03 1980.54,1352.03 "/>
<path clip-path="url(#clip133)" d="M2110.44 1299.65 L2110.44 1334.15 L2214.37 1334.15 L2214.37 1299.65 L2110.44 1299.65 L2110.44 1299.65  Z" fill="#009af9" fill-rule="evenodd" fill-opacity="1"/>
<polyline clip-path="url(#clip133)" style="stroke:#000000; stroke-linecap:round; stroke-linejoin:round; stroke-width:4; stroke-opacity:1; fill:none" points="2110.44,1299.65 2110.44,1334.15 2214.37,1334.15 2214.37,1299.65 2110.44,1299.65 "/>
<path clip-path="url(#clip133)" d="M2240.35 1406 L2240.35 1334.15 L2344.27 1334.15 L2344.27 1406 L2240.35 1406 L2240.35 1406  Z" fill="#009af9" fill-rule="evenodd" fill-opacity="1"/>
<polyline clip-path="url(#clip133)" style="stroke:#000000; stroke-linecap:round; stroke-linejoin:round; stroke-width:4; stroke-opacity:1; fill:none" points="2240.35,1406 2240.35,1334.15 2344.27,1334.15 2344.27,1406 2240.35,1406 "/>
<path clip-path="url(#clip133)" d="M2370.25 1306.29 L2370.25 1334.15 L2474.18 1334.15 L2474.18 1306.29 L2370.25 1306.29 L2370.25 1306.29  Z" fill="#009af9" fill-rule="evenodd" fill-opacity="1"/>
<polyline clip-path="url(#clip133)" style="stroke:#000000; stroke-linecap:round; stroke-linejoin:round; stroke-width:4; stroke-opacity:1; fill:none" points="2370.25,1306.29 2370.25,1334.15 2474.18,1334.15 2474.18,1306.29 2370.25,1306.29 "/>
<path clip-path="url(#clip133)" d="M2500.16 1316.35 L2500.16 1334.15 L2604.08 1334.15 L2604.08 1316.35 L2500.16 1316.35 L2500.16 1316.35  Z" fill="#009af9" fill-rule="evenodd" fill-opacity="1"/>
<polyline clip-path="url(#clip133)" style="stroke:#000000; stroke-linecap:round; stroke-linejoin:round; stroke-width:4; stroke-opacity:1; fill:none" points="2500.16,1316.35 2500.16,1334.15 2604.08,1334.15 2604.08,1316.35 2500.16,1316.35 "/>
<path clip-path="url(#clip133)" d="M2630.06 1411.89 L2630.06 1334.15 L2733.99 1334.15 L2733.99 1411.89 L2630.06 1411.89 L2630.06 1411.89  Z" fill="#009af9" fill-rule="evenodd" fill-opacity="1"/>
<polyline clip-path="url(#clip133)" style="stroke:#000000; stroke-linecap:round; stroke-linejoin:round; stroke-width:4; stroke-opacity:1; fill:none" points="2630.06,1411.89 2630.06,1334.15 2733.99,1334.15 2733.99,1411.89 2630.06,1411.89 "/>
<path clip-path="url(#clip133)" d="M2759.97 1323.05 L2759.97 1334.15 L2863.89 1334.15 L2863.89 1323.05 L2759.97 1323.05 L2759.97 1323.05  Z" fill="#009af9" fill-rule="evenodd" fill-opacity="1"/>
<polyline clip-path="url(#clip133)" style="stroke:#000000; stroke-linecap:round; stroke-linejoin:round; stroke-width:4; stroke-opacity:1; fill:none" points="2759.97,1323.05 2759.97,1334.15 2863.89,1334.15 2863.89,1323.05 2759.97,1323.05 "/>
<path clip-path="url(#clip133)" d="M2889.87 1413.48 L2889.87 1334.15 L2993.8 1334.15 L2993.8 1413.48 L2889.87 1413.48 L2889.87 1413.48  Z" fill="#009af9" fill-rule="evenodd" fill-opacity="1"/>
<polyline clip-path="url(#clip133)" style="stroke:#000000; stroke-linecap:round; stroke-linejoin:round; stroke-width:4; stroke-opacity:1; fill:none" points="2889.87,1413.48 2889.87,1334.15 2993.8,1334.15 2993.8,1413.48 2889.87,1413.48 "/>
<circle clip-path="url(#clip133)" style="fill:#009af9; stroke:none; fill-opacity:0" cx="473.639" cy="1338.48" r="2"/>
<circle clip-path="url(#clip133)" style="fill:#009af9; stroke:none; fill-opacity:0" cx="603.544" cy="1169.34" r="2"/>
<circle clip-path="url(#clip133)" style="fill:#009af9; stroke:none; fill-opacity:0" cx="863.355" cy="1119.69" r="2"/>
<circle clip-path="url(#clip133)" style="fill:#009af9; stroke:none; fill-opacity:0" cx="993.26" cy="1473.62" r="2"/>
<circle clip-path="url(#clip133)" style="fill:#009af9; stroke:none; fill-opacity:0" cx="1123.16" cy="1288.01" r="2"/>
<circle clip-path="url(#clip133)" style="fill:#009af9; stroke:none; fill-opacity:0" cx="1253.07" cy="1353.3" r="2"/>
<circle clip-path="url(#clip133)" style="fill:#009af9; stroke:none; fill-opacity:0" cx="1382.98" cy="1314.94" r="2"/>
<circle clip-path="url(#clip133)" style="fill:#009af9; stroke:none; fill-opacity:0" cx="1512.88" cy="1335.35" r="2"/>
<circle clip-path="url(#clip133)" style="fill:#009af9; stroke:none; fill-opacity:0" cx="1642.79" cy="1317.13" r="2"/>
<circle clip-path="url(#clip133)" style="fill:#009af9; stroke:none; fill-opacity:0" cx="1772.69" cy="1349.01" r="2"/>
<circle clip-path="url(#clip133)" style="fill:#009af9; stroke:none; fill-opacity:0" cx="1902.6" cy="1333.09" r="2"/>
<circle clip-path="url(#clip133)" style="fill:#009af9; stroke:none; fill-opacity:0" cx="2032.5" cy="1352.03" r="2"/>
<circle clip-path="url(#clip133)" style="fill:#009af9; stroke:none; fill-opacity:0" cx="2162.41" cy="1299.65" r="2"/>
<circle clip-path="url(#clip133)" style="fill:#009af9; stroke:none; fill-opacity:0" cx="2292.31" cy="1406" r="2"/>
<circle clip-path="url(#clip133)" style="fill:#009af9; stroke:none; fill-opacity:0" cx="2422.22" cy="1306.29" r="2"/>
<circle clip-path="url(#clip133)" style="fill:#009af9; stroke:none; fill-opacity:0" cx="2552.12" cy="1316.35" r="2"/>
<circle clip-path="url(#clip133)" style="fill:#009af9; stroke:none; fill-opacity:0" cx="2682.03" cy="1411.89" r="2"/>
<circle clip-path="url(#clip133)" style="fill:#009af9; stroke:none; fill-opacity:0" cx="2811.93" cy="1323.05" r="2"/>
<circle clip-path="url(#clip133)" style="fill:#009af9; stroke:none; fill-opacity:0" cx="2941.84" cy="1413.48" r="2"/>
<polyline clip-path="url(#clip133)" style="stroke:#ff0000; stroke-linecap:round; stroke-linejoin:round; stroke-width:4; stroke-opacity:1; fill:none" stroke-dasharray="16, 10" points="-2627.32,1261.87 6042.79,1261.87 "/>
<polyline clip-path="url(#clip133)" style="stroke:#ff0000; stroke-linecap:round; stroke-linejoin:round; stroke-width:4; stroke-opacity:1; fill:none" stroke-dasharray="16, 10" points="-2627.32,1406.43 6042.79,1406.43 "/>
</svg>
