<?xml version="1.0" encoding="utf-8"?>
<svg xmlns="http://www.w3.org/2000/svg" xmlns:xlink="http://www.w3.org/1999/xlink" width="1200" height="800" viewBox="0 0 4800 3200">
<defs>
  <clipPath id="clip010">
    <rect x="0" y="0" width="4800" height="3200"/>
  </clipPath>
</defs>
<path clip-path="url(#clip010)" d="M0 3200 L4800 3200 L4800 0 L0 0  Z" fill="#ffffff" fill-rule="evenodd" fill-opacity="1"/>
<defs>
  <clipPath id="clip011">
    <rect x="960" y="0" width="3361" height="3200"/>
  </clipPath>
</defs>
<path clip-path="url(#clip010)" d="M256.389 3007.18 L4752.76 3007.18 L4752.76 123.472 L256.389 123.472  Z" fill="#ffffff" fill-rule="evenodd" fill-opacity="1"/>
<defs>
  <clipPath id="clip012">
    <rect x="256" y="123" width="4497" height="2885"/>
  </clipPath>
</defs>
<polyline clip-path="url(#clip012)" style="stroke:#000000; stroke-linecap:round; stroke-linejoin:round; stroke-width:2; stroke-opacity:0.1; fill:none" points="383.645,3007.18 383.645,123.472 "/>
<polyline clip-path="url(#clip012)" style="stroke:#000000; stroke-linecap:round; stroke-linejoin:round; stroke-width:2; stroke-opacity:0.1; fill:none" points="1760.87,3007.18 1760.87,123.472 "/>
<polyline clip-path="url(#clip012)" style="stroke:#000000; stroke-linecap:round; stroke-linejoin:round; stroke-width:2; stroke-opacity:0.1; fill:none" points="3138.1,3007.18 3138.1,123.472 "/>
<polyline clip-path="url(#clip012)" style="stroke:#000000; stroke-linecap:round; stroke-linejoin:round; stroke-width:2; stroke-opacity:0.1; fill:none" points="4515.32,3007.18 4515.32,123.472 "/>
<polyline clip-path="url(#clip012)" style="stroke:#000000; stroke-linecap:round; stroke-linejoin:round; stroke-width:2; stroke-opacity:0.1; fill:none" points="256.389,2925.57 4752.76,2925.57 "/>
<polyline clip-path="url(#clip012)" style="stroke:#000000; stroke-linecap:round; stroke-linejoin:round; stroke-width:2; stroke-opacity:0.1; fill:none" points="256.389,2210.4 4752.76,2210.4 "/>
<polyline clip-path="url(#clip012)" style="stroke:#000000; stroke-linecap:round; stroke-linejoin:round; stroke-width:2; stroke-opacity:0.1; fill:none" points="256.389,1495.24 4752.76,1495.24 "/>
<polyline clip-path="url(#clip012)" style="stroke:#000000; stroke-linecap:round; stroke-linejoin:round; stroke-width:2; stroke-opacity:0.1; fill:none" points="256.389,780.077 4752.76,780.077 "/>
<polyline clip-path="url(#clip010)" style="stroke:#000000; stroke-linecap:round; stroke-linejoin:round; stroke-width:4; stroke-opacity:1; fill:none" points="256.389,3007.18 4752.76,3007.18 "/>
<polyline clip-path="url(#clip010)" style="stroke:#000000; stroke-linecap:round; stroke-linejoin:round; stroke-width:4; stroke-opacity:1; fill:none" points="383.645,3007.18 383.645,2988.28 "/>
<polyline clip-path="url(#clip010)" style="stroke:#000000; stroke-linecap:round; stroke-linejoin:round; stroke-width:4; stroke-opacity:1; fill:none" points="1760.87,3007.18 1760.87,2988.28 "/>
<polyline clip-path="url(#clip010)" style="stroke:#000000; stroke-linecap:round; stroke-linejoin:round; stroke-width:4; stroke-opacity:1; fill:none" points="3138.1,3007.18 3138.1,2988.28 "/>
<polyline clip-path="url(#clip010)" style="stroke:#000000; stroke-linecap:round; stroke-linejoin:round; stroke-width:4; stroke-opacity:1; fill:none" points="4515.32,3007.18 4515.32,2988.28 "/>
<path clip-path="url(#clip010)" d="M328.171 3084.84 L335.81 3084.84 L335.81 3058.48 L327.499 3060.15 L327.499 3055.89 L335.763 3054.22 L340.439 3054.22 L340.439 3084.84 L348.078 3084.84 L348.078 3088.78 L328.171 3088.78 L328.171 3084.84 Z" fill="#000000" fill-rule="nonzero" fill-opacity="1" /><path clip-path="url(#clip010)" d="M356.342 3054.22 L378.564 3054.22 L378.564 3056.21 L366.018 3088.78 L361.134 3088.78 L372.939 3058.16 L356.342 3058.16 L356.342 3054.22 Z" fill="#000000" fill-rule="nonzero" fill-opacity="1" /><path clip-path="url(#clip010)" d="M397.684 3057.3 Q394.073 3057.3 392.244 3060.86 Q390.439 3064.4 390.439 3071.53 Q390.439 3078.64 392.244 3082.21 Q394.073 3085.75 397.684 3085.75 Q401.319 3085.75 403.124 3082.21 Q404.953 3078.64 404.953 3071.53 Q404.953 3064.4 403.124 3060.86 Q401.319 3057.3 397.684 3057.3 M397.684 3053.59 Q403.494 3053.59 406.55 3058.2 Q409.629 3062.78 409.629 3071.53 Q409.629 3080.26 406.55 3084.87 Q403.494 3089.45 397.684 3089.45 Q391.874 3089.45 388.795 3084.87 Q385.74 3080.26 385.74 3071.53 Q385.74 3062.78 388.795 3058.2 Q391.874 3053.59 397.684 3053.59 Z" fill="#000000" fill-rule="nonzero" fill-opacity="1" /><path clip-path="url(#clip010)" d="M427.846 3057.3 Q424.235 3057.3 422.406 3060.86 Q420.601 3064.4 420.601 3071.53 Q420.601 3078.64 422.406 3082.21 Q424.235 3085.75 427.846 3085.75 Q431.48 3085.75 433.286 3082.21 Q435.115 3078.64 435.115 3071.53 Q435.115 3064.4 433.286 3060.86 Q431.48 3057.3 427.846 3057.3 M427.846 3053.59 Q433.656 3053.59 436.712 3058.2 Q439.791 3062.78 439.791 3071.53 Q439.791 3080.26 436.712 3084.87 Q433.656 3089.45 427.846 3089.45 Q422.036 3089.45 418.957 3084.87 Q415.902 3080.26 415.902 3071.53 Q415.902 3062.78 418.957 3058.2 Q422.036 3053.59 427.846 3053.59 Z" fill="#000000" fill-rule="nonzero" fill-opacity="1" /><path clip-path="url(#clip010)" d="M1705.4 3084.84 L1713.04 3084.84 L1713.04 3058.48 L1704.73 3060.15 L1704.73 3055.89 L1712.99 3054.22 L1717.66 3054.22 L1717.66 3084.84 L1725.3 3084.84 L1725.3 3088.78 L1705.4 3088.78 L1705.4 3084.84 Z" fill="#000000" fill-rule="nonzero" fill-opacity="1" /><path clip-path="url(#clip010)" d="M1744.75 3072.37 Q1741.41 3072.37 1739.49 3074.15 Q1737.6 3075.93 1737.6 3079.06 Q1737.6 3082.18 1739.49 3083.97 Q1741.41 3085.75 1744.75 3085.75 Q1748.08 3085.75 1750 3083.97 Q1751.92 3082.16 1751.92 3079.06 Q1751.92 3075.93 1750 3074.15 Q1748.1 3072.37 1744.75 3072.37 M1740.07 3070.38 Q1737.06 3069.64 1735.37 3067.58 Q1733.71 3065.52 1733.71 3062.55 Q1733.71 3058.41 1736.65 3056 Q1739.61 3053.59 1744.75 3053.59 Q1749.91 3053.59 1752.85 3056 Q1755.79 3058.41 1755.79 3062.55 Q1755.79 3065.52 1754.1 3067.58 Q1752.43 3069.64 1749.45 3070.38 Q1752.83 3071.16 1754.7 3073.46 Q1756.6 3075.75 1756.6 3079.06 Q1756.6 3084.08 1753.52 3086.77 Q1750.47 3089.45 1744.75 3089.45 Q1739.03 3089.45 1735.95 3086.77 Q1732.9 3084.08 1732.9 3079.06 Q1732.9 3075.75 1734.79 3073.46 Q1736.69 3071.16 1740.07 3070.38 M1738.36 3062.99 Q1738.36 3065.68 1740.03 3067.18 Q1741.72 3068.69 1744.75 3068.69 Q1747.76 3068.69 1749.45 3067.18 Q1751.16 3065.68 1751.16 3062.99 Q1751.16 3060.31 1749.45 3058.8 Q1747.76 3057.3 1744.75 3057.3 Q1741.72 3057.3 1740.03 3058.8 Q1738.36 3060.31 1738.36 3062.99 Z" fill="#000000" fill-rule="nonzero" fill-opacity="1" /><path clip-path="url(#clip010)" d="M1774.91 3057.3 Q1771.3 3057.3 1769.47 3060.86 Q1767.66 3064.4 1767.66 3071.53 Q1767.66 3078.64 1769.47 3082.21 Q1771.3 3085.75 1774.91 3085.75 Q1778.54 3085.75 1780.35 3082.21 Q1782.18 3078.64 1782.18 3071.53 Q1782.18 3064.4 1780.35 3060.86 Q1778.54 3057.3 1774.91 3057.3 M1774.91 3053.59 Q1780.72 3053.59 1783.78 3058.2 Q1786.85 3062.78 1786.85 3071.53 Q1786.85 3080.26 1783.78 3084.87 Q1780.72 3089.45 1774.91 3089.45 Q1769.1 3089.45 1766.02 3084.87 Q1762.97 3080.26 1762.97 3071.53 Q1762.97 3062.78 1766.02 3058.2 Q1769.1 3053.59 1774.91 3053.59 Z" fill="#000000" fill-rule="nonzero" fill-opacity="1" /><path clip-path="url(#clip010)" d="M1805.07 3057.3 Q1801.46 3057.3 1799.63 3060.86 Q1797.83 3064.4 1797.83 3071.53 Q1797.83 3078.64 1799.63 3082.21 Q1801.46 3085.75 1805.07 3085.75 Q1808.71 3085.75 1810.51 3082.21 Q1812.34 3078.64 1812.34 3071.53 Q1812.34 3064.4 1810.51 3060.86 Q1808.71 3057.3 1805.07 3057.3 M1805.07 3053.59 Q1810.88 3053.59 1813.94 3058.2 Q1817.02 3062.78 1817.02 3071.53 Q1817.02 3080.26 1813.94 3084.87 Q1810.88 3089.45 1805.07 3089.45 Q1799.26 3089.45 1796.18 3084.87 Q1793.13 3080.26 1793.13 3071.53 Q1793.13 3062.78 1796.18 3058.2 Q1799.26 3053.59 1805.07 3053.59 Z" fill="#000000" fill-rule="nonzero" fill-opacity="1" /><path clip-path="url(#clip010)" d="M3082.62 3084.84 L3090.26 3084.84 L3090.26 3058.48 L3081.95 3060.15 L3081.95 3055.89 L3090.21 3054.22 L3094.89 3054.22 L3094.89 3084.84 L3102.53 3084.84 L3102.53 3088.78 L3082.62 3088.78 L3082.62 3084.84 Z" fill="#000000" fill-rule="nonzero" fill-opacity="1" /><path clip-path="url(#clip010)" d="M3112.11 3088.06 L3112.11 3083.8 Q3113.87 3084.64 3115.68 3085.08 Q3117.48 3085.52 3119.22 3085.52 Q3123.85 3085.52 3126.28 3082.41 Q3128.73 3079.29 3129.08 3072.95 Q3127.74 3074.94 3125.68 3076 Q3123.62 3077.07 3121.12 3077.07 Q3115.93 3077.07 3112.9 3073.94 Q3109.89 3070.79 3109.89 3065.35 Q3109.89 3060.03 3113.04 3056.81 Q3116.19 3053.59 3121.42 3053.59 Q3127.41 3053.59 3130.56 3058.2 Q3133.73 3062.78 3133.73 3071.53 Q3133.73 3079.71 3129.84 3084.59 Q3125.98 3089.45 3119.43 3089.45 Q3117.67 3089.45 3115.86 3089.1 Q3114.06 3088.76 3112.11 3088.06 M3121.42 3073.41 Q3124.57 3073.41 3126.4 3071.26 Q3128.25 3069.1 3128.25 3065.35 Q3128.25 3061.63 3126.4 3059.47 Q3124.57 3057.3 3121.42 3057.3 Q3118.27 3057.3 3116.42 3059.47 Q3114.59 3061.63 3114.59 3065.35 Q3114.59 3069.1 3116.42 3071.26 Q3118.27 3073.41 3121.42 3073.41 Z" fill="#000000" fill-rule="nonzero" fill-opacity="1" /><path clip-path="url(#clip010)" d="M3152.14 3057.3 Q3148.52 3057.3 3146.7 3060.86 Q3144.89 3064.4 3144.89 3071.53 Q3144.89 3078.64 3146.7 3082.21 Q3148.52 3085.75 3152.14 3085.75 Q3155.77 3085.75 3157.58 3082.21 Q3159.4 3078.64 3159.4 3071.53 Q3159.4 3064.4 3157.58 3060.86 Q3155.77 3057.3 3152.14 3057.3 M3152.14 3053.59 Q3157.95 3053.59 3161 3058.2 Q3164.08 3062.78 3164.08 3071.53 Q3164.08 3080.26 3161 3084.87 Q3157.95 3089.45 3152.14 3089.45 Q3146.33 3089.45 3143.25 3084.87 Q3140.19 3080.26 3140.19 3071.53 Q3140.19 3062.78 3143.25 3058.2 Q3146.33 3053.59 3152.14 3053.59 Z" fill="#000000" fill-rule="nonzero" fill-opacity="1" /><path clip-path="url(#clip010)" d="M3182.3 3057.3 Q3178.69 3057.3 3176.86 3060.86 Q3175.05 3064.4 3175.05 3071.53 Q3175.05 3078.64 3176.86 3082.21 Q3178.69 3085.75 3182.3 3085.75 Q3185.93 3085.75 3187.74 3082.21 Q3189.57 3078.64 3189.57 3071.53 Q3189.57 3064.4 3187.74 3060.86 Q3185.93 3057.3 3182.3 3057.3 M3182.3 3053.59 Q3188.11 3053.59 3191.16 3058.2 Q3194.24 3062.78 3194.24 3071.53 Q3194.24 3080.26 3191.16 3084.87 Q3188.11 3089.45 3182.3 3089.45 Q3176.49 3089.45 3173.41 3084.87 Q3170.35 3080.26 3170.35 3071.53 Q3170.35 3062.78 3173.41 3058.2 Q3176.49 3053.59 3182.3 3053.59 Z" fill="#000000" fill-rule="nonzero" fill-opacity="1" /><path clip-path="url(#clip010)" d="M4463.93 3084.84 L4480.25 3084.84 L4480.25 3088.78 L4458.31 3088.78 L4458.31 3084.84 Q4460.97 3082.09 4465.55 3077.46 Q4470.16 3072.81 4471.34 3071.47 Q4473.59 3068.94 4474.47 3067.21 Q4475.37 3065.45 4475.37 3063.76 Q4475.37 3061 4473.42 3059.27 Q4471.5 3057.53 4468.4 3057.53 Q4466.2 3057.53 4463.75 3058.29 Q4461.32 3059.06 4458.54 3060.61 L4458.54 3055.89 Q4461.36 3054.75 4463.82 3054.17 Q4466.27 3053.59 4468.31 3053.59 Q4473.68 3053.59 4476.87 3056.28 Q4480.07 3058.97 4480.07 3063.46 Q4480.07 3065.59 4479.26 3067.51 Q4478.47 3069.4 4476.36 3072 Q4475.79 3072.67 4472.68 3075.89 Q4469.58 3079.08 4463.93 3084.84 Z" fill="#000000" fill-rule="nonzero" fill-opacity="1" /><path clip-path="url(#clip010)" d="M4500.07 3057.3 Q4496.46 3057.3 4494.63 3060.86 Q4492.82 3064.4 4492.82 3071.53 Q4492.82 3078.64 4494.63 3082.21 Q4496.46 3085.75 4500.07 3085.75 Q4503.7 3085.75 4505.51 3082.21 Q4507.34 3078.64 4507.34 3071.53 Q4507.34 3064.4 4505.51 3060.86 Q4503.7 3057.3 4500.07 3057.3 M4500.07 3053.59 Q4505.88 3053.59 4508.93 3058.2 Q4512.01 3062.78 4512.01 3071.53 Q4512.01 3080.26 4508.93 3084.87 Q4505.88 3089.45 4500.07 3089.45 Q4494.26 3089.45 4491.18 3084.87 Q4488.12 3080.26 4488.12 3071.53 Q4488.12 3062.78 4491.18 3058.2 Q4494.26 3053.59 4500.07 3053.59 Z" fill="#000000" fill-rule="nonzero" fill-opacity="1" /><path clip-path="url(#clip010)" d="M4530.23 3057.3 Q4526.62 3057.3 4524.79 3060.86 Q4522.98 3064.4 4522.98 3071.53 Q4522.98 3078.64 4524.79 3082.21 Q4526.62 3085.75 4530.23 3085.75 Q4533.86 3085.75 4535.67 3082.21 Q4537.5 3078.64 4537.5 3071.53 Q4537.5 3064.4 4535.67 3060.86 Q4533.86 3057.3 4530.23 3057.3 M4530.23 3053.59 Q4536.04 3053.59 4539.1 3058.2 Q4542.17 3062.78 4542.17 3071.53 Q4542.17 3080.26 4539.1 3084.87 Q4536.04 3089.45 4530.23 3089.45 Q4524.42 3089.45 4521.34 3084.87 Q4518.29 3080.26 4518.29 3071.53 Q4518.29 3062.78 4521.34 3058.2 Q4524.42 3053.59 4530.23 3053.59 Z" fill="#000000" fill-rule="nonzero" fill-opacity="1" /><path clip-path="url(#clip010)" d="M4560.39 3057.3 Q4556.78 3057.3 4554.95 3060.86 Q4553.15 3064.4 4553.15 3071.53 Q4553.15 3078.64 4554.95 3082.21 Q4556.78 3085.75 4560.39 3085.75 Q4564.03 3085.75 4565.83 3082.21 Q4567.66 3078.64 4567.66 3071.53 Q4567.66 3064.4 4565.83 3060.86 Q4564.03 3057.3 4560.39 3057.3 M4560.39 3053.59 Q4566.2 3053.59 4569.26 3058.2 Q4572.34 3062.78 4572.34 3071.53 Q4572.34 3080.26 4569.26 3084.87 Q4566.2 3089.45 4560.39 3089.45 Q4554.58 3089.45 4551.5 3084.87 Q4548.45 3080.26 4548.45 3071.53 Q4548.45 3062.78 4551.5 3058.2 Q4554.58 3053.59 4560.39 3053.59 Z" fill="#000000" fill-rule="nonzero" fill-opacity="1" /><path clip-path="url(#clip010)" d="M2435.5 3140.52 L2442.41 3140.52 L2455.59 3160.07 L2468.67 3140.52 L2475.58 3140.52 L2458.77 3165.41 L2458.77 3188.04 L2452.31 3188.04 L2452.31 3165.41 L2435.5 3140.52 Z" fill="#000000" fill-rule="nonzero" fill-opacity="1" /><path clip-path="url(#clip010)" d="M2503.43 3168.76 L2503.43 3171.62 L2476.5 3171.62 Q2476.88 3177.67 2480.13 3180.85 Q2483.41 3184 2489.23 3184 Q2492.61 3184 2495.76 3183.17 Q2498.94 3182.35 2502.06 3180.69 L2502.06 3186.23 Q2498.91 3187.57 2495.6 3188.27 Q2492.29 3188.97 2488.88 3188.97 Q2480.35 3188.97 2475.35 3184 Q2470.39 3179.04 2470.39 3170.57 Q2470.39 3161.82 2475.1 3156.69 Q2479.84 3151.54 2487.86 3151.54 Q2495.06 3151.54 2499.23 3156.18 Q2503.43 3160.8 2503.43 3168.76 M2497.57 3167.04 Q2497.51 3162.23 2494.86 3159.37 Q2492.25 3156.5 2487.93 3156.5 Q2483.02 3156.5 2480.06 3159.27 Q2477.14 3162.04 2476.69 3167.07 L2497.57 3167.04 Z" fill="#000000" fill-rule="nonzero" fill-opacity="1" /><path clip-path="url(#clip010)" d="M2529.24 3170.12 Q2522.14 3170.12 2519.4 3171.75 Q2516.67 3173.37 2516.67 3177.29 Q2516.67 3180.4 2518.7 3182.25 Q2520.77 3184.07 2524.31 3184.07 Q2529.18 3184.07 2532.1 3180.63 Q2535.06 3177.16 2535.06 3171.43 L2535.06 3170.12 L2529.24 3170.12 M2540.92 3167.71 L2540.92 3188.04 L2535.06 3188.04 L2535.06 3182.63 Q2533.06 3185.88 2530.07 3187.44 Q2527.08 3188.97 2522.75 3188.97 Q2517.27 3188.97 2514.03 3185.91 Q2510.81 3182.82 2510.81 3177.67 Q2510.81 3171.65 2514.82 3168.6 Q2518.86 3165.54 2526.85 3165.54 L2535.06 3165.54 L2535.06 3164.97 Q2535.06 3160.93 2532.39 3158.73 Q2529.75 3156.5 2524.94 3156.5 Q2521.89 3156.5 2518.99 3157.23 Q2516.09 3157.97 2513.42 3159.43 L2513.42 3154.02 Q2516.64 3152.78 2519.66 3152.17 Q2522.68 3151.54 2525.55 3151.54 Q2533.28 3151.54 2537.1 3155.55 Q2540.92 3159.56 2540.92 3167.71 Z" fill="#000000" fill-rule="nonzero" fill-opacity="1" /><path clip-path="url(#clip010)" d="M2573.64 3157.87 Q2572.65 3157.3 2571.48 3157.04 Q2570.33 3156.76 2568.93 3156.76 Q2563.96 3156.76 2561.29 3160 Q2558.65 3163.22 2558.65 3169.27 L2558.65 3188.04 L2552.76 3188.04 L2552.76 3152.4 L2558.65 3152.4 L2558.65 3157.93 Q2560.5 3154.69 2563.46 3153.13 Q2566.42 3151.54 2570.65 3151.54 Q2571.25 3151.54 2571.99 3151.63 Q2572.72 3151.7 2573.61 3151.85 L2573.64 3157.87 Z" fill="#000000" fill-rule="nonzero" fill-opacity="1" /><polyline clip-path="url(#clip010)" style="stroke:#000000; stroke-linecap:round; stroke-linejoin:round; stroke-width:4; stroke-opacity:1; fill:none" points="256.389,3007.18 256.389,123.472 "/>
<polyline clip-path="url(#clip010)" style="stroke:#000000; stroke-linecap:round; stroke-linejoin:round; stroke-width:4; stroke-opacity:1; fill:none" points="256.389,2925.57 275.287,2925.57 "/>
<polyline clip-path="url(#clip010)" style="stroke:#000000; stroke-linecap:round; stroke-linejoin:round; stroke-width:4; stroke-opacity:1; fill:none" points="256.389,2210.4 275.287,2210.4 "/>
<polyline clip-path="url(#clip010)" style="stroke:#000000; stroke-linecap:round; stroke-linejoin:round; stroke-width:4; stroke-opacity:1; fill:none" points="256.389,1495.24 275.287,1495.24 "/>
<polyline clip-path="url(#clip010)" style="stroke:#000000; stroke-linecap:round; stroke-linejoin:round; stroke-width:4; stroke-opacity:1; fill:none" points="256.389,780.077 275.287,780.077 "/>
<path clip-path="url(#clip010)" d="M172.445 2911.36 Q168.834 2911.36 167.005 2914.93 Q165.2 2918.47 165.2 2925.6 Q165.2 2932.71 167.005 2936.27 Q168.834 2939.81 172.445 2939.81 Q176.079 2939.81 177.885 2936.27 Q179.713 2932.71 179.713 2925.6 Q179.713 2918.47 177.885 2914.93 Q176.079 2911.36 172.445 2911.36 M172.445 2907.66 Q178.255 2907.66 181.311 2912.27 Q184.389 2916.85 184.389 2925.6 Q184.389 2934.33 181.311 2938.93 Q178.255 2943.52 172.445 2943.52 Q166.635 2943.52 163.556 2938.93 Q160.501 2934.33 160.501 2925.6 Q160.501 2916.85 163.556 2912.27 Q166.635 2907.66 172.445 2907.66 Z" fill="#000000" fill-rule="nonzero" fill-opacity="1" /><path clip-path="url(#clip010)" d="M132.329 2193.12 L150.686 2193.12 L150.686 2197.06 L136.612 2197.06 L136.612 2205.53 Q137.63 2205.18 138.649 2205.02 Q139.667 2204.84 140.686 2204.84 Q146.473 2204.84 149.852 2208.01 Q153.232 2211.18 153.232 2216.59 Q153.232 2222.17 149.76 2225.28 Q146.288 2228.35 139.968 2228.35 Q137.792 2228.35 135.524 2227.98 Q133.279 2227.61 130.871 2226.87 L130.871 2222.17 Q132.954 2223.31 135.177 2223.86 Q137.399 2224.42 139.876 2224.42 Q143.88 2224.42 146.218 2222.31 Q148.556 2220.21 148.556 2216.59 Q148.556 2212.98 146.218 2210.88 Q143.88 2208.77 139.876 2208.77 Q138.001 2208.77 136.126 2209.19 Q134.274 2209.6 132.329 2210.48 L132.329 2193.12 Z" fill="#000000" fill-rule="nonzero" fill-opacity="1" /><path clip-path="url(#clip010)" d="M172.445 2196.2 Q168.834 2196.2 167.005 2199.77 Q165.2 2203.31 165.2 2210.44 Q165.2 2217.54 167.005 2221.11 Q168.834 2224.65 172.445 2224.65 Q176.079 2224.65 177.885 2221.11 Q179.713 2217.54 179.713 2210.44 Q179.713 2203.31 177.885 2199.77 Q176.079 2196.2 172.445 2196.2 M172.445 2192.5 Q178.255 2192.5 181.311 2197.1 Q184.389 2201.69 184.389 2210.44 Q184.389 2219.16 181.311 2223.77 Q178.255 2228.35 172.445 2228.35 Q166.635 2228.35 163.556 2223.77 Q160.501 2219.16 160.501 2210.44 Q160.501 2201.69 163.556 2197.1 Q166.635 2192.5 172.445 2192.5 Z" fill="#000000" fill-rule="nonzero" fill-opacity="1" /><path clip-path="url(#clip010)" d="M102.931 1508.58 L110.57 1508.58 L110.57 1482.22 L102.26 1483.89 L102.26 1479.63 L110.524 1477.96 L115.2 1477.96 L115.2 1508.58 L122.839 1508.58 L122.839 1512.52 L102.931 1512.52 L102.931 1508.58 Z" fill="#000000" fill-rule="nonzero" fill-opacity="1" /><path clip-path="url(#clip010)" d="M142.283 1481.04 Q138.672 1481.04 136.843 1484.6 Q135.038 1488.15 135.038 1495.27 Q135.038 1502.38 136.843 1505.95 Q138.672 1509.49 142.283 1509.49 Q145.917 1509.49 147.723 1505.95 Q149.552 1502.38 149.552 1495.27 Q149.552 1488.15 147.723 1484.6 Q145.917 1481.04 142.283 1481.04 M142.283 1477.34 Q148.093 1477.34 151.149 1481.94 Q154.227 1486.52 154.227 1495.27 Q154.227 1504 151.149 1508.61 Q148.093 1513.19 142.283 1513.19 Q136.473 1513.19 133.394 1508.61 Q130.339 1504 130.339 1495.27 Q130.339 1486.52 133.394 1481.94 Q136.473 1477.34 142.283 1477.34 Z" fill="#000000" fill-rule="nonzero" fill-opacity="1" /><path clip-path="url(#clip010)" d="M172.445 1481.04 Q168.834 1481.04 167.005 1484.6 Q165.2 1488.15 165.2 1495.27 Q165.2 1502.38 167.005 1505.95 Q168.834 1509.49 172.445 1509.49 Q176.079 1509.49 177.885 1505.95 Q179.713 1502.38 179.713 1495.27 Q179.713 1488.15 177.885 1484.6 Q176.079 1481.04 172.445 1481.04 M172.445 1477.34 Q178.255 1477.34 181.311 1481.94 Q184.389 1486.52 184.389 1495.27 Q184.389 1504 181.311 1508.61 Q178.255 1513.19 172.445 1513.19 Q166.635 1513.19 163.556 1508.61 Q160.501 1504 160.501 1495.27 Q160.501 1486.52 163.556 1481.94 Q166.635 1477.34 172.445 1477.34 Z" fill="#000000" fill-rule="nonzero" fill-opacity="1" /><path clip-path="url(#clip010)" d="M102.931 793.422 L110.57 793.422 L110.57 767.057 L102.26 768.723 L102.26 764.464 L110.524 762.797 L115.2 762.797 L115.2 793.422 L122.839 793.422 L122.839 797.357 L102.931 797.357 L102.931 793.422 Z" fill="#000000" fill-rule="nonzero" fill-opacity="1" /><path clip-path="url(#clip010)" d="M132.329 762.797 L150.686 762.797 L150.686 766.732 L136.612 766.732 L136.612 775.205 Q137.63 774.857 138.649 774.695 Q139.667 774.51 140.686 774.51 Q146.473 774.51 149.852 777.681 Q153.232 780.853 153.232 786.269 Q153.232 791.848 149.76 794.95 Q146.288 798.029 139.968 798.029 Q137.792 798.029 135.524 797.658 Q133.279 797.288 130.871 796.547 L130.871 791.848 Q132.954 792.982 135.177 793.538 Q137.399 794.093 139.876 794.093 Q143.88 794.093 146.218 791.987 Q148.556 789.881 148.556 786.269 Q148.556 782.658 146.218 780.552 Q143.88 778.445 139.876 778.445 Q138.001 778.445 136.126 778.862 Q134.274 779.279 132.329 780.158 L132.329 762.797 Z" fill="#000000" fill-rule="nonzero" fill-opacity="1" /><path clip-path="url(#clip010)" d="M172.445 765.876 Q168.834 765.876 167.005 769.441 Q165.2 772.982 165.2 780.112 Q165.2 787.218 167.005 790.783 Q168.834 794.325 172.445 794.325 Q176.079 794.325 177.885 790.783 Q179.713 787.218 179.713 780.112 Q179.713 772.982 177.885 769.441 Q176.079 765.876 172.445 765.876 M172.445 762.172 Q178.255 762.172 181.311 766.779 Q184.389 771.362 184.389 780.112 Q184.389 788.839 181.311 793.445 Q178.255 798.029 172.445 798.029 Q166.635 798.029 163.556 793.445 Q160.501 788.839 160.501 780.112 Q160.501 771.362 163.556 766.779 Q166.635 762.172 172.445 762.172 Z" fill="#000000" fill-rule="nonzero" fill-opacity="1" /><path clip-path="url(#clip010)" d="M-29.9562 1905.02 L-23.686 1905.02 Q-25.4366 1908.68 -26.296 1911.92 Q-27.1553 1915.17 -27.1553 1918.19 Q-27.1553 1923.44 -25.1183 1926.31 Q-23.0813 1929.14 -19.3255 1929.14 Q-16.1745 1929.14 -14.5512 1927.26 Q-12.9598 1925.35 -11.9731 1920.07 L-11.1774 1916.19 Q-9.80878 1908.99 -6.33947 1905.59 Q-2.90199 1902.15 2.8908 1902.15 Q9.79759 1902.15 13.3624 1906.8 Q16.9272 1911.41 16.9272 1920.36 Q16.9272 1923.73 16.1633 1927.55 Q15.3994 1931.34 13.9035 1935.41 L7.28314 1935.41 Q9.47931 1931.5 10.5933 1927.74 Q11.7073 1923.99 11.7073 1920.36 Q11.7073 1914.85 9.54297 1911.86 Q7.37862 1908.87 3.36823 1908.87 Q-0.132909 1908.87 -2.10628 1911.03 Q-4.07965 1913.16 -5.06633 1918.07 L-5.83022 1921.98 Q-7.2625 1929.17 -10.318 1932.39 Q-13.3736 1935.6 -18.8163 1935.6 Q-25.1183 1935.6 -28.7468 1931.18 Q-32.3752 1926.72 -32.3752 1918.93 Q-32.3752 1915.58 -31.7705 1912.11 Q-31.1657 1908.64 -29.9562 1905.02 Z" fill="#000000" fill-rule="nonzero" fill-opacity="1" /><path clip-path="url(#clip010)" d="M1.93595 1892.98 L-19.6438 1892.98 L-19.6438 1887.13 L1.71315 1887.13 Q6.77388 1887.13 9.32017 1885.15 Q11.8346 1883.18 11.8346 1879.23 Q11.8346 1874.49 8.81091 1871.76 Q5.7872 1868.99 0.567319 1868.99 L-19.6438 1868.99 L-19.6438 1863.13 L16.0042 1863.13 L16.0042 1868.99 L10.5296 1868.99 Q13.7762 1871.12 15.3676 1873.95 Q16.9272 1876.75 16.9272 1880.48 Q16.9272 1886.62 13.1078 1889.8 Q9.28834 1892.98 1.93595 1892.98 M-20.5032 1878.25 L-20.5032 1878.25 Z" fill="#000000" fill-rule="nonzero" fill-opacity="1" /><path clip-path="url(#clip010)" d="M-5.51193 1821.43 L16.0042 1821.43 L16.0042 1827.29 L-5.32096 1827.29 Q-10.3817 1827.29 -12.8962 1829.26 Q-15.4106 1831.24 -15.4106 1835.18 Q-15.4106 1839.93 -12.3869 1842.66 Q-9.36318 1845.4 -4.1433 1845.4 L16.0042 1845.4 L16.0042 1851.29 L-19.6438 1851.29 L-19.6438 1845.4 L-14.1056 1845.4 Q-17.3203 1843.3 -18.9117 1840.47 Q-20.5032 1837.6 -20.5032 1833.88 Q-20.5032 1827.74 -16.6837 1824.59 Q-12.8962 1821.43 -5.51193 1821.43 Z" fill="#000000" fill-rule="nonzero" fill-opacity="1" /><path clip-path="url(#clip010)" d="M-18.5935 1787.03 L-13.0553 1787.03 Q-14.3284 1789.51 -14.965 1792.18 Q-15.6016 1794.86 -15.6016 1797.72 Q-15.6016 1802.08 -14.2648 1804.28 Q-12.928 1806.44 -10.2544 1806.44 Q-8.21736 1806.44 -7.0397 1804.88 Q-5.89387 1803.32 -4.84353 1798.61 L-4.39793 1796.61 Q-3.06113 1790.37 -0.610337 1787.76 Q1.80863 1785.12 6.16914 1785.12 Q11.1344 1785.12 14.0308 1789.06 Q16.9272 1792.98 16.9272 1799.85 Q16.9272 1802.72 16.3543 1805.84 Q15.8132 1808.93 14.6992 1812.36 L8.65177 1812.36 Q10.3387 1809.12 11.198 1805.97 Q12.0256 1802.81 12.0256 1799.73 Q12.0256 1795.59 10.6251 1793.36 Q9.19285 1791.13 6.61474 1791.13 Q4.2276 1791.13 2.95446 1792.76 Q1.68132 1794.35 0.503662 1799.79 L0.0262338 1801.83 Q-1.11959 1807.27 -3.4749 1809.69 Q-5.86204 1812.11 -9.99975 1812.11 Q-15.0287 1812.11 -17.7659 1808.54 Q-20.5032 1804.98 -20.5032 1798.42 Q-20.5032 1795.18 -20.0257 1792.31 Q-19.5483 1789.45 -18.5935 1787.03 Z" fill="#000000" fill-rule="nonzero" fill-opacity="1" /><path clip-path="url(#clip010)" d="M10.657 1770.13 L29.5631 1770.13 L29.5631 1776.01 L-19.6438 1776.01 L-19.6438 1770.13 L-14.2329 1770.13 Q-17.4158 1768.28 -18.9436 1765.48 Q-20.5032 1762.65 -20.5032 1758.73 Q-20.5032 1752.24 -15.3469 1748.2 Q-10.1907 1744.12 -1.78799 1744.12 Q6.61474 1744.12 11.771 1748.2 Q16.9272 1752.24 16.9272 1758.73 Q16.9272 1762.65 15.3994 1765.48 Q13.8398 1768.28 10.657 1770.13 M-1.78799 1750.2 Q-8.24918 1750.2 -11.9095 1752.88 Q-15.6016 1755.52 -15.6016 1760.16 Q-15.6016 1764.81 -11.9095 1767.48 Q-8.24918 1770.13 -1.78799 1770.13 Q4.6732 1770.13 8.36531 1767.48 Q12.0256 1764.81 12.0256 1760.16 Q12.0256 1755.52 8.36531 1752.88 Q4.6732 1750.2 -1.78799 1750.2 Z" fill="#000000" fill-rule="nonzero" fill-opacity="1" /><path clip-path="url(#clip010)" d="M-15.5379 1720.6 Q-15.5379 1725.31 -11.8458 1728.05 Q-8.18553 1730.79 -1.78799 1730.79 Q4.60954 1730.79 8.30165 1728.08 Q11.9619 1725.34 11.9619 1720.6 Q11.9619 1715.92 8.26982 1713.19 Q4.57771 1710.45 -1.78799 1710.45 Q-8.12187 1710.45 -11.814 1713.19 Q-15.5379 1715.92 -15.5379 1720.6 M-20.5032 1720.6 Q-20.5032 1712.96 -15.5379 1708.6 Q-10.5727 1704.24 -1.78799 1704.24 Q6.96485 1704.24 11.9619 1708.6 Q16.9272 1712.96 16.9272 1720.6 Q16.9272 1728.27 11.9619 1732.63 Q6.96485 1736.96 -1.78799 1736.96 Q-10.5727 1736.96 -15.5379 1732.63 Q-20.5032 1728.27 -20.5032 1720.6 Z" fill="#000000" fill-rule="nonzero" fill-opacity="1" /><path clip-path="url(#clip010)" d="M-29.7653 1688.74 L-19.6438 1688.74 L-19.6438 1676.68 L-15.0923 1676.68 L-15.0923 1688.74 L4.25943 1688.74 Q8.61994 1688.74 9.86125 1687.56 Q11.1026 1686.35 11.1026 1682.69 L11.1026 1676.68 L16.0042 1676.68 L16.0042 1682.69 Q16.0042 1689.47 13.4897 1692.05 Q10.9434 1694.63 4.25943 1694.63 L-15.0923 1694.63 L-15.0923 1698.93 L-19.6438 1698.93 L-19.6438 1694.63 L-29.7653 1694.63 L-29.7653 1688.74 Z" fill="#000000" fill-rule="nonzero" fill-opacity="1" /><path clip-path="url(#clip010)" d="M-31.5158 1648 L-31.5158 1639.34 L8.238 1618.27 L-31.5158 1618.27 L-31.5158 1612.03 L16.0042 1612.03 L16.0042 1620.69 L-23.7497 1641.76 L16.0042 1641.76 L16.0042 1648 L-31.5158 1648 Z" fill="#000000" fill-rule="nonzero" fill-opacity="1" /><path clip-path="url(#clip010)" d="M1.93595 1600.1 L-19.6438 1600.1 L-19.6438 1594.24 L1.71315 1594.24 Q6.77388 1594.24 9.32017 1592.27 Q11.8346 1590.3 11.8346 1586.35 Q11.8346 1581.61 8.81091 1578.87 Q5.7872 1576.1 0.567319 1576.1 L-19.6438 1576.1 L-19.6438 1570.24 L16.0042 1570.24 L16.0042 1576.1 L10.5296 1576.1 Q13.7762 1578.23 15.3676 1581.07 Q16.9272 1583.87 16.9272 1587.59 Q16.9272 1593.73 13.1078 1596.92 Q9.28834 1600.1 1.93595 1600.1 M-20.5032 1585.36 L-20.5032 1585.36 Z" fill="#000000" fill-rule="nonzero" fill-opacity="1" /><path clip-path="url(#clip010)" d="M-12.8007 1530.43 Q-16.7474 1528.23 -18.6253 1525.17 Q-20.5032 1522.12 -20.5032 1517.98 Q-20.5032 1512.41 -16.5883 1509.39 Q-12.7052 1506.36 -5.51193 1506.36 L16.0042 1506.36 L16.0042 1512.25 L-5.32096 1512.25 Q-10.4454 1512.25 -12.928 1514.07 Q-15.4106 1515.88 -15.4106 1519.6 Q-15.4106 1524.16 -12.3869 1526.8 Q-9.36318 1529.44 -4.1433 1529.44 L16.0042 1529.44 L16.0042 1535.33 L-5.32096 1535.33 Q-10.4772 1535.33 -12.928 1537.14 Q-15.4106 1538.96 -15.4106 1542.74 Q-15.4106 1547.23 -12.3551 1549.87 Q-9.33135 1552.51 -4.1433 1552.51 L16.0042 1552.51 L16.0042 1558.4 L-19.6438 1558.4 L-19.6438 1552.51 L-14.1056 1552.51 Q-17.384 1550.51 -18.9436 1547.71 Q-20.5032 1544.91 -20.5032 1541.06 Q-20.5032 1537.17 -18.5298 1534.47 Q-16.5564 1531.73 -12.8007 1530.43 Z" fill="#000000" fill-rule="nonzero" fill-opacity="1" /><path clip-path="url(#clip010)" d="M-1.78799 1469.09 Q-8.24918 1469.09 -11.9095 1471.77 Q-15.6016 1474.41 -15.6016 1479.05 Q-15.6016 1483.7 -11.9095 1486.38 Q-8.24918 1489.02 -1.78799 1489.02 Q4.6732 1489.02 8.36531 1486.38 Q12.0256 1483.7 12.0256 1479.05 Q12.0256 1474.41 8.36531 1471.77 Q4.6732 1469.09 -1.78799 1469.09 M-14.2329 1489.02 Q-17.4158 1487.17 -18.9436 1484.37 Q-20.5032 1481.54 -20.5032 1477.62 Q-20.5032 1471.13 -15.3469 1467.09 Q-10.1907 1463.01 -1.78799 1463.01 Q6.61474 1463.01 11.771 1467.09 Q16.9272 1471.13 16.9272 1477.62 Q16.9272 1481.54 15.3994 1484.37 Q13.8398 1487.17 10.657 1489.02 L16.0042 1489.02 L16.0042 1494.91 L-33.521 1494.91 L-33.521 1489.02 L-14.2329 1489.02 Z" fill="#000000" fill-rule="nonzero" fill-opacity="1" /><path clip-path="url(#clip010)" d="M-3.28393 1422.81 L-0.419366 1422.81 L-0.419366 1449.74 Q5.62806 1449.36 8.81091 1446.11 Q11.9619 1442.83 11.9619 1437.01 Q11.9619 1433.64 11.1344 1430.48 Q10.3069 1427.3 8.65177 1424.18 L14.1899 1424.18 Q15.5267 1427.33 16.227 1430.64 Q16.9272 1433.95 16.9272 1437.36 Q16.9272 1445.89 11.9619 1450.89 Q6.99668 1455.85 -1.46971 1455.85 Q-10.2226 1455.85 -15.3469 1451.14 Q-20.5032 1446.4 -20.5032 1438.38 Q-20.5032 1431.18 -15.8562 1427.02 Q-11.2411 1422.81 -3.28393 1422.81 M-5.00267 1428.67 Q-9.80878 1428.73 -12.6734 1431.38 Q-15.5379 1433.99 -15.5379 1438.31 Q-15.5379 1443.22 -12.7688 1446.18 Q-9.99975 1449.1 -4.97085 1449.55 L-5.00267 1428.67 Z" fill="#000000" fill-rule="nonzero" fill-opacity="1" /><path clip-path="url(#clip010)" d="M-14.1693 1392.54 Q-14.7422 1393.53 -14.9968 1394.71 Q-15.2833 1395.85 -15.2833 1397.26 Q-15.2833 1402.22 -12.0368 1404.89 Q-8.8221 1407.54 -2.77468 1407.54 L16.0042 1407.54 L16.0042 1413.42 L-19.6438 1413.42 L-19.6438 1407.54 L-14.1056 1407.54 Q-17.3521 1405.69 -18.9117 1402.73 Q-20.5032 1399.77 -20.5032 1395.54 Q-20.5032 1394.93 -20.4077 1394.2 Q-20.344 1393.47 -20.1849 1392.58 L-14.1693 1392.54 Z" fill="#000000" fill-rule="nonzero" fill-opacity="1" /><path clip-path="url(#clip010)" d="M-33.4574 1351.61 Q-26.1368 1355.88 -18.9754 1357.95 Q-11.814 1360.02 -4.46159 1360.02 Q2.8908 1360.02 10.1159 1357.95 Q17.3091 1355.85 24.5979 1351.61 L24.5979 1356.71 Q17.1182 1361.48 9.89308 1363.87 Q2.668 1366.22 -4.46159 1366.22 Q-11.5594 1366.22 -18.7526 1363.87 Q-25.9458 1361.51 -33.4574 1356.71 L-33.4574 1351.61 Z" fill="#000000" fill-rule="nonzero" fill-opacity="1" /><path clip-path="url(#clip010)" d="M-29.9562 1311.51 L-23.686 1311.51 Q-25.4366 1315.17 -26.296 1318.42 Q-27.1553 1321.66 -27.1553 1324.69 Q-27.1553 1329.94 -25.1183 1332.8 Q-23.0813 1335.64 -19.3255 1335.64 Q-16.1745 1335.64 -14.5512 1333.76 Q-12.9598 1331.85 -11.9731 1326.56 L-11.1774 1322.68 Q-9.80878 1315.49 -6.33947 1312.08 Q-2.90199 1308.64 2.8908 1308.64 Q9.79759 1308.64 13.3624 1313.29 Q16.9272 1317.91 16.9272 1326.85 Q16.9272 1330.22 16.1633 1334.04 Q15.3994 1337.83 13.9035 1341.91 L7.28314 1341.91 Q9.47931 1337.99 10.5933 1334.23 Q11.7073 1330.48 11.7073 1326.85 Q11.7073 1321.34 9.54297 1318.35 Q7.37862 1315.36 3.36823 1315.36 Q-0.132909 1315.36 -2.10628 1317.52 Q-4.07965 1319.66 -5.06633 1324.56 L-5.83022 1328.47 Q-7.2625 1335.67 -10.318 1338.88 Q-13.3736 1342.1 -18.8163 1342.1 Q-25.1183 1342.1 -28.7468 1337.67 Q-32.3752 1333.22 -32.3752 1325.42 Q-32.3752 1322.08 -31.7705 1318.61 Q-31.1657 1315.14 -29.9562 1311.51 Z" fill="#000000" fill-rule="nonzero" fill-opacity="1" /><path clip-path="url(#clip010)" d="M-29.9562 1270.13 L-23.686 1270.13 Q-25.4366 1273.79 -26.296 1277.04 Q-27.1553 1280.29 -27.1553 1283.31 Q-27.1553 1288.56 -25.1183 1291.43 Q-23.0813 1294.26 -19.3255 1294.26 Q-16.1745 1294.26 -14.5512 1292.38 Q-12.9598 1290.47 -11.9731 1285.19 L-11.1774 1281.3 Q-9.80878 1274.11 -6.33947 1270.71 Q-2.90199 1267.27 2.8908 1267.27 Q9.79759 1267.27 13.3624 1271.91 Q16.9272 1276.53 16.9272 1285.47 Q16.9272 1288.85 16.1633 1292.67 Q15.3994 1296.45 13.9035 1300.53 L7.28314 1300.53 Q9.47931 1296.61 10.5933 1292.86 Q11.7073 1289.1 11.7073 1285.47 Q11.7073 1279.97 9.54297 1276.98 Q7.37862 1273.98 3.36823 1273.98 Q-0.132909 1273.98 -2.10628 1276.15 Q-4.07965 1278.28 -5.06633 1283.18 L-5.83022 1287.1 Q-7.2625 1294.29 -10.318 1297.5 Q-13.3736 1300.72 -18.8163 1300.72 Q-25.1183 1300.72 -28.7468 1296.3 Q-32.3752 1291.84 -32.3752 1284.04 Q-32.3752 1280.7 -31.7705 1277.23 Q-31.1657 1273.76 -29.9562 1270.13 Z" fill="#000000" fill-rule="nonzero" fill-opacity="1" /><path clip-path="url(#clip010)" d="M-31.5158 1257.24 L-31.5158 1248.58 L8.238 1227.51 L-31.5158 1227.51 L-31.5158 1221.28 L16.0042 1221.28 L16.0042 1229.93 L-23.7497 1251 L16.0042 1251 L16.0042 1257.24 L-31.5158 1257.24 Z" fill="#000000" fill-rule="nonzero" fill-opacity="1" /><path clip-path="url(#clip010)" d="M-33.4574 1209.66 L-33.4574 1204.57 Q-25.9458 1199.79 -18.7526 1197.44 Q-11.5594 1195.05 -4.46159 1195.05 Q2.668 1195.05 9.89308 1197.44 Q17.1182 1199.79 24.5979 1204.57 L24.5979 1209.66 Q17.3091 1205.42 10.1159 1203.36 Q2.8908 1201.26 -4.46159 1201.26 Q-11.814 1201.26 -18.9754 1203.36 Q-26.1368 1205.42 -33.4574 1209.66 Z" fill="#000000" fill-rule="nonzero" fill-opacity="1" /><path clip-path="url(#clip010)" d="M2031.83 12.096 L2040.62 12.096 L2057.39 36.9686 L2074.04 12.096 L2082.83 12.096 L2061.44 43.7741 L2061.44 72.576 L2053.22 72.576 L2053.22 43.7741 L2031.83 12.096 Z" fill="#000000" fill-rule="nonzero" fill-opacity="1" /><path clip-path="url(#clip010)" d="M2118.28 48.0275 L2118.28 51.6733 L2084.01 51.6733 Q2084.49 59.3701 2088.63 63.421 Q2092.8 67.4314 2100.21 67.4314 Q2104.51 67.4314 2108.52 66.3781 Q2112.57 65.3249 2116.54 63.2184 L2116.54 70.267 Q2112.53 71.9684 2108.31 72.8596 Q2104.1 73.7508 2099.77 73.7508 Q2088.91 73.7508 2082.55 67.4314 Q2076.23 61.1119 2076.23 50.3365 Q2076.23 39.1965 2082.23 32.6746 Q2088.26 26.1121 2098.47 26.1121 Q2107.62 26.1121 2112.93 32.0264 Q2118.28 37.9003 2118.28 48.0275 M2110.82 45.84 Q2110.74 39.7232 2107.38 36.0774 Q2104.06 32.4315 2098.55 32.4315 Q2092.31 32.4315 2088.54 35.9558 Q2084.82 39.4801 2084.25 45.8805 L2110.82 45.84 Z" fill="#000000" fill-rule="nonzero" fill-opacity="1" /><path clip-path="url(#clip010)" d="M2151.13 49.7694 Q2142.1 49.7694 2138.61 51.8354 Q2135.13 53.9013 2135.13 58.8839 Q2135.13 62.8538 2137.72 65.2034 Q2140.36 67.5124 2144.85 67.5124 Q2151.05 67.5124 2154.78 63.1374 Q2158.54 58.7219 2158.54 51.4303 L2158.54 49.7694 L2151.13 49.7694 M2166 46.6907 L2166 72.576 L2158.54 72.576 L2158.54 65.6895 Q2155.99 69.8214 2152.18 71.8063 Q2148.38 73.7508 2142.87 73.7508 Q2135.9 73.7508 2131.77 69.8619 Q2127.68 65.9325 2127.68 59.3701 Q2127.68 51.7138 2132.78 47.825 Q2137.93 43.9361 2148.09 43.9361 L2158.54 43.9361 L2158.54 43.2069 Q2158.54 38.0623 2155.14 35.2672 Q2151.78 32.4315 2145.66 32.4315 Q2141.77 32.4315 2138.09 33.3632 Q2134.4 34.295 2131 36.1584 L2131 29.2718 Q2135.09 27.692 2138.94 26.9223 Q2142.79 26.1121 2146.43 26.1121 Q2156.28 26.1121 2161.14 31.2163 Q2166 36.3204 2166 46.6907 Z" fill="#000000" fill-rule="nonzero" fill-opacity="1" /><path clip-path="url(#clip010)" d="M2207.64 34.1734 Q2206.39 33.4443 2204.89 33.1202 Q2203.43 32.7556 2201.65 32.7556 Q2195.33 32.7556 2191.92 36.8875 Q2188.56 40.9789 2188.56 48.6757 L2188.56 72.576 L2181.07 72.576 L2181.07 27.2059 L2188.56 27.2059 L2188.56 34.2544 Q2190.91 30.1225 2194.68 28.1376 Q2198.45 26.1121 2203.83 26.1121 Q2204.6 26.1121 2205.53 26.2337 Q2206.47 26.3147 2207.6 26.5172 L2207.64 34.1734 Z" fill="#000000" fill-rule="nonzero" fill-opacity="1" /><path clip-path="url(#clip010)" d="M2215.46 9.54393 L2222.91 9.54393 L2222.91 72.576 L2215.46 72.576 L2215.46 9.54393 Z" fill="#000000" fill-rule="nonzero" fill-opacity="1" /><path clip-path="url(#clip010)" d="M2257.39 76.7889 Q2254.23 84.8907 2251.23 87.3618 Q2248.23 89.8329 2243.21 89.8329 L2237.25 89.8329 L2237.25 83.5945 L2241.63 83.5945 Q2244.71 83.5945 2246.41 82.1361 Q2248.11 80.6778 2250.18 75.2496 L2251.51 71.8468 L2233.16 27.2059 L2241.06 27.2059 L2255.24 62.6918 L2269.42 27.2059 L2277.32 27.2059 L2257.39 76.7889 Z" fill="#000000" fill-rule="nonzero" fill-opacity="1" /><path clip-path="url(#clip010)" d="M2350.56 14.0809 L2350.56 22.0612 Q2345.9 19.8332 2341.77 18.7395 Q2337.63 17.6457 2333.79 17.6457 Q2327.1 17.6457 2323.46 20.2383 Q2319.85 22.8309 2319.85 27.611 Q2319.85 31.6214 2322.24 33.6873 Q2324.67 35.7128 2331.4 36.9686 L2336.34 37.9813 Q2345.49 39.7232 2349.83 44.1387 Q2354.2 48.5136 2354.2 55.8863 Q2354.2 64.6767 2348.29 69.2137 Q2342.41 73.7508 2331.03 73.7508 Q2326.74 73.7508 2321.88 72.7785 Q2317.06 71.8063 2311.87 69.9024 L2311.87 61.4765 Q2316.85 64.2716 2321.63 65.6895 Q2326.41 67.1073 2331.03 67.1073 Q2338.04 67.1073 2341.85 64.3527 Q2345.66 61.598 2345.66 56.4939 Q2345.66 52.0379 2342.9 49.5264 Q2340.19 47.0148 2333.95 45.759 L2328.97 44.7868 Q2319.81 42.9639 2315.72 39.075 Q2311.63 35.1862 2311.63 28.2591 Q2311.63 20.2383 2317.26 15.6203 Q2322.93 11.0023 2332.85 11.0023 Q2337.11 11.0023 2341.52 11.7719 Q2345.94 12.5416 2350.56 14.0809 Z" fill="#000000" fill-rule="nonzero" fill-opacity="1" /><path clip-path="url(#clip010)" d="M2365.87 54.671 L2365.87 27.2059 L2373.32 27.2059 L2373.32 54.3874 Q2373.32 60.8284 2375.83 64.0691 Q2378.35 67.2693 2383.37 67.2693 Q2389.41 67.2693 2392.89 63.421 Q2396.41 59.5726 2396.41 52.9291 L2396.41 27.2059 L2403.87 27.2059 L2403.87 72.576 L2396.41 72.576 L2396.41 65.6084 Q2393.7 69.7404 2390.09 71.7658 Q2386.53 73.7508 2381.79 73.7508 Q2373.97 73.7508 2369.92 68.8897 Q2365.87 64.0286 2365.87 54.671 M2384.63 26.1121 L2384.63 26.1121 Z" fill="#000000" fill-rule="nonzero" fill-opacity="1" /><path clip-path="url(#clip010)" d="M2456.93 45.1919 L2456.93 72.576 L2449.48 72.576 L2449.48 45.4349 Q2449.48 38.994 2446.97 35.7938 Q2444.46 32.5936 2439.43 32.5936 Q2433.4 32.5936 2429.91 36.4419 Q2426.43 40.2903 2426.43 46.9338 L2426.43 72.576 L2418.94 72.576 L2418.94 27.2059 L2426.43 27.2059 L2426.43 34.2544 Q2429.1 30.163 2432.71 28.1376 Q2436.36 26.1121 2441.09 26.1121 Q2448.91 26.1121 2452.92 30.9732 Q2456.93 35.7938 2456.93 45.1919 Z" fill="#000000" fill-rule="nonzero" fill-opacity="1" /><path clip-path="url(#clip010)" d="M2500.72 28.5427 L2500.72 35.5912 Q2497.56 33.9709 2494.16 33.1607 Q2490.76 32.3505 2487.11 32.3505 Q2481.56 32.3505 2478.77 34.0519 Q2476.01 35.7533 2476.01 39.156 Q2476.01 41.7486 2478 43.2475 Q2479.98 44.7058 2485.98 46.0426 L2488.53 46.6097 Q2496.47 48.3111 2499.79 51.4303 Q2503.15 54.509 2503.15 60.0587 Q2503.15 66.3781 2498.13 70.0644 Q2493.15 73.7508 2484.4 73.7508 Q2480.75 73.7508 2476.78 73.0216 Q2472.85 72.3329 2468.48 70.9151 L2468.48 63.2184 Q2472.61 65.3654 2476.62 66.4591 Q2480.63 67.5124 2484.56 67.5124 Q2489.83 67.5124 2492.66 65.73 Q2495.5 63.9071 2495.5 60.6258 Q2495.5 57.5877 2493.43 55.9673 Q2491.41 54.3469 2484.48 52.8481 L2481.89 52.2405 Q2474.96 50.7821 2471.88 47.7845 Q2468.8 44.7463 2468.8 39.4801 Q2468.8 33.0797 2473.34 29.5959 Q2477.88 26.1121 2486.22 26.1121 Q2490.35 26.1121 2494 26.7198 Q2497.65 27.3274 2500.72 28.5427 Z" fill="#000000" fill-rule="nonzero" fill-opacity="1" /><path clip-path="url(#clip010)" d="M2522.23 65.7705 L2522.23 89.8329 L2514.74 89.8329 L2514.74 27.2059 L2522.23 27.2059 L2522.23 34.0924 Q2524.58 30.0415 2528.15 28.0971 Q2531.75 26.1121 2536.74 26.1121 Q2545 26.1121 2550.15 32.6746 Q2555.33 39.2371 2555.33 49.9314 Q2555.33 60.6258 2550.15 67.1883 Q2545 73.7508 2536.74 73.7508 Q2531.75 73.7508 2528.15 71.8063 Q2524.58 69.8214 2522.23 65.7705 M2547.59 49.9314 Q2547.59 41.7081 2544.19 37.0496 Q2540.83 32.3505 2534.91 32.3505 Q2529 32.3505 2525.6 37.0496 Q2522.23 41.7081 2522.23 49.9314 Q2522.23 58.1548 2525.6 62.8538 Q2529 67.5124 2534.91 67.5124 Q2540.83 67.5124 2544.19 62.8538 Q2547.59 58.1548 2547.59 49.9314 Z" fill="#000000" fill-rule="nonzero" fill-opacity="1" /><path clip-path="url(#clip010)" d="M2585.27 32.4315 Q2579.27 32.4315 2575.79 37.1306 Q2572.3 41.7891 2572.3 49.9314 Q2572.3 58.0738 2575.75 62.7728 Q2579.23 67.4314 2585.27 67.4314 Q2591.22 67.4314 2594.71 62.7323 Q2598.19 58.0333 2598.19 49.9314 Q2598.19 41.8701 2594.71 37.1711 Q2591.22 32.4315 2585.27 32.4315 M2585.27 26.1121 Q2594.99 26.1121 2600.54 32.4315 Q2606.09 38.7509 2606.09 49.9314 Q2606.09 61.0714 2600.54 67.4314 Q2594.99 73.7508 2585.27 73.7508 Q2575.5 73.7508 2569.95 67.4314 Q2564.44 61.0714 2564.44 49.9314 Q2564.44 38.7509 2569.95 32.4315 Q2575.5 26.1121 2585.27 26.1121 Z" fill="#000000" fill-rule="nonzero" fill-opacity="1" /><path clip-path="url(#clip010)" d="M2625.82 14.324 L2625.82 27.2059 L2641.17 27.2059 L2641.17 32.9987 L2625.82 32.9987 L2625.82 57.6282 Q2625.82 63.1779 2627.32 64.7578 Q2628.85 66.3376 2633.51 66.3376 L2641.17 66.3376 L2641.17 72.576 L2633.51 72.576 Q2624.88 72.576 2621.6 69.3758 Q2618.32 66.1351 2618.32 57.6282 L2618.32 32.9987 L2612.85 32.9987 L2612.85 27.2059 L2618.32 27.2059 L2618.32 14.324 L2625.82 14.324 Z" fill="#000000" fill-rule="nonzero" fill-opacity="1" /><path clip-path="url(#clip010)" d="M2697.88 20.1573 L2686.78 50.2555 L2709.02 50.2555 L2697.88 20.1573 M2693.26 12.096 L2702.54 12.096 L2725.59 72.576 L2717.08 72.576 L2711.57 57.061 L2684.31 57.061 L2678.8 72.576 L2670.17 72.576 L2693.26 12.096 Z" fill="#000000" fill-rule="nonzero" fill-opacity="1" /><path clip-path="url(#clip010)" d="M2765.29 28.9478 L2765.29 35.9153 Q2762.13 34.1734 2758.93 33.3227 Q2755.77 32.4315 2752.53 32.4315 Q2745.28 32.4315 2741.27 37.0496 Q2737.26 41.6271 2737.26 49.9314 Q2737.26 58.2358 2741.27 62.8538 Q2745.28 67.4314 2752.53 67.4314 Q2755.77 67.4314 2758.93 66.5807 Q2762.13 65.6895 2765.29 63.9476 L2765.29 70.8341 Q2762.17 72.2924 2758.81 73.0216 Q2755.49 73.7508 2751.72 73.7508 Q2741.47 73.7508 2735.43 67.3098 Q2729.4 60.8689 2729.4 49.9314 Q2729.4 38.832 2735.47 32.472 Q2741.59 26.1121 2752.2 26.1121 Q2755.65 26.1121 2758.93 26.8413 Q2762.21 27.5299 2765.29 28.9478 Z" fill="#000000" fill-rule="nonzero" fill-opacity="1" /><path clip-path="url(#clip010)" d="M2785.62 14.324 L2785.62 27.2059 L2800.98 27.2059 L2800.98 32.9987 L2785.62 32.9987 L2785.62 57.6282 Q2785.62 63.1779 2787.12 64.7578 Q2788.66 66.3376 2793.32 66.3376 L2800.98 66.3376 L2800.98 72.576 L2793.32 72.576 Q2784.69 72.576 2781.41 69.3758 Q2778.13 66.1351 2778.13 57.6282 L2778.13 32.9987 L2772.66 32.9987 L2772.66 27.2059 L2778.13 27.2059 L2778.13 14.324 L2785.62 14.324 Z" fill="#000000" fill-rule="nonzero" fill-opacity="1" /><path clip-path="url(#clip010)" d="M2810.78 27.2059 L2818.23 27.2059 L2818.23 72.576 L2810.78 72.576 L2810.78 27.2059 M2810.78 9.54393 L2818.23 9.54393 L2818.23 18.9825 L2810.78 18.9825 L2810.78 9.54393 Z" fill="#000000" fill-rule="nonzero" fill-opacity="1" /><path clip-path="url(#clip010)" d="M2828.48 27.2059 L2836.38 27.2059 L2850.56 65.2844 L2864.74 27.2059 L2872.64 27.2059 L2855.62 72.576 L2845.5 72.576 L2828.48 27.2059 Z" fill="#000000" fill-rule="nonzero" fill-opacity="1" /><path clip-path="url(#clip010)" d="M2882.93 27.2059 L2890.38 27.2059 L2890.38 72.576 L2882.93 72.576 L2882.93 27.2059 M2882.93 9.54393 L2890.38 9.54393 L2890.38 18.9825 L2882.93 18.9825 L2882.93 9.54393 Z" fill="#000000" fill-rule="nonzero" fill-opacity="1" /><path clip-path="url(#clip010)" d="M2913.35 14.324 L2913.35 27.2059 L2928.7 27.2059 L2928.7 32.9987 L2913.35 32.9987 L2913.35 57.6282 Q2913.35 63.1779 2914.85 64.7578 Q2916.39 66.3376 2921.05 66.3376 L2928.7 66.3376 L2928.7 72.576 L2921.05 72.576 Q2912.42 72.576 2909.14 69.3758 Q2905.86 66.1351 2905.86 57.6282 L2905.86 32.9987 L2900.39 32.9987 L2900.39 27.2059 L2905.86 27.2059 L2905.86 14.324 L2913.35 14.324 Z" fill="#000000" fill-rule="nonzero" fill-opacity="1" /><path clip-path="url(#clip010)" d="M2957.38 76.7889 Q2954.22 84.8907 2951.23 87.3618 Q2948.23 89.8329 2943.2 89.8329 L2937.25 89.8329 L2937.25 83.5945 L2941.62 83.5945 Q2944.7 83.5945 2946.4 82.1361 Q2948.11 80.6778 2950.17 75.2496 L2951.51 71.8468 L2933.16 27.2059 L2941.06 27.2059 L2955.24 62.6918 L2969.41 27.2059 L2977.31 27.2059 L2957.38 76.7889 Z" fill="#000000" fill-rule="nonzero" fill-opacity="1" /><polyline clip-path="url(#clip012)" style="stroke:#009af9; stroke-linecap:round; stroke-linejoin:round; stroke-width:8; stroke-opacity:1; fill:none" points="383.645,2854.05 397.417,2768.23 411.19,2696.71 424.962,2596.59 438.734,2410.65 452.506,2095.98 466.279,2510.77 480.051,2639.5 493.823,2782.53 507.595,2811.14 521.368,2882.66 535.14,2925.57 548.912,2925.57 562.684,2896.96 576.457,2768.23 590.229,2539.38 604.001,2253.31 617.773,2024.46 631.546,2067.37 645.318,2367.74 659.09,2525.07 672.862,2553.68 686.635,2610.89 700.407,2768.23 714.179,2625.2 727.951,2353.44 741.724,1809.91 755.496,1180.57 769.268,1452.33 783.04,1881.43 796.813,2253.31 810.585,2424.95 824.357,2768.23 838.129,2854.05 851.902,2696.71 865.674,2439.25 879.446,1924.34 893.219,1767 906.991,1337.9 920.763,1480.94 934.535,1881.43 948.308,2353.44 962.08,2639.5 975.852,2696.71 989.624,2854.05 1003.4,2768.23 1017.17,2610.89 1030.94,2353.44 1044.71,2067.37 1058.49,1768.43 1072.26,1732.67 1086.03,2243.3 1099.8,2241.87 1113.57,2486.46 1127.35,2751.07 1141.12,2788.25 1154.89,2779.67 1168.66,2462.14 1182.44,2244.73 1196.21,2153.19 1209.98,2025.89 1223.75,1696.92 1237.52,2050.21 1251.3,2280.49 1265.07,2404.93 1278.84,2626.63 1292.61,2762.51 1306.39,2384.9 1320.16,1927.2 1333.93,1407.99 1347.7,1483.8 1361.48,1758.42 1375.25,1974.4 1389.02,2427.81 1402.79,2487.89 1416.56,2825.44 1430.34,2642.36 1444.11,1602.51 1457.88,717.143 1471.65,1124.79 1485.43,1712.65 1499.2,1951.51 1512.97,2374.89 1526.74,2599.45 1540.51,2779.67 1554.29,2580.86 1568.06,1739.83 1581.83,1037.54 1595.6,1053.27 1609.38,1236.35 1623.15,1639.7 1636.92,1972.97 1650.69,2067.37 1664.46,2254.74 1678.24,2339.13 1692.01,2620.91 1705.78,2696.71 1719.55,2834.02 1733.33,2866.92 1747.1,2828.3 1760.87,2718.17 1774.64,2439.25 1788.42,2281.92 1802.19,2309.1 1815.96,2246.16 1829.73,2321.97 1843.5,2523.64 1857.28,2781.1 1871.05,2809.71 1884.82,2889.81 1898.59,2925.57 1912.37,2905.54 1926.14,2854.05 1939.91,2751.07 1953.68,2726.75 1967.45,2419.23 1981.23,2270.48 1995,2337.7 2008.77,2495.04 2022.54,2583.72 2036.32,2702.43 2050.09,2831.16 2063.86,2868.35 2077.63,2899.82 2091.4,2803.99 2105.18,2688.13 2118.95,2406.36 2132.72,2216.12 2146.49,2007.3 2160.27,1967.25 2174.04,1911.46 2187.81,2241.87 2201.58,2532.23 2215.36,2803.99 2229.13,2736.76 2242.9,2111.71 2256.67,1187.72 2270.44,947.425 2284.22,1449.47 2297.99,1699.78 2311.76,2001.58 2325.53,2400.64 2339.31,2579.43 2353.08,2772.52 2366.85,2711.02 2380.62,2352 2394.39,2045.92 2408.17,1516.69 2421.94,1141.95 2435.71,1548.16 2449.48,1972.97 2463.26,2003.01 2477.03,2151.76 2490.8,2367.74 2504.57,2630.92 2518.34,2829.73 2532.12,2864.06 2545.89,2600.88 2559.66,2141.75 2573.43,1583.92 2587.21,1555.31 2600.98,1821.35 2614.75,2080.24 2628.52,2296.22 2642.3,2253.31 2656.07,2489.32 2669.84,2692.42 2683.61,2821.15 2697.38,2387.76 2711.16,1867.12 2724.93,937.413 2738.7,1335.04 2752.47,1472.35 2766.25,1978.69 2780.02,2286.21 2793.79,2682.41 2807.56,2763.94 2821.33,2748.21 2835.11,2876.93 2848.88,2839.75 2862.65,2463.57 2876.42,2148.9 2890.2,2071.66 2903.97,2014.45 2917.74,2017.31 2931.51,2178.94 2945.28,2562.26 2959.06,2738.19 2972.83,2828.3 2986.6,2835.45 3000.37,2824.01 3014.15,2416.37 3027.92,1881.43 3041.69,1708.36 3055.46,1809.91 3069.24,2010.16 3083.01,2327.69 3096.78,2550.82 3110.55,2543.67 3124.32,2752.5 3138.1,2789.68 3151.87,2886.95 3165.64,2854.05 3179.41,2576.57 3193.19,2324.83 3206.96,2017.31 3220.73,2156.05 3234.5,2038.76 3248.27,2231.86 3262.05,2297.65 3275.82,2659.52 3289.59,2844.04 3303.36,2874.07 3317.14,2905.54 3330.91,2788.25 3344.68,2247.59 3358.45,2108.85 3372.22,1439.46 3386,1772.72 3399.77,2015.88 3413.54,2387.76 3427.31,2552.25 3441.09,2722.46 3454.86,2842.61 3468.63,2686.7 3482.4,2291.93 3496.18,2011.59 3509.95,1938.64 3523.72,1812.77 3537.49,1997.28 3551.26,2414.94 3565.04,2622.34 3578.81,2766.8 3592.58,2844.04 3606.35,2801.13 3620.13,2409.22 3633.9,1785.6 3647.67,1289.27 3661.44,1357.93 3675.21,1655.44 3688.99,1955.8 3702.76,2246.16 3716.53,2487.89 3730.3,2692.42 3744.08,2788.25 3757.85,2450.7 3771.62,1601.08 3785.39,757.192 3799.16,976.032 3812.94,998.917 3826.71,1725.52 3840.48,1932.92 3854.25,2475.01 3868.03,2726.75 3881.8,2862.63 3895.57,2382.04 3909.34,898.794 3923.12,205.086 3936.89,282.324 3950.66,651.348 3964.43,1319.31 3978.2,2154.62 3991.98,2387.76 4005.75,2526.5 4019.52,2779.67 4033.29,2709.59 4047.07,2253.31 4060.84,1583.92 4074.61,1410.85 4088.38,1416.57 4102.15,1430.88 4115.93,1972.97 4129.7,1940.07 4143.47,2382.04 4157.24,2432.1 4171.02,2703.87 4184.79,2745.34 4198.56,2532.23 4212.33,1602.51 4226.1,702.84 4239.88,714.282 4253.65,917.389 4267.42,1267.82 4281.19,1972.97 4294.97,2269.05 4308.74,2669.54 4322.51,2733.9 4336.28,2505.05 4350.06,1492.38 4363.83,671.373 4377.6,885.921 4391.37,841.581 4405.14,1576.77 4418.92,2144.61 4432.69,2497.9 4446.46,2675.26 4460.23,2802.56 4474.01,2618.05 4487.78,2005.87 4501.55,1591.07 4515.32,1214.9 4529.09,1337.9 4542.87,1438.03 4556.64,2014.45 4570.41,2347.71 4584.18,2499.33 4597.96,2708.16 4611.73,2818.29 4625.5,2884.09 "/>
</svg>
